<?xml version="1.0" standalone="no"?>
<!DOCTYPE svg PUBLIC "-//W3C//DTD SVG 1.1//EN" "http://www.w3.org/Graphics/SVG/1.1/DTD/svg11.dtd" >
<svg xmlns="http://www.w3.org/2000/svg">
<metadata>
This is a custom SVG webfont generated by Font Squirrel.
Copyright   : Copyright  2001 Berthold LLC All rights reserved AkzidenzGrotesk is a trademark of Berthold Types Limited
</metadata>
<defs>
<font id="AkzidenzGroteskBQLightCondeIt" horiz-adv-x="468" >
<font-face units-per-em="2048" ascent="1638" descent="-410" />
<missing-glyph horiz-adv-x="380" />
<glyph unicode=" "  horiz-adv-x="380" />
<glyph unicode="&#x09;" horiz-adv-x="380" />
<glyph unicode="&#xa0;" horiz-adv-x="380" />
<glyph unicode="!" horiz-adv-x="376" d="M51 0l43 184h92l-43 -184h-92zM160 383l53 293l184 770h99l-189 -784l-90 -279h-57z" />
<glyph unicode="&#x22;" horiz-adv-x="557" d="M215 926l98 590h119l-174 -590h-43zM492 926l98 590h119l-174 -590h-43z" />
<glyph unicode="#" horiz-adv-x="1052" d="M51 539l19 82h282l72 229h-272l20 84h279l159 512h88l-157 -512h202l164 512h82l-158 -512h279l-18 -84h-289l-72 -229h281l-19 -82h-288l-175 -539h-86l174 539h-204l-172 -539h-86l170 539h-275zM440 621h203l72 229h-201z" />
<glyph unicode="$" horiz-adv-x="800" d="M16 248q0 37 29 166l10 47h99l-15 -62q-25 -100 -24 -149q0 -76 52 -119t146 -43q127 0 183 78q33 47 58.5 131t25.5 145q0 57 -23 107q-31 59 -143 184q-78 86 -107 127q-55 82 -55 174q0 51 18 121q33 139 109 213q78 74 207 76l22 96h68l-23 -100q178 -35 178 -195 q0 -53 -28 -166h-101l19 72q10 41 10 76q0 131 -151 131q-102 0 -156 -74q-29 -37 -48.5 -103.5t-19.5 -123.5q0 -41 15 -84q14 -35 32 -62q33 -43 101 -120q78 -86 106 -127q70 -102 70 -209q0 -72 -28.5 -166t-69.5 -156q-84 -129 -279 -129l-35 -145h-69l34 147 q-217 45 -217 242z" />
<glyph unicode="%" horiz-adv-x="1193" d="M45 -115l1163 1727l49 -33l-1161 -1722zM98 680q0 39 17 106l98 408q14 63 20 80q14 61 50 108q47 70 151 70q80 0 126 -39t46 -108q0 -39 -16 -107l-98 -410q-29 -125 -70 -184q-49 -72 -154 -72q-78 0 -124 40t-46 108zM176 694q0 -88 100 -88q47 0 72 25q33 27 62 145 l104 422q16 70 16 90q0 90 -102 90q-47 0 -72 -24q-33 -29 -61 -146l-105 -422q-14 -57 -14 -92zM686 141q0 39 16 107l99 409q2 10 9 38t11 40q20 68 49 109q51 70 154 69q80 0 126 -38.5t46 -108.5q0 -35 -16 -107l-99 -409q-33 -131 -69 -184q-49 -72 -154 -72 q-80 0 -126 39.5t-46 107.5zM764 158q0 -90 102 -90q43 0 72 24q31 29 59 146l105 421q16 66 16 93q0 41 -27.5 64.5t-74.5 23.5q-45 0 -72 -25q-31 -25 -59 -145l-107 -422q-14 -57 -14 -90z" />
<glyph unicode="&#x26;" horiz-adv-x="884" d="M41 244q0 104 57 194q27 47 62 82q66 72 180 160q-14 92 -14 158q0 190 69.5 300.5t190.5 110.5q72 0 112.5 -40t40.5 -109q0 -63 -43 -148q-39 -70 -108 -147q-80 -84 -152 -143q20 -127 58 -248q41 -143 86 -221q76 74 135 202q10 23 35 99q20 59 49 206h90 q-4 -16 -9.5 -38.5t-8.5 -37t-5 -24.5q-39 -162 -98 -272q-63 -125 -143 -201q47 -49 127 -49q27 0 45 2l-21 -84h-24q-78 0 -116 13.5t-83 56.5q-111 -84 -248 -84q-123 0 -193.5 70.5t-70.5 191.5zM135 256q0 -90 48 -140t134 -50t193 67q-94 150 -154 455 q-66 -55 -114 -107q-107 -112 -107 -225zM418 840q0 -47 4 -82q37 33 41 37q94 88 133 151q55 88 55 146q0 37 -21.5 59.5t-60.5 22.5q-72 0 -111.5 -88t-39.5 -246z" />
<glyph unicode="'" horiz-adv-x="280" d="M215 926l98 590h119l-174 -590h-43z" />
<glyph unicode="(" d="M92 313q0 360 191 697q106 184 245 323q39 39 144 123l-27 -117q-104 -98 -164.5 -179t-128.5 -214q-88 -172 -129 -336q-35 -152 -35 -331q0 -250 105 -459l-31 -117q-90 147 -123 260q-47 157 -47 350z" />
<glyph unicode=")" d="M-164 -299l29 117q104 98 164.5 179t128.5 214q84 164 127 336q37 162 37 332q0 248 -105 458l29 117q90 -145 125 -260q47 -158 47 -350q0 -362 -193 -697q-104 -184 -245 -323q-42 -41 -144 -123z" />
<glyph unicode="*" horiz-adv-x="624" d="M231 1286l39 70l172 -90l43 192l80 -18l-43 -197l199 23l10 -76l-205 -29l80 -186l-74 -33l-81 184l-140 -135l-53 62l141 139z" />
<glyph unicode="+" horiz-adv-x="1142" d="M195 563l20 84h354l84 377h92l-83 -377h354l-23 -84h-352l-86 -377h-90l84 377h-354z" />
<glyph unicode="," horiz-adv-x="299" d="M-51 -184l10 47q25 12 41 33q20 27 41 104h-49l43 186h92l-43 -184q-20 -86 -47 -123.5t-88 -62.5z" />
<glyph unicode="-" horiz-adv-x="507" d="M92 555l21 86h362l-20 -86h-363z" />
<glyph unicode="." horiz-adv-x="299" d="M-8 0l43 184h90l-43 -184h-90z" />
<glyph unicode="/" horiz-adv-x="641" d="M-35 0l742 1446h92l-740 -1446h-94z" />
<glyph unicode="0" horiz-adv-x="724" d="M18 229q0 55 23 152l172 741q39 168 106 236q84 90 230 90q121 0 193.5 -63.5t72.5 -170.5q0 -57 -22 -151l-172 -741q-39 -168 -107 -236q-86 -92 -229 -92q-121 0 -194 64.5t-73 170.5zM119 248q0 -78 47 -122t131 -44q82 0 141 55q27 27 41 56q23 47 47 151l158 670 q31 133 31 182q0 78 -47 121t-131 43q-86 0 -142 -55q-29 -29 -41 -54q-23 -47 -47 -151l-157 -672q-31 -131 -31 -180z" />
<glyph unicode="1" horiz-adv-x="724" d="M225 0l289 1255q-94 -90 -262 -106l22 90q94 16 173 69.5t118 129.5h88l-331 -1438h-97z" />
<glyph unicode="2" horiz-adv-x="724" d="M-31 0l25 106q10 20 29 52q51 80 174 211l45 47q133 141 215 246q63 82 100 151q47 86 82 213t35 207q0 61 -37 96t-100 35q-80 0 -122 -59.5t-81 -227.5l-23 -98h-96l33 137q43 182 109.5 257t187.5 75q106 0 166.5 -54.5t60.5 -150.5q0 -104 -53 -280 q-33 -106 -70 -179q-74 -139 -276 -358l-88 -94q-27 -29 -71 -79t-46 -52q-68 -88 -84 -115h444l-20 -86h-539z" />
<glyph unicode="3" horiz-adv-x="724" d="M14 213q0 39 19 137q10 51 18 90h92q-39 -174 -39 -223q0 -68 44.5 -107.5t119.5 -39.5q154 0 209 166q63 184 64 311q0 94 -55.5 134t-196.5 46l24 94h9q94 0 173.5 42t112.5 112q25 49 43 145q16 74 17 123q0 115 -131 115q-78 0 -118 -41t-65 -146l-35 -151h-92 l37 158q29 119 66 170q72 100 223 100q100 0 155.5 -49t55.5 -137q0 -131 -55 -281q-33 -84 -92.5 -132t-159.5 -73q96 -20 137 -71.5t41 -151.5q0 -55 -12 -123q-4 -29 -23 -96q-23 -88 -51 -158q-37 -90 -98 -133q-74 -55 -179 -55q-123 0 -190.5 59.5t-67.5 165.5z" />
<glyph unicode="4" horiz-adv-x="724" d="M33 461l22 94l576 881h127l-201 -889h168l-20 -86h-168l-107 -461h-98l106 461h-405zM145 547h314l174 756z" />
<glyph unicode="5" horiz-adv-x="724" d="M45 180q0 49 18 129l35 146h90l-26 -113q-23 -100 -23 -135q0 -129 140 -129q78 0 124 43t74 143q33 113 80 326q31 133 31 178q0 121 -129 121q-82 0 -127 -44t-72 -153h-80l174 748h475l-20 -88h-383l-100 -430q68 55 161 55q90 0 143.5 -52.5t53.5 -140.5 q0 -47 -29 -182q-53 -233 -75 -319q-29 -106 -68 -168q-72 -123 -238 -123q-100 0 -164.5 52t-64.5 136z" />
<glyph unicode="6" horiz-adv-x="724" d="M43 197q0 39 25 143l180 778q33 143 71 207q80 125 254 125q119 0 184.5 -53.5t65.5 -149.5q0 -41 -18 -129l-14 -63l-93 2l13 69q16 88 16 103q0 63 -43 98t-117 35q-98 0 -149 -57q-45 -53 -80 -211l-72 -314q82 88 213 88q92 0 150.5 -55t58.5 -143q0 -55 -18 -131 l-54 -230q-27 -113 -52 -168t-72 -92q-84 -68 -205 -67q-244 0 -244 215zM141 209q0 -135 156 -135q92 0 142 52t79 177l55 242q14 57 15 104q0 59 -38 94t-101 35q-88 0 -150.5 -61.5t-89.5 -173.5l-49 -213q-19 -76 -19 -121z" />
<glyph unicode="7" horiz-adv-x="724" d="M96 0q20 86 23 96q78 324 215 609q109 221 229 411q51 82 156 234h-457l21 90h555l-23 -90q-231 -340 -369 -631q-100 -217 -147 -350q-23 -72 -27 -90q-35 -115 -69 -279h-107z" />
<glyph unicode="8" horiz-adv-x="724" d="M33 184q0 45 24 152l47 207q29 123 76 182t142 80q-8 6 -21 14l-18 12q-53 47 -54 130q0 29 11 73l36 160q29 127 82 182q74 76 213 76q113 0 173.5 -46t60.5 -132q0 -55 -14 -113l-31 -131q-12 -55 -12 -57q-18 -66 -58 -111q-49 -55 -133 -69q119 -39 119 -164 q0 -41 -17 -113l-59 -256q-63 -276 -324 -276q-111 0 -177 54t-66 146zM129 205q0 -135 170 -135q84 0 134 51t77 166l57 245q10 39 11 84q0 137 -166 138q-90 0 -138.5 -48.5t-74.5 -164.5l-52 -224q-18 -87 -18 -112zM322 963q0 -55 39.5 -87t107.5 -32t119 37 q31 23 47 55.5t33 103.5l30 131q10 41 11 78q0 55 -41 86t-117 31q-68 0 -113 -35t-71 -147l-35 -156q-10 -45 -10 -65z" />
<glyph unicode="9" horiz-adv-x="724" d="M20 184q0 41 19 129l14 64h92q-27 -125 -26 -176q0 -61 42 -96t115 -35q100 0 150 59q43 49 80 209l72 313q-82 -88 -213 -88q-92 0 -150.5 55.5t-58.5 143.5q0 55 18 131l53 229q27 113 52.5 168.5t72.5 93.5q82 66 205 66q244 0 244 -215q0 -37 -25 -143l-180 -779 q-33 -143 -72 -204q-78 -125 -254 -125q-119 0 -184.5 52t-65.5 148zM256 782q0 -57 38 -93t101 -36q88 0 150.5 62.5t89.5 173.5l49 213q18 78 18 121q0 135 -155 135q-92 0 -142.5 -51.5t-78.5 -176.5l-58 -243q-12 -50 -12 -105z" />
<glyph unicode=":" horiz-adv-x="380" d="M74 0l43 184h90l-43 -184h-90zM246 745l43 185h90l-43 -185h-90z" />
<glyph unicode=";" horiz-adv-x="380" d="M33 -184l10 47q27 16 41 33q23 27 39 104h-49l43 186h92l-41 -184q-18 -86 -46 -123.5t-89 -62.5zM246 745l43 185h90l-43 -185h-90z" />
<glyph unicode="&#x3c;" horiz-adv-x="1144" d="M176 551l23 92l823 399l-25 -110l-714 -338l561 -348l-19 -92z" />
<glyph unicode="=" horiz-adv-x="1144" d="M170 416l18 86h799l-20 -86h-797zM238 711l20 86h797l-19 -86h-798z" />
<glyph unicode="&#x3e;" horiz-adv-x="1144" d="M168 154l27 110l712 338l-561 348l21 90l647 -395l-21 -94z" />
<glyph unicode="?" horiz-adv-x="710" d="M209 0l43 184h98l-43 -184h-98zM244 987q45 266 119.5 376t211.5 110q100 0 161 -56.5t61 -152.5q0 -137 -60 -310q-27 -74 -84 -143q-43 -55 -94 -106l-33 -33q-8 -8 -51 -58q-29 -33 -47 -106l-37 -152h-98l41 170q16 61 36.5 99.5t71.5 91.5q23 25 48.5 51.5 t48.5 50.5q12 14 27.5 32.5t19.5 22.5q35 43 53 87q14 31 31 100q31 141 30 196q0 129 -129 129q-84 0 -129 -69q-31 -51 -96 -305l-6 -25h-96z" />
<glyph unicode="@" horiz-adv-x="1798" d="M133 444q0 272 133 507t360.5 372t489.5 137q268 0 426 -150.5t158 -410.5q0 -219 -105 -428q-76 -145 -181 -233t-206 -88q-70 0 -110.5 44t-40.5 115q0 18 2 41q-135 -197 -314 -196q-115 0 -182 80.5t-67 218.5q0 231 136 415.5t306 184.5q172 0 233 -197q0 -2 2.5 -5 t2.5 -5l41 160h94l-76 -295q-59 -223 -68 -297q-8 -45 -8 -70q0 -106 90 -106q55 0 111 49q117 100 188.5 268t71.5 340q0 225 -138.5 357t-375.5 132q-360 0 -627.5 -279.5t-267.5 -655.5q0 -281 187.5 -453t490.5 -172q256 0 493 135q111 63 220 164l45 -53 q-332 -319 -758 -320q-336 0 -546 192.5t-210 501.5zM596 459q0 -104 49 -166t133 -62q137 0 246 143.5t109 342.5v26q0 102 -51.5 168t-133.5 66q-137 0 -244.5 -158.5t-107.5 -359.5z" />
<glyph unicode="A" horiz-adv-x="768" d="M-66 0l607 1454h139l-80 -1454h-98l26 440h-307l-180 -440h-107zM260 535h272l58 808z" />
<glyph unicode="B" horiz-adv-x="759" d="M2 0l334 1446h176q70 0 117 -6q76 -10 119 -74q31 -43 30 -121q0 -47 -8 -86l-31 -145q-2 -23 -12 -49q-27 -88 -65 -127q-49 -45 -146 -54q76 -8 121 -61t45 -135q0 -57 -14 -115l-41 -172q-41 -176 -113 -238q-31 -25 -76 -40q-59 -23 -205 -23h-231zM121 88h133 q131 0 188 39q31 23 49.5 60.5t38.5 125.5l39 172q12 49 13 86q0 164 -211 164h-101zM289 823h94q113 0 172 37q57 35 82 144l37 157q6 31 6 64q0 76 -38 105.5t-132 29.5h-96z" />
<glyph unicode="C" horiz-adv-x="763" d="M57 223q0 68 35 213l166 709q39 168 102 235q78 80 211 80q127 0 197 -54t70 -155q0 -59 -23 -161l-29 -119h-98l27 119q23 102 22 145q0 63 -44 99t-122 36q-86 0 -134 -48t-75 -159l-167 -717l-17 -69q-18 -78 -18 -133q0 -80 46 -124t128 -44t127 39q33 27 52 71.5 t42 149.5l29 133h98l-27 -121q-35 -160 -65 -221q-35 -66 -102.5 -103.5t-155.5 -37.5q-127 0 -201 64t-74 173z" />
<glyph unicode="D" horiz-adv-x="800" d="M2 0l334 1446h119q109 0 178 -21q86 -25 134 -97.5t48 -178.5q0 -123 -41 -295l-67 -291q-57 -256 -103 -348q-55 -119 -148.5 -167t-262.5 -48h-191zM119 90h86q109 0 173 23.5t103 81.5q33 49 60 120q27 70 71 265l64 276q41 174 41 274q0 117 -63.5 170.5t-200.5 53.5 h-43z" />
<glyph unicode="E" horiz-adv-x="675" d="M-2 0l334 1446h497l-20 -90h-399l-129 -557h333l-20 -88h-334l-143 -621h411l-20 -90h-510z" />
<glyph unicode="F" horiz-adv-x="634" d="M-2 0l334 1446h502l-21 -90h-403l-129 -557h362l-20 -88h-363l-164 -711h-98z" />
<glyph unicode="G" horiz-adv-x="802" d="M57 209q0 74 21 164l170 731q49 215 129 289q78 70 213 69q121 0 189.5 -57t68.5 -160q0 -53 -12 -102l-37 -162h-97l35 149q14 66 15 103q0 68 -46.5 106.5t-127.5 38.5q-76 0 -125 -39q-37 -27 -56 -71q-27 -55 -55 -183l-166 -723q-23 -92 -22 -137q0 -74 41 -115.5 t110 -41.5q90 0 158.5 73.5t97.5 198.5l53 231h-213l21 88h313l-153 -659h-76l26 115q-51 -72 -104 -101.5t-129 -29.5q-111 0 -176.5 61.5t-65.5 163.5z" />
<glyph unicode="H" horiz-adv-x="811" d="M2 0l334 1446h98l-151 -643h379l149 643h98l-331 -1446h-99l164 717h-379l-164 -717h-98z" />
<glyph unicode="I" horiz-adv-x="335" d="M2 0l334 1446h98l-334 -1446h-98z" />
<glyph unicode="J" horiz-adv-x="671" d="M6 166q0 39 17 115l40 176h99l-43 -189q-12 -51 -13 -84q0 -117 125 -116q76 0 115 49q29 35 60 172l266 1157h98l-268 -1170q-35 -147 -80 -208q-61 -86 -201 -86q-96 0 -155.5 50t-59.5 134z" />
<glyph unicode="K" horiz-adv-x="708" d="M-2 0l334 1446h100l-166 -711l510 711h119l-438 -582l133 -864h-101l-114 752l-152 -203l-127 -549h-98z" />
<glyph unicode="L" horiz-adv-x="632" d="M-2 0l334 1446h98l-311 -1356h377l-21 -90h-477z" />
<glyph unicode="M" horiz-adv-x="1011" d="M-6 0l346 1446h147l-53 -1272l533 1272h147l-319 -1446h-97l316 1358l-574 -1358h-92l51 1364l-305 -1364h-100z" />
<glyph unicode="N" horiz-adv-x="800" d="M-2 0l334 1446h147l29 -1383l303 1383h98l-334 -1446h-153l-27 1341l-301 -1341h-96z" />
<glyph unicode="O" horiz-adv-x="811" d="M55 215q0 66 21 154l180 770q39 170 104 235q84 90 232 90q121 0 192.5 -63.5t71.5 -169.5q0 -66 -20 -154l-181 -770q-39 -168 -104 -235q-88 -90 -232 -90q-121 0 -192.5 63.5t-71.5 169.5zM156 233q0 -78 47 -120.5t131 -42.5t139 55q27 27 41 53q18 35 47 152 l166 700q29 125 29 182q0 78 -46 121t-132 43q-84 0 -140 -55q-27 -27 -41 -55q-18 -35 -47 -152l-166 -698q-28 -126 -28 -183z" />
<glyph unicode="P" horiz-adv-x="759" d="M-2 0l334 1446h190q57 0 115 -4q92 -6 143 -62q51 -57 51 -161q0 -55 -10 -95l-39 -163q-39 -160 -96 -218q-39 -41 -98 -61q-68 -23 -131 -23h-207l-152 -659h-100zM268 743h138q143 0 196 43q20 18 39 48q27 55 43 127l35 149q10 45 10 98q0 90 -41 122t-158 32h-118z " />
<glyph unicode="Q" horiz-adv-x="811" d="M55 215q0 66 21 154l180 770q39 170 104 235q84 90 232 90q121 0 192.5 -63.5t71.5 -169.5q0 -66 -20 -154l-181 -770q-27 -113 -56.5 -169t-86.5 -101l178 -184l-63 -60l-201 203q-55 -14 -109 -14q-121 0 -191.5 63.5t-70.5 169.5zM156 233q0 -78 47 -120.5t131 -42.5 t139 55q27 27 41 53q18 35 47 152l166 700q29 125 29 182q0 78 -46 121t-132 43q-84 0 -140 -55q-27 -27 -41 -55q-18 -35 -47 -152l-166 -698q-28 -126 -28 -183z" />
<glyph unicode="R" horiz-adv-x="761" d="M-2 0l334 1446h227q100 0 147.5 -13.5t81.5 -48.5q49 -53 50 -139q0 -49 -13 -102l-32 -148q-23 -100 -44.5 -146t-60.5 -77q-68 -53 -170 -61l115 -711h-101l-114 705h-158l-162 -705h-100zM281 791h116q96 0 136 7t73 29q53 37 84 181l33 149q10 41 10 76q0 70 -43 100 q-8 8 -28 17q-33 10 -115 10h-135z" />
<glyph unicode="S" horiz-adv-x="759" d="M20 207q0 55 27 168l23 98h100l-27 -117q-2 -10 -5 -22t-4 -19.5t-3 -12.5t-2 -7q-10 -45 -10 -78q0 -74 47 -114t131 -40q109 0 164 64q35 41 58.5 122t23.5 163q0 109 -88 229l-121 164q-86 117 -86 250q0 100 39 200q41 111 112.5 161t182.5 50q115 0 177 -50t62 -140 q0 -45 -22 -143l-25 -105h-98l31 129q14 57 14 90q0 70 -37 102.5t-117 32.5q-104 0 -155 -88q-27 -45 -46.5 -116.5t-19.5 -124.5q0 -88 72 -189l117 -164q68 -96 86 -151q20 -66 20 -131q0 -109 -35 -209t-90 -152q-90 -80 -225 -80q-127 0 -199 62t-72 168z" />
<glyph unicode="T" horiz-adv-x="622" d="M141 0l314 1356h-246l20 90h590l-20 -90h-242l-313 -1356h-103z" />
<glyph unicode="U" horiz-adv-x="798" d="M49 186q0 55 23 156l256 1104h98l-258 -1120q-18 -76 -18 -127q0 -61 45 -95t127 -34q76 0 118 30q35 25 57.5 74t47.5 156l258 1116h98l-264 -1141q-33 -141 -72 -203q-70 -123 -252 -122q-125 0 -194.5 54t-69.5 152z" />
<glyph unicode="V" horiz-adv-x="716" d="M180 0l88 1446h105l-90 -1233l495 1233h103l-596 -1446h-105z" />
<glyph unicode="W" horiz-adv-x="1150" d="M180 0l88 1446h103l-101 -1262l482 1262h106l-106 -1251l475 1251h108l-569 -1446h-109l105 1243l-477 -1243h-105z" />
<glyph unicode="X" horiz-adv-x="714" d="M-61 0l440 801l-60 645h101l37 -533l284 533h111l-367 -653l80 -793h-98l-59 674l-363 -674h-106z" />
<glyph unicode="Y" horiz-adv-x="716" d="M190 0l148 639l-98 807h104l74 -680l389 680h111l-482 -807l-147 -639h-99z" />
<glyph unicode="Z" horiz-adv-x="714" d="M-53 0l14 66l762 1292h-391l20 88h510l-16 -68l-758 -1288h473l-20 -90h-594z" />
<glyph unicode="[" d="M-25 -289l402 1735h291l-19 -74h-203l-364 -1583h203l-19 -78h-291z" />
<glyph unicode="\" horiz-adv-x="641" d="M266 1446h82l131 -1446h-84z" />
<glyph unicode="]" d="M-150 -285l17 74h203l364 1581h-203l19 78h291l-402 -1733h-289z" />
<glyph unicode="^" horiz-adv-x="1144" d="M195 731l548 715h95l223 -721l-96 2l-191 627l-467 -623h-112z" />
<glyph unicode="_" horiz-adv-x="1024" d="M-225 -406l20 89h1065l-20 -89h-1065z" />
<glyph unicode="`" d="M63 1391h195l148 -224h-68z" />
<glyph unicode="a" horiz-adv-x="636" d="M-4 201q0 133 70 221q29 35 51 53q55 43 174 92q20 8 40.5 17.5t30 13.5t11.5 4l41 21q49 25 80 47l20 84q18 74 18 112q0 88 -118 88q-76 0 -113 -50t-63 -191h-88l6 22q6 23 13 61t11 50q25 90 78 139q57 51 176 51q86 0 137.5 -41t51.5 -110q0 -47 -25 -150l-137 -585 q-4 -33 -4 -35q0 -33 47 -33h14l-18 -82h-21q-84 0 -98 78q-80 -80 -191 -80q-90 0 -142 54.5t-52 148.5zM84 215q0 -135 117 -135q102 0 182 98l90 393q-33 -23 -131 -69l-61 -29q-119 -53 -158 -119q-39 -67 -39 -139z" />
<glyph unicode="b" horiz-adv-x="669" d="M-8 0l334 1446h86l-115 -494q74 86 184 86q80 0 127 -48t47 -130q0 -39 -20 -133l-113 -489q-55 -246 -241 -246q-117 0 -177 94l-20 -86h-92zM135 211q0 -63 42 -102t108 -39q111 0 157 198l111 475q14 66 14 99q0 57 -30.5 88t-85.5 31q-70 0 -121 -46 q-31 -25 -44.5 -59.5t-37.5 -134.5l-96 -412q-17 -75 -17 -98z" />
<glyph unicode="c" horiz-adv-x="628" d="M18 188q0 49 19 131l98 424q39 162 97.5 225.5t173.5 63.5q104 0 160.5 -47t56.5 -135q0 -59 -15 -113l-18 -71h-86l18 79q10 51 10 86q0 125 -131 125q-55 0 -92 -30q-23 -16 -41 -45q-20 -35 -39 -115l-102 -442q-18 -84 -18 -119q0 -129 135 -129q92 0 133 69 q16 33 22 52q4 14 13 39l10 45l27 114h88l-29 -125q-37 -158 -96 -211q-68 -63 -179 -63q-100 0 -157.5 51t-57.5 141z" />
<glyph unicode="d" horiz-adv-x="675" d="M18 166q0 35 19 119l104 448q16 74 37 133q35 88 103 129q57 35 125 35q113 0 169 -96l119 512h86l-334 -1446h-81l14 63q-70 -72 -168 -71q-88 0 -140.5 47t-52.5 127zM106 182q0 -115 134 -114q61 0 109 41t63 110l118 512q8 33 9 76q0 63 -37 103t-94 40 q-61 0 -107 -41q-23 -23 -37 -51q-16 -35 -37 -125l-106 -465q-15 -61 -15 -86z" />
<glyph unicode="e" horiz-adv-x="636" d="M29 172q0 45 14 102l119 514q25 109 61 160q70 88 199 88q100 0 156.5 -49t56.5 -139q0 -49 -21 -137l-47 -207h-385l-53 -232q-12 -55 -12 -88q0 -55 34.5 -86.5t96.5 -31.5q80 0 121 53q27 33 55 149l18 80h88l-22 -96q-33 -143 -86 -199q-68 -68 -178 -67 q-102 0 -158.5 48t-56.5 138zM199 578h297l39 167q12 49 12 91q0 123 -133 122q-78 0 -119 -51q-29 -37 -55 -149z" />
<glyph unicode="f" horiz-adv-x="366" d="M14 0l215 936h-114l20 84h115l39 182q31 143 90 201q51 49 139 49q16 0 66 -6l-19 -82q-41 6 -53 6q-55 0 -86 -37q-16 -23 -25 -43q-10 -31 -26 -104l-39 -166h133l-20 -84h-132l-215 -936h-88z" />
<glyph unicode="g" horiz-adv-x="675" d="M-61 -141q0 18 2 37h88q-2 -16 -2 -33q0 -104 137 -105q72 0 117 35q45 39 75 184l17 80q-66 -66 -168 -65q-84 0 -135.5 48t-51.5 126q0 35 19 119l104 450q20 84 37 131q35 88 103 129q57 35 125 35q61 0 100 -21.5t69 -74.5l23 86h84l-242 -1043l-8 -36l-16 -60 q-57 -205 -260 -205q-102 0 -159.5 48.5t-57.5 134.5zM106 182q0 -115 134 -114q61 0 109 41t63 110l118 512q8 33 9 78q0 61 -37 101t-94 40q-66 0 -107 -41q-20 -16 -37 -51q-14 -29 -37 -123l-106 -467q-15 -61 -15 -86z" />
<glyph unicode="h" horiz-adv-x="681" d="M-8 0l332 1446h86l-121 -526q80 115 190 114q80 0 128 -48t48 -126q0 -57 -20 -141l-168 -719h-86l166 715q20 92 20 131q0 51 -32.5 83t-85.5 32q-68 0 -121.5 -57.5t-75.5 -158.5l-172 -745h-88z" />
<glyph unicode="i" horiz-adv-x="292" d="M-8 0l233 1020h88l-233 -1020h-88zM256 1145l37 160h88l-37 -160h-88z" />
<glyph unicode="j" horiz-adv-x="309" d="M-199 -334l21 88q78 18 115.5 64.5t60.5 148.5l244 1053h88l-244 -1055q-35 -154 -100 -213q-72 -68 -185 -86zM270 1145l37 160h88l-37 -160h-88z" />
<glyph unicode="k" horiz-adv-x="624" d="M-8 0l334 1446h86l-213 -918l395 494h100l-321 -399l127 -623h-90l-109 539l-133 -156l-88 -383h-88z" />
<glyph unicode="l" horiz-adv-x="292" d="M-8 0l332 1446h88l-332 -1446h-88z" />
<glyph unicode="m" horiz-adv-x="1069" d="M-8 0l233 1020h88l-22 -102q74 117 188 116q127 0 170 -125q88 125 215 125q80 0 129 -48t49 -126q0 -57 -20 -141l-168 -719h-86l166 715q20 92 20 131q0 51 -32.5 83t-85.5 32q-66 0 -115 -50q-29 -29 -41 -53q-18 -33 -35 -98l-10 -41l-168 -719h-86l166 715 q20 92 20 131q0 51 -32.5 83t-85.5 32q-68 0 -121.5 -57.5t-75.5 -158.5l-172 -745h-88z" />
<glyph unicode="n" horiz-adv-x="681" d="M-8 0l233 1020h86l-22 -100q74 115 190 114q78 0 126 -48t48 -126q0 -63 -18 -139l-168 -721h-86l164 715q20 92 20 131q0 53 -31.5 85t-87.5 32q-68 0 -121 -58.5t-75 -156.5l-172 -748h-86z" />
<glyph unicode="o" horiz-adv-x="641" d="M20 176q0 49 21 137l96 435q35 158 90 215q68 72 185 71q100 0 161.5 -52t61.5 -138q0 -43 -21 -137l-96 -435q-16 -74 -20 -84q-25 -86 -70 -133q-63 -70 -180 -69q-104 0 -166 51t-62 139zM113 193q0 -57 37.5 -90t105.5 -33q72 0 111 45q37 39 69 188l90 408 q16 72 17 114q0 59 -38 92t-106 33q-70 0 -110 -45q-39 -45 -70 -188l-90 -408q-16 -69 -16 -116z" />
<glyph unicode="p" horiz-adv-x="675" d="M-86 -334l311 1354h82l-14 -64q68 74 170 74q88 0 139 -47t51 -129q0 -35 -18 -119l-103 -448q-14 -59 -38 -131q-31 -84 -103 -129q-59 -37 -125 -37q-61 0 -99 21.5t-71 74.5l-96 -420h-86zM133 213q0 -63 37 -102t96 -39q61 0 105 39q20 20 37 53q16 31 36 123 l109 465q12 55 12 86q0 55 -34.5 85.5t-96.5 30.5q-63 0 -111.5 -42t-62.5 -111l-117 -512q-10 -37 -10 -76z" />
<glyph unicode="q" horiz-adv-x="669" d="M20 168q0 47 21 131l111 485q55 246 241 246q119 0 176 -94l21 84h92l-313 -1354h-86l96 408q-78 -86 -184 -86q-80 0 -127.5 49t-47.5 131zM109 184q0 -119 116 -118q68 0 119 45q31 27 47.5 63.5t36.5 130.5l94 408q14 66 15 98q0 63 -40 102t-104 39q-61 0 -100 -48 t-62 -150l-108 -471q-14 -66 -14 -99z" />
<glyph unicode="r" horiz-adv-x="417" d="M-8 0l235 1020h84l-41 -174q33 61 86 115q68 70 174 83l-24 -110q-100 -8 -175 -86t-106 -209l-147 -639h-86z" />
<glyph unicode="s" horiz-adv-x="589" d="M-10 188q0 45 14 105l19 84h86l-13 -64q-16 -90 -16 -108q0 -135 147 -135q84 0 130 57t46 160q0 76 -55 141l-135 164q-61 76 -61 170q0 123 67.5 197.5t179.5 74.5q96 0 149.5 -47t53.5 -131q0 -31 -14 -92l-15 -66h-88l17 78q8 33 8 74q0 47 -32 74.5t-89 27.5 q-68 0 -108.5 -47t-40.5 -127q0 -51 22 -92q2 -4 7 -13t10 -16q25 -35 120 -147q94 -111 95 -219q0 -137 -75 -220t-200 -83q-104 0 -166.5 55t-62.5 145z" />
<glyph unicode="t" horiz-adv-x="372" d="M33 92q0 10 4 31l10 45l178 770h-114l20 82h113l63 276h88l-63 -276h143l-18 -82h-144l-180 -772q-6 -23 -6 -43q0 -45 74 -45q16 0 69 4l-18 -78q-57 -8 -88 -8q-131 0 -131 96z" />
<glyph unicode="u" horiz-adv-x="681" d="M37 160q0 57 20 141l166 719h88l-166 -715q-20 -90 -20 -131q0 -51 32.5 -83t86.5 -32q68 0 121 58.5t75 156.5l172 746h88l-233 -1020h-88l22 102q-74 -117 -190 -116q-78 0 -126 48t-48 126z" />
<glyph unicode="v" horiz-adv-x="550" d="M117 0l41 1020h90l-51 -885l358 885h94l-432 -1020h-100z" />
<glyph unicode="w" horiz-adv-x="892" d="M106 0l54 1020h88l-60 -862l361 862h72l-56 -852l346 852h90l-434 -1020h-88l60 827l-342 -827h-91z" />
<glyph unicode="x" horiz-adv-x="626" d="M-76 0l344 535l-96 485h90l72 -408l252 408h100l-319 -488l100 -532h-94l-72 453l-276 -453h-101z" />
<glyph unicode="y" horiz-adv-x="589" d="M-178 -322l18 78q51 -10 86 -10q51 0 89 39t83 135l39 86l19 1014h86l-25 -848l389 848h92l-538 -1139q-66 -139 -119 -176t-123 -37q-33 0 -96 10z" />
<glyph unicode="z" horiz-adv-x="585" d="M-63 0l18 78l545 858h-326l21 84h430l-17 -70l-551 -864h355l-21 -86h-454z" />
<glyph unicode="{" horiz-adv-x="434" d="M25 -137q0 41 26 153l78 342q12 49 12 86q0 53 -22.5 81t-77.5 42l14 60q66 10 90 28q61 41 88 164l70 301q37 156 57.5 208t63.5 87q63 51 182 51q29 0 56 -2l-17 -71h-45q-84 0 -119 -33q-27 -25 -39 -53q-18 -51 -36 -129l-76 -334q-29 -127 -71 -179.5t-134 -72.5 q102 -45 102 -156q0 -43 -12 -96l-80 -346q-14 -63 -14 -70q-6 -27 -6 -53q0 -53 33.5 -74.5t123.5 -23.5l-16 -72h-18q-111 0 -162 39t-51 123z" />
<glyph unicode="|" d="M-53 -512l469 2044h88l-471 -2044h-86z" />
<glyph unicode="}" horiz-adv-x="434" d="M-190 -297l14 74q20 -2 47 -2q82 0 117 32q27 25 39 54q18 51 36 129l78 334q31 129 72 180t131 71q-102 45 -102 158q0 33 14 94l78 347q6 29 16 69q6 27 6 53q0 53 -34.5 75t-124.5 24l16 71h18q111 0 162 -38.5t51 -120.5q0 -43 -26 -156l-78 -340q-10 -43 -10 -86 q0 -53 22.5 -81t77.5 -44l-14 -59q-63 -8 -92 -29q-59 -43 -88 -164l-70 -301q-37 -154 -57.5 -207t-63.5 -88q-57 -49 -182 -49h-53z" />
<glyph unicode="~" horiz-adv-x="1144" d="M162 569q59 59 100 88q78 55 168 56q37 0 59 -8q33 -8 103 -41l86 -41q74 -35 108 -35q53 0 107 33q41 23 102 79l60 -61q-80 -72 -131 -100q-76 -41 -146 -41q-59 0 -170 55l-49 25q-84 43 -143 43q-45 0 -82 -19.5t-94 -77.5l-19 -18z" />
<glyph unicode="&#xa1;" horiz-adv-x="376" d="M-10 0l188 784l90 279h58l-54 -293l-184 -770h-98zM299 1262l45 184h92l-45 -184h-92z" />
<glyph unicode="&#xa2;" horiz-adv-x="675" d="M47 188q0 41 21 131l98 424q25 115 61 179q66 117 215 116h4l21 84h61l-20 -88q156 -27 156 -178q0 -53 -15 -119l-16 -71h-92l18 79q10 51 10 86q0 125 -131 125q-53 0 -94 -30q-49 -35 -78 -160l-102 -436q-18 -84 -19 -119q0 -127 136 -127q94 0 133 70q8 10 24 49 q2 6 6.5 20.5t6.5 20.5v6q2 4 5 15t5 22l24 108h93l-29 -125q-37 -158 -96 -211q-68 -61 -181 -63l-34 -139h-62l33 145q-162 36 -162 186z" />
<glyph unicode="&#xa3;" horiz-adv-x="825" d="M-57 0l24 102q141 23 221 70q96 55 153.5 147.5t57.5 192.5q0 63 -32 141h-238l18 76h187q-31 94 -31 182q0 104 43 242.5t98 208.5q80 98 234 98q109 0 169 -51t60 -141q0 -23 -20 -123l-33 -150h-100l39 162q14 59 14 105q0 55 -36 85.5t-101 30.5q-121 0 -176 -114 q-86 -176 -86 -351q0 -80 41 -184h266l-19 -76h-215q18 -63 19 -125q0 -106 -54 -209q-41 -74 -99 -125t-161 -98q12 -2 27 -2q4 0 51 -8q86 -14 201 -14q129 0 252 45l-25 -99q-96 -33 -239 -32q-53 0 -136 8l-149 16q-29 4 -74 4q-63 0 -151 -14z" />
<glyph unicode="&#xa4;" horiz-adv-x="1267" d="M96 240l154 135q-6 8 -11.5 16t-9.5 17l-6 12q-57 106 -57 231q0 113 45 226q35 90 117 180l-125 157l78 62l120 -150q29 23 41 29q115 70 275 70q207 0 332 -125l149 131l62 -78l-150 -133q80 -119 80 -260q0 -242 -160 -420l123 -154l-76 -65l-121 151 q-150 -100 -323 -100q-186 0 -320 125l-153 -137zM266 655q0 -174 103.5 -285.5t261.5 -111.5q197 0 330 141.5t133 350.5q0 174 -106.5 281.5t-276.5 107.5q-193 0 -319 -137.5t-126 -346.5z" />
<glyph unicode="&#xa5;" horiz-adv-x="827" d="M135 573l19 76h239l-10 92h-209l19 78h182l-74 627h102l66 -672l389 672h107l-373 -627h184l-18 -78h-209l-55 -92h241l-16 -76h-244l-133 -573h-100l135 573h-242z" />
<glyph unicode="&#xa6;" d="M-53 -512l203 885h88l-205 -885h-86zM213 647l203 885h88l-203 -885h-88z" />
<glyph unicode="&#xa7;" horiz-adv-x="768" d="M-8 12q0 45 16 113l21 90h92l-19 -80q-16 -70 -16 -119q0 -59 46 -93t130 -34q143 0 193 99q51 98 51 202q0 61 -35 105q-8 12 -31 31q-51 39 -106 75q-39 27 -74 52q-57 41 -84 84q-31 51 -31 114q0 145 170 258l7 4q-63 76 -64 158q0 152 90 277q82 117 250 116 q246 0 246 -184q0 -29 -17 -104l-22 -107h-90l24 115q8 45 9 63q0 133 -158 133q-129 0 -187 -106q-47 -94 -47 -191q0 -57 28 -98t105 -94q12 -10 43 -30.5t43 -31.5q47 -33 72 -63q57 -66 58 -150q0 -145 -142 -286q39 -61 39 -131q0 -55 -22.5 -132t-51.5 -126 q-82 -135 -266 -136q-125 0 -197.5 55.5t-72.5 151.5zM240 668q0 -88 92 -152l121 -84l28 -22q4 -4 8.5 -7.5t6.5 -5.5t4 -3t4 -3t7 -6t9 -8q39 47 51 67q41 70 41 156q0 66 -34 107q-31 41 -154 120q-23 16 -59 45l-11 -8q-114 -90 -114 -196z" />
<glyph unicode="&#xa8;" d="M66 1198l36 158h99l-37 -158h-98zM268 1198l37 158h98l-36 -158h-99z" />
<glyph unicode="&#xa9;" horiz-adv-x="1636" d="M162 727q0 303 212 514t517 211t517 -210t212 -513v-10q0 -305 -213 -515t-518 -210t-516 213t-211 520zM227 721q0 -274 194.5 -468t469 -194t469 193.5t194.5 466.5q0 281 -191.5 474t-470 193t-472 -193t-193.5 -472zM606 440q0 59 29 181l65 270q6 31 19 74 q23 84 45 122q63 106 203 107q86 0 134 -48t48 -132q0 -47 -10 -94l-15 -72h-92l19 84q8 41 8 84q0 94 -103 94q-68 0 -102 -49q-10 -16 -20 -39q-16 -51 -29 -104l-72 -318q-25 -104 -24 -154q0 -104 110 -104q66 0 96.5 53.5t63.5 212.5h94q-14 -57 -18 -82 q-37 -152 -88 -209q-53 -61 -150 -61q-98 0 -154.5 49t-56.5 135z" />
<glyph unicode="&#xaa;" horiz-adv-x="563" d="M152 891q0 88 49 149q47 59 178 107q61 23 67 27l13 6l20 8q29 14 64 35l14 57q10 43 10 68q0 72 -88 71q-57 0 -88 -39t-47 -131h-76l4 15q37 133 58 159q8 12 22 23q51 39 133 39q162 0 162 -119q0 -31 -16 -100l-99 -422q-2 -10 -2 -25q0 -25 37 -24h15l-17 -66h-14 q-76 0 -90 57q-66 -59 -150 -59q-74 0 -116.5 44t-42.5 120zM231 897q0 -104 95 -104q74 0 135 67l65 287q-10 -6 -43 -23q-31 -16 -61 -28l-51 -21q-82 -33 -111 -69.5t-29 -108.5z" />
<glyph unicode="&#xab;" horiz-adv-x="768" d="M78 600l297 205h131l-299 -213l188 -197h-121zM356 600l297 205h131l-299 -213l189 -197h-121z" />
<glyph unicode="&#xac;" horiz-adv-x="1144" d="M168 561l22 84h838l-104 -463h-93l84 379h-747z" />
<glyph unicode="&#xad;" horiz-adv-x="507" d="M92 555l21 86h362l-20 -86h-363z" />
<glyph unicode="&#xae;" horiz-adv-x="1636" d="M162 727q0 303 212 514t517 211t517 -210t212 -513v-10q0 -305 -213 -515t-518 -210t-516 213t-211 520zM227 721q0 -274 194.5 -468t469 -194t469 193.5t194.5 466.5q0 281 -191.5 474t-470 193t-472 -193t-193.5 -472zM586 268l209 920h112q43 0 92 -4q68 -6 111 -43 q61 -51 61 -174q0 -115 -56 -190t-154 -89l110 -420h-108l-101 410h-80l-92 -410h-104zM803 768h47q111 0 154 29q66 45 65 184q0 57 -25 82q-29 31 -124 31h-46z" />
<glyph unicode="&#xaf;" d="M16 1208l19 86h418l-21 -86h-416z" />
<glyph unicode="&#xb0;" horiz-adv-x="724" d="M240 1233q0 121 84 206t202 85q125 0 210 -85t85 -208q0 -121 -85 -205t-205.5 -84t-205.5 85t-85 206zM332 1231q0 -82 58.5 -140.5t141.5 -58.5q82 0 140.5 59.5t58.5 141.5t-58.5 140.5t-140.5 58.5q-84 0 -142 -58.5t-58 -142.5z" />
<glyph unicode="&#xb1;" horiz-adv-x="1144" d="M68 0l18 86h801l-21 -86h-798zM195 563l20 84h356l84 377h88l-84 -377h357l-23 -84h-354l-86 -375h-86l84 375h-356z" />
<glyph unicode="&#xb2;" horiz-adv-x="493" d="M37 541l18 67q14 25 43 58q37 45 144 143q49 47 102 100q94 90 143 187q53 102 54 192q0 43 -24.5 67.5t-67.5 24.5q-55 0 -89 -43q-8 -14 -18 -37q-6 -12 -14 -40q0 -2 -2 -10.5t-6.5 -22t-8.5 -27.5l-12 -43h-80l25 86q35 119 73 158q55 51 138 51q78 0 123 -43 t45 -117q0 -111 -66 -229q-39 -72 -106 -148q-78 -86 -148 -153l-51 -47q-66 -59 -94 -103h303l-19 -71h-405z" />
<glyph unicode="&#xb3;" horiz-adv-x="493" d="M90 686q0 23 10 74q6 23 13 57h77q-23 -104 -22 -129q0 -82 98 -82q78 0 113 72q51 102 51 199q0 57 -38 83.5t-122 28.5l21 72h6q100 0 158.5 62.5t58.5 168.5q0 84 -80 84q-43 0 -67.5 -26.5t-40.5 -89.5l-21 -78h-76l25 98q41 168 184 168q72 0 113 -38t41 -105 q0 -102 -51 -187q-49 -78 -154 -90q123 -23 123 -141q0 -106 -59 -236q-55 -119 -187 -119q-82 0 -128 41t-46 113z" />
<glyph unicode="&#xb4;" d="M41 1161l192 223h195l-311 -223h-76z" />
<glyph unicode="&#xb5;" horiz-adv-x="702" d="M-98 -440l338 1460h88l-164 -713q-20 -92 -21 -129q0 -51 34 -81.5t89 -30.5q66 0 116 55t73 153l172 746h88l-191 -827q-12 -51 -12 -78q0 -37 43 -37h16l-18 -82h-21q-106 0 -106 106v2q-82 -119 -184 -118q-98 0 -138 86l-114 -512h-88z" />
<glyph unicode="&#xb6;" horiz-adv-x="1300" d="M303 -342l229 995q-178 109 -178 334q0 168 95 293q74 96 206 139q86 27 230 27h375l-21 -88h-70l-393 -1700h-94l393 1700h-287l-391 -1700h-94z" />
<glyph unicode="&#xb7;" horiz-adv-x="299" d="M102 508l43 184h91l-43 -184h-91z" />
<glyph unicode="&#xb8;" d="M68 -233l49 38q63 -53 114 -53q35 0 55.5 18.5t20.5 49.5q0 29 -19.5 47t-72.5 41l39 121h72l-25 -78q100 -49 100 -131q0 -61 -42 -101.5t-107 -40.5q-82 1 -184 89z" />
<glyph unicode="&#xb9;" horiz-adv-x="493" d="M236 543l178 776q-57 -55 -164 -68l18 72q125 20 183 123h73l-209 -903h-79z" />
<glyph unicode="&#xba;" horiz-adv-x="563" d="M150 862q0 31 16 96l74 318q27 113 71 156q55 55 154 55q82 0 131 -38t49 -99q0 -33 -14 -99l-76 -317q-27 -115 -70 -158q-57 -53 -151 -53q-84 0 -134 38t-50 101zM236 881q0 -88 110 -88q53 0 86 32q27 27 51 136l66 286q10 51 10 82q0 41 -28.5 63.5t-79.5 22.5 q-55 0 -86 -31q-27 -31 -52 -135l-65 -288q-12 -62 -12 -80z" />
<glyph unicode="&#xbb;" horiz-adv-x="768" d="M25 395l299 211l-189 197h121l197 -205l-297 -203h-131zM303 395l299 211l-188 197h121l196 -205l-297 -203h-131z" />
<glyph unicode="&#xbc;" horiz-adv-x="1193" d="M25 -115l1163 1727l49 -33l-1163 -1722zM225 543l178 776q-57 -55 -163 -68l18 72q125 20 182 123h74l-209 -903h-80zM633 272l18 76l365 553h119l-129 -557h106l-16 -72h-109l-61 -272h-78l61 272h-276zM727 344h203l117 490z" />
<glyph unicode="&#xbd;" horiz-adv-x="1193" d="M2 -115l1163 1727l49 -33l-1161 -1722zM205 543l178 776q-57 -55 -164 -68l19 72q127 20 180 123h76l-209 -903h-80zM578 0l18 68q14 23 43 57q88 88 143 141q18 18 43 42t39.5 37t22.5 22q94 94 141 188q55 104 55 190q0 45 -24.5 70t-67.5 25q-57 0 -88 -43 q-10 -12 -20 -37q-2 -6 -7.5 -20.5t-7.5 -22.5q0 -2 -2 -9l-6 -22l-8 -29l-12 -41h-78l22 86q31 111 76 156q53 53 137 53q76 0 121 -44t45 -117q0 -106 -65 -228q-37 -72 -105 -149q-35 -39 -147 -152l-51 -49q-78 -78 -95 -100h301l-18 -72h-405z" />
<glyph unicode="&#xbe;" horiz-adv-x="1193" d="M45 -115l1163 1727l49 -33l-1161 -1722zM80 686q0 12 12 74q6 23 12 57h78q-23 -104 -22 -129q0 -82 98 -82q78 0 113 72q51 102 51 199q0 57 -38 83.5t-122 28.5l19 72h8q98 0 157.5 62.5t59.5 168.5q0 84 -80 84q-45 0 -68.5 -25.5t-40.5 -90.5l-20 -78h-76l25 98 q41 168 184 168q72 0 113 -38t41 -105q0 -102 -52 -187q-49 -78 -155 -90q123 -23 123 -141q0 -111 -58 -236q-55 -119 -188 -119q-82 0 -128 41t-46 113zM647 272l19 76l364 553h117l-127 -557h106l-16 -72h-109l-61 -272h-78l62 272h-277zM741 344h201l117 490z" />
<glyph unicode="&#xbf;" horiz-adv-x="710" d="M27 180q0 133 61 309q29 76 82 146q51 61 94 104l33 33q4 4 23.5 26.5t27.5 30.5q31 39 47 107l37 151h98l-41 -169q-16 -61 -36.5 -99.5t-71.5 -91.5q-8 -8 -94 -102q-43 -47 -47 -54q-35 -45 -56 -88q-14 -29 -30 -98q-31 -129 -31 -199q0 -129 131 -129q82 0 127 70 q63 100 98 305l4 25h97q-45 -266 -119 -375t-211 -109q-102 0 -162.5 55.5t-60.5 151.5zM473 1260l45 184h98l-45 -184h-98z" />
<glyph unicode="&#xc0;" horiz-adv-x="768" d="M-66 0l607 1454h139l-80 -1454h-98l26 440h-307l-180 -440h-107zM260 535h272l58 808zM379 1804h194l136 -223h-68z" />
<glyph unicode="&#xc1;" horiz-adv-x="768" d="M-66 0l607 1454h139l-80 -1454h-98l26 440h-307l-180 -440h-107zM260 535h272l58 808zM526 1575l205 223h193l-322 -223h-76z" />
<glyph unicode="&#xc2;" horiz-adv-x="768" d="M-66 0l607 1454h139l-80 -1454h-98l26 440h-307l-180 -440h-107zM260 535h272l58 808zM408 1575l217 223h102l92 -221h-78l-77 139l-170 -141h-86z" />
<glyph unicode="&#xc3;" horiz-adv-x="768" d="M-66 0l607 1454h139l-80 -1454h-98l26 440h-307l-180 -440h-107zM260 535h272l58 808zM391 1636q49 57 84 80t76 23q39 0 100 -33q51 -29 82 -29q41 0 94 62l27 -29q-70 -119 -162 -119q-29 0 -88 29q-74 37 -98 37q-29 0 -70 -35l-18 -16z" />
<glyph unicode="&#xc4;" horiz-adv-x="768" d="M-66 0l607 1454h139l-80 -1454h-98l26 440h-307l-180 -440h-107zM260 535h272l58 808zM432 1616l37 156h106l-36 -156h-107zM719 1616l37 156h106l-37 -156h-106z" />
<glyph unicode="&#xc5;" horiz-adv-x="768" d="M-66 0l607 1454h139l-80 -1454h-98l26 440h-307l-180 -440h-107zM260 535h272l58 808zM502 1667q0 55 39 95t96 40q55 0 95 -40t40 -95t-40 -95t-93 -40q-59 0 -98 39t-39 96zM547 1667q0 -39 25.5 -64.5t64.5 -25.5q37 0 63.5 25.5t26.5 64.5q0 37 -26.5 63.5 t-63.5 26.5t-63.5 -26.5t-26.5 -63.5z" />
<glyph unicode="&#xc6;" horiz-adv-x="1060" d="M-76 0l709 1446h553l-21 -90h-350l-127 -557h328l-21 -88h-327l-144 -621h426l-20 -90h-524l145 627h-221l-299 -627h-107zM371 711h198l152 647h-37z" />
<glyph unicode="&#xc7;" horiz-adv-x="763" d="M57 223q0 68 35 213l166 709q39 168 102 235q78 80 211 80q127 0 197 -54t70 -155q0 -59 -23 -161l-29 -119h-98l27 119q23 102 22 145q0 63 -44 99t-122 36q-86 0 -134 -48t-75 -159l-167 -717l-17 -69q-18 -78 -18 -133q0 -80 46 -124t128 -44t127 39q33 27 52 71.5 t42 149.5l29 133h98l-27 -121q-35 -160 -65 -221q-35 -66 -102.5 -103.5t-155.5 -37.5q-127 0 -201 64t-74 173zM66 -238l49 39q63 -53 114 -53q33 0 54.5 19.5t21.5 48t-19.5 47t-72.5 41.5l39 121h72l-25 -78q111 -53 111 -135q0 -59 -42 -98.5t-108 -39.5q-92 0 -194 88z " />
<glyph unicode="&#xc8;" horiz-adv-x="675" d="M-2 0l334 1446h497l-20 -90h-399l-129 -557h333l-20 -88h-334l-143 -621h411l-20 -90h-510zM332 1804h192l135 -223h-67z" />
<glyph unicode="&#xc9;" horiz-adv-x="675" d="M-2 0l334 1446h497l-20 -90h-399l-129 -557h333l-20 -88h-334l-143 -621h411l-20 -90h-510zM514 1575l205 223h192l-321 -223h-76z" />
<glyph unicode="&#xca;" horiz-adv-x="675" d="M-2 0l334 1446h497l-20 -90h-399l-129 -557h333l-20 -88h-334l-143 -621h411l-20 -90h-510zM383 1575l219 223h103l92 -221h-78l-78 139l-172 -141h-86z" />
<glyph unicode="&#xcb;" horiz-adv-x="675" d="M-2 0l334 1446h497l-20 -90h-399l-129 -557h333l-20 -88h-334l-143 -621h411l-20 -90h-510zM408 1616l34 156h107l-35 -156h-106zM694 1616l37 156h107l-37 -156h-107z" />
<glyph unicode="&#xcc;" horiz-adv-x="335" d="M2 0l334 1446h98l-334 -1446h-98zM172 1804h193l135 -223h-68z" />
<glyph unicode="&#xcd;" horiz-adv-x="335" d="M2 0l334 1446h98l-334 -1446h-98zM315 1575l203 223h193l-320 -223h-76z" />
<glyph unicode="&#xce;" horiz-adv-x="335" d="M2 0l334 1446h98l-334 -1446h-98zM182 1575l217 223h103l92 -221h-76l-80 139l-170 -141h-86z" />
<glyph unicode="&#xcf;" horiz-adv-x="335" d="M2 0l334 1446h98l-334 -1446h-98zM219 1616l37 156h106l-36 -156h-107zM508 1616l35 156h106l-35 -156h-106z" />
<glyph unicode="&#xd0;" horiz-adv-x="800" d="M2 0l174 756h-108l18 86h111l139 604h119q109 0 178 -21q86 -25 134 -97.5t48 -178.5q0 -123 -41 -295l-67 -291q-57 -256 -103 -348q-55 -119 -148.5 -167t-262.5 -48h-191zM119 90h86q109 0 173 23.5t103 81.5q33 49 60 120q27 70 71 265l64 276q41 174 41 274 q0 117 -63.5 170.5t-200.5 53.5h-43l-119 -512h237l-18 -86h-238z" />
<glyph unicode="&#xd1;" horiz-adv-x="800" d="M-2 0l334 1446h147l29 -1383l303 1383h98l-334 -1446h-153l-27 1341l-301 -1341h-96zM438 1636q51 59 85 81t75 22q43 0 100 -33q53 -29 82 -29q41 0 97 62l24 -29q-70 -119 -162 -119q-29 0 -86 29q-76 37 -100 37q-35 0 -70 -35l-16 -16z" />
<glyph unicode="&#xd2;" horiz-adv-x="811" d="M55 215q0 66 21 154l180 770q39 170 104 235q84 90 232 90q121 0 192.5 -63.5t71.5 -169.5q0 -66 -20 -154l-181 -770q-39 -168 -104 -235q-88 -90 -232 -90q-121 0 -192.5 63.5t-71.5 169.5zM156 233q0 -78 47 -120.5t131 -42.5t139 55q27 27 41 53q18 35 47 152 l166 700q29 125 29 182q0 78 -46 121t-132 43q-84 0 -140 -55q-27 -27 -41 -55q-18 -35 -47 -152l-166 -698q-28 -126 -28 -183zM387 1804h195l135 -223h-68z" />
<glyph unicode="&#xd3;" horiz-adv-x="811" d="M55 215q0 66 21 154l180 770q39 170 104 235q84 90 232 90q121 0 192.5 -63.5t71.5 -169.5q0 -66 -20 -154l-181 -770q-39 -168 -104 -235q-88 -90 -232 -90q-121 0 -192.5 63.5t-71.5 169.5zM156 233q0 -78 47 -120.5t131 -42.5t139 55q27 27 41 53q18 35 47 152 l166 700q29 125 29 182q0 78 -46 121t-132 43q-84 0 -140 -55q-27 -27 -41 -55q-18 -35 -47 -152l-166 -698q-28 -126 -28 -183zM530 1575l205 223h193l-322 -223h-76z" />
<glyph unicode="&#xd4;" horiz-adv-x="811" d="M55 215q0 66 21 154l180 770q39 170 104 235q84 90 232 90q121 0 192.5 -63.5t71.5 -169.5q0 -66 -20 -154l-181 -770q-39 -168 -104 -235q-88 -90 -232 -90q-121 0 -192.5 63.5t-71.5 169.5zM156 233q0 -78 47 -120.5t131 -42.5t139 55q27 27 41 53q18 35 47 152 l166 700q29 125 29 182q0 78 -46 121t-132 43q-84 0 -140 -55q-27 -27 -41 -55q-18 -35 -47 -152l-166 -698q-28 -126 -28 -183zM416 1575l219 223h102l90 -221h-75l-78 139l-172 -141h-86z" />
<glyph unicode="&#xd5;" horiz-adv-x="811" d="M55 215q0 66 21 154l180 770q39 170 104 235q84 90 232 90q121 0 192.5 -63.5t71.5 -169.5q0 -66 -20 -154l-181 -770q-39 -168 -104 -235q-88 -90 -232 -90q-121 0 -192.5 63.5t-71.5 169.5zM156 233q0 -78 47 -120.5t131 -42.5t139 55q27 27 41 53q18 35 47 152 l166 700q29 125 29 182q0 78 -46 121t-132 43q-84 0 -140 -55q-27 -27 -41 -55q-18 -35 -47 -152l-166 -698q-28 -126 -28 -183zM416 1636q49 57 84 80t75 23q39 0 101 -33q51 -29 82 -29q41 0 94 62l27 -29q-70 -119 -162 -119q-29 0 -88 29q-74 37 -99 37q-29 0 -69 -35 l-19 -16z" />
<glyph unicode="&#xd6;" horiz-adv-x="811" d="M55 215q0 66 21 154l180 770q39 170 104 235q84 90 232 90q121 0 192.5 -63.5t71.5 -169.5q0 -66 -20 -154l-181 -770q-39 -168 -104 -235q-88 -90 -232 -90q-121 0 -192.5 63.5t-71.5 169.5zM156 233q0 -78 47 -120.5t131 -42.5t139 55q27 27 41 53q18 35 47 152 l166 700q29 125 29 182q0 78 -46 121t-132 43q-84 0 -140 -55q-27 -27 -41 -55q-18 -35 -47 -152l-166 -698q-28 -126 -28 -183zM440 1618l35 156h107l-35 -156h-107zM727 1618l35 156h106l-34 -156h-107z" />
<glyph unicode="&#xd7;" horiz-adv-x="1142" d="M231 326l314 284l-168 295l72 53l163 -284l303 274l54 -67l-314 -285l179 -311l-74 -52l-172 302l-303 -279z" />
<glyph unicode="&#xd8;" horiz-adv-x="811" d="M-57 55l110 158q2 68 23 156l180 770q39 170 104 235q84 90 232 90q193 0 248 -143l71 98l50 -37l-105 -145v-16q0 -51 -20 -144l-181 -770q-39 -168 -104 -235q-88 -90 -232 -90q-197 0 -251 151l-76 -110zM156 231q0 -76 47 -118.5t131 -42.5t139 55q27 27 41 53 q23 43 47 152l178 739l-583 -813v-25zM176 385l580 817q0 84 -41 125q-47 49 -137 49q-84 0 -140 -55q-27 -27 -41 -55q-20 -39 -47 -152z" />
<glyph unicode="&#xd9;" horiz-adv-x="798" d="M49 186q0 55 23 156l256 1104h98l-258 -1120q-18 -76 -18 -127q0 -61 45 -95t127 -34q76 0 118 30q35 25 57.5 74t47.5 156l258 1116h98l-264 -1141q-33 -141 -72 -203q-70 -123 -252 -122q-125 0 -194.5 54t-69.5 152zM379 1804h194l136 -223h-68z" />
<glyph unicode="&#xda;" horiz-adv-x="798" d="M49 186q0 55 23 156l256 1104h98l-258 -1120q-18 -76 -18 -127q0 -61 45 -95t127 -34q76 0 118 30q35 25 57.5 74t47.5 156l258 1116h98l-264 -1141q-33 -141 -72 -203q-70 -123 -252 -122q-125 0 -194.5 54t-69.5 152zM545 1575l205 223h192l-321 -223h-76z" />
<glyph unicode="&#xdb;" horiz-adv-x="798" d="M49 186q0 55 23 156l256 1104h98l-258 -1120q-18 -76 -18 -127q0 -61 45 -95t127 -34q76 0 118 30q35 25 57.5 74t47.5 156l258 1116h98l-264 -1141q-33 -141 -72 -203q-70 -123 -252 -122q-125 0 -194.5 54t-69.5 152zM414 1575l217 223h102l92 -221h-75l-80 139 l-170 -141h-86z" />
<glyph unicode="&#xdc;" horiz-adv-x="798" d="M49 186q0 55 23 156l256 1104h98l-258 -1120q-18 -76 -18 -127q0 -61 45 -95t127 -34q76 0 118 30q35 25 57.5 74t47.5 156l258 1116h98l-264 -1141q-33 -141 -72 -203q-70 -123 -252 -122q-125 0 -194.5 54t-69.5 152zM438 1616l35 156h107l-37 -156h-105zM725 1616 l35 156h106l-35 -156h-106z" />
<glyph unicode="&#xdd;" horiz-adv-x="716" d="M190 0l148 639l-98 807h104l74 -680l389 680h111l-482 -807l-147 -639h-99zM494 1575l204 223h193l-322 -223h-75z" />
<glyph unicode="&#xde;" horiz-adv-x="759" d="M-2 0l334 1446h100l-70 -307h91q51 0 112 -4q92 -10 143.5 -63.5t51.5 -160.5q0 -55 -10 -96l-39 -164q-39 -160 -97 -217q-39 -41 -98 -61q-68 -20 -131 -21q-6 0 -33.5 -1t-50.5 -1h-121l-82 -350h-100zM197 434h139q139 0 194 45q29 25 39 45q27 49 43 127l35 150 q10 47 10 98q0 90 -41 122t-157 32h-119z" />
<glyph unicode="&#xdf;" horiz-adv-x="724" d="M-8 0l272 1182q41 180 121 237q59 45 170 45q100 0 154.5 -44t54.5 -122q0 -37 -10 -84l-25 -104q-23 -102 -63 -145q-47 -53 -136 -78q129 -39 129 -178q0 -55 -20 -144l-82 -350q-8 -41 -16 -65q-12 -47 -33 -87q-41 -80 -154 -79q-66 0 -102.5 29.5t-36.5 82.5 q0 33 12 84l25 107h59l-26 -117q-6 -27 -6 -41q0 -68 77 -68q43 0 66.5 29t40.5 98l88 377q18 74 18 125q0 59 -28 96q-33 41 -123 52l-19 2l21 88q86 2 137 39q37 27 54.5 56.5t31.5 94.5l21 92q8 41 8 62q0 109 -137 108q-78 0 -118 -46t-69 -171l-268 -1163h-88z" />
<glyph unicode="&#xe0;" horiz-adv-x="636" d="M-4 201q0 133 70 221q29 35 51 53q55 43 174 92q20 8 40.5 17.5t30 13.5t11.5 4l41 21q49 25 80 47l20 84q18 74 18 112q0 88 -118 88q-76 0 -113 -50t-63 -191h-88l6 22q6 23 13 61t11 50q25 90 78 139q57 51 176 51q86 0 137.5 -41t51.5 -110q0 -47 -25 -150l-137 -585 q-4 -33 -4 -35q0 -33 47 -33h14l-18 -82h-21q-84 0 -98 78q-80 -80 -191 -80q-90 0 -142 54.5t-52 148.5zM84 215q0 -135 117 -135q102 0 182 98l90 393q-33 -23 -131 -69l-61 -29q-119 -53 -158 -119q-39 -67 -39 -139zM199 1389h194l148 -224h-68z" />
<glyph unicode="&#xe1;" horiz-adv-x="636" d="M-4 201q0 133 70 221q29 35 51 53q55 43 174 92q20 8 40.5 17.5t30 13.5t11.5 4l41 21q49 25 80 47l20 84q18 74 18 112q0 88 -118 88q-76 0 -113 -50t-63 -191h-88l6 22q6 23 13 61t11 50q25 90 78 139q57 51 176 51q86 0 137.5 -41t51.5 -110q0 -47 -25 -150l-137 -585 q-4 -33 -4 -35q0 -33 47 -33h14l-18 -82h-21q-84 0 -98 78q-80 -80 -191 -80q-90 0 -142 54.5t-52 148.5zM84 215q0 -135 117 -135q102 0 182 98l90 393q-33 -23 -131 -69l-61 -29q-119 -53 -158 -119q-39 -67 -39 -139zM377 1161l192 223h193l-311 -223h-74z" />
<glyph unicode="&#xe2;" horiz-adv-x="636" d="M-4 201q0 133 70 221q29 35 51 53q55 43 174 92q20 8 40.5 17.5t30 13.5t11.5 4l41 21q49 25 80 47l20 84q18 74 18 112q0 88 -118 88q-76 0 -113 -50t-63 -191h-88l6 22q6 23 13 61t11 50q25 90 78 139q57 51 176 51q86 0 137.5 -41t51.5 -110q0 -47 -25 -150l-137 -585 q-4 -33 -4 -35q0 -33 47 -33h14l-18 -82h-21q-84 0 -98 78q-80 -80 -191 -80q-90 0 -142 54.5t-52 148.5zM84 215q0 -135 117 -135q102 0 182 98l90 393q-33 -23 -131 -69l-61 -29q-119 -53 -158 -119q-39 -67 -39 -139zM244 1163l202 223h105l98 -223h-80l-82 146 l-161 -146h-82z" />
<glyph unicode="&#xe3;" horiz-adv-x="636" d="M-4 201q0 133 70 221q29 35 51 53q55 43 174 92q20 8 40.5 17.5t30 13.5t11.5 4l41 21q49 25 80 47l20 84q18 74 18 112q0 88 -118 88q-76 0 -113 -50t-63 -191h-88l6 22q6 23 13 61t11 50q25 90 78 139q57 51 176 51q86 0 137.5 -41t51.5 -110q0 -47 -25 -150l-137 -585 q-4 -33 -4 -35q0 -33 47 -33h14l-18 -82h-21q-84 0 -98 78q-80 -80 -191 -80q-90 0 -142 54.5t-52 148.5zM84 215q0 -135 117 -135q102 0 182 98l90 393q-33 -23 -131 -69l-61 -29q-119 -53 -158 -119q-39 -67 -39 -139zM248 1221q76 104 153 104q39 0 84 -27q14 -6 19 -10 l22 -10q25 -12 43 -12q47 0 95 61l26 -29q-76 -119 -155 -118q-31 0 -89 30q-59 31 -90 31q-39 0 -84 -47z" />
<glyph unicode="&#xe4;" horiz-adv-x="636" d="M-4 201q0 133 70 221q29 35 51 53q55 43 174 92q20 8 40.5 17.5t30 13.5t11.5 4l41 21q49 25 80 47l20 84q18 74 18 112q0 88 -118 88q-76 0 -113 -50t-63 -191h-88l6 22q6 23 13 61t11 50q25 90 78 139q57 51 176 51q86 0 137.5 -41t51.5 -110q0 -47 -25 -150l-137 -585 q-4 -33 -4 -35q0 -33 47 -33h14l-18 -82h-21q-84 0 -98 78q-80 -80 -191 -80q-90 0 -142 54.5t-52 148.5zM84 215q0 -135 117 -135q102 0 182 98l90 393q-33 -23 -131 -69l-61 -29q-119 -53 -158 -119q-39 -67 -39 -139zM303 1198l37 158h98l-37 -158h-98zM506 1198l37 158 h98l-37 -158h-98z" />
<glyph unicode="&#xe5;" horiz-adv-x="636" d="M-4 201q0 133 70 221q29 35 51 53q55 43 174 92q20 8 40.5 17.5t30 13.5t11.5 4l41 21q49 25 80 47l20 84q18 74 18 112q0 88 -118 88q-76 0 -113 -50t-63 -191h-88l6 22q6 23 13 61t11 50q25 90 78 139q57 51 176 51q86 0 137.5 -41t51.5 -110q0 -47 -25 -150l-137 -585 q-4 -33 -4 -35q0 -33 47 -33h14l-18 -82h-21q-84 0 -98 78q-80 -80 -191 -80q-90 0 -142 54.5t-52 148.5zM84 215q0 -135 117 -135q102 0 182 98l90 393q-33 -23 -131 -69l-61 -29q-119 -53 -158 -119q-39 -67 -39 -139zM328 1264q0 55 39 95t96 40q55 0 95 -41t40 -96.5 t-40 -95.5t-93 -40q-57 0 -97 40.5t-40 97.5zM373 1262q0 -39 25.5 -65t64.5 -26q37 0 63.5 27t26.5 63.5t-26.5 64.5t-63.5 28t-63.5 -27.5t-26.5 -64.5z" />
<glyph unicode="&#xe6;" horiz-adv-x="1001" d="M-4 193q0 137 72 229q59 78 225 145q80 33 82 35l41 21q49 25 80 47l20 84q18 74 19 112q0 88 -119 88q-76 0 -113 -50t-63 -191h-88l6 22q6 25 13 62t11 49q25 90 78 139q57 51 176 51q106 0 162 -78q78 78 188 78q100 0 154.5 -49t54.5 -139q0 -57 -18 -137l-49 -207 h-385l-51 -232q-14 -63 -15 -88q0 -55 35 -86.5t96 -31.5q82 0 123 53q29 37 55 149l19 80h88l-23 -96q-35 -145 -86 -199q-61 -68 -178 -67q-154 0 -203 108q-96 -102 -213 -102q-90 0 -142 53.5t-52 147.5zM84 207q0 -66 30.5 -100.5t88.5 -34.5q53 0 104 30.5t84 81.5 q2 41 15 90l69 297q-33 -23 -131 -69l-61 -29q-123 -55 -158 -119q-41 -67 -41 -147zM561 578h297l39 167q12 49 12 91q0 123 -133 122q-78 0 -119 -51q-29 -37 -55 -149z" />
<glyph unicode="&#xe7;" horiz-adv-x="628" d="M0 -238l49 39q63 -53 115 -53q35 0 55.5 18.5t20.5 49.5q0 29 -19.5 47t-73.5 41l39 121h72l-25 -78q100 -49 101 -131q0 -61 -42 -101.5t-108 -40.5q-82 0 -184 88zM18 188q0 49 19 131l98 424q39 162 97.5 225.5t173.5 63.5q104 0 160.5 -47t56.5 -135q0 -59 -15 -113 l-18 -71h-86l18 79q10 51 10 86q0 125 -131 125q-55 0 -92 -30q-23 -16 -41 -45q-20 -35 -39 -115l-102 -442q-18 -84 -18 -119q0 -129 135 -129q92 0 133 69q16 33 22 52q4 14 13 39l10 45l27 114h88l-29 -125q-37 -158 -96 -211q-68 -63 -179 -63q-100 0 -157.5 51 t-57.5 141z" />
<glyph unicode="&#xe8;" horiz-adv-x="636" d="M29 172q0 45 14 102l119 514q25 109 61 160q70 88 199 88q100 0 156.5 -49t56.5 -139q0 -49 -21 -137l-47 -207h-385l-53 -232q-12 -55 -12 -88q0 -55 34.5 -86.5t96.5 -31.5q80 0 121 53q27 33 55 149l18 80h88l-22 -96q-33 -143 -86 -199q-68 -68 -178 -67 q-102 0 -158.5 48t-56.5 138zM188 1389h195l147 -224h-67zM199 578h297l39 167q12 49 12 91q0 123 -133 122q-78 0 -119 -51q-29 -37 -55 -149z" />
<glyph unicode="&#xe9;" horiz-adv-x="636" d="M29 172q0 45 14 102l119 514q25 109 61 160q70 88 199 88q100 0 156.5 -49t56.5 -139q0 -49 -21 -137l-47 -207h-385l-53 -232q-12 -55 -12 -88q0 -55 34.5 -86.5t96.5 -31.5q80 0 121 53q27 33 55 149l18 80h88l-22 -96q-33 -143 -86 -199q-68 -68 -178 -67 q-102 0 -158.5 48t-56.5 138zM199 578h297l39 167q12 49 12 91q0 123 -133 122q-78 0 -119 -51q-29 -37 -55 -149zM381 1161l192 223h193l-311 -223h-74z" />
<glyph unicode="&#xea;" horiz-adv-x="636" d="M29 172q0 45 14 102l119 514q25 109 61 160q70 88 199 88q100 0 156.5 -49t56.5 -139q0 -49 -21 -137l-47 -207h-385l-53 -232q-12 -55 -12 -88q0 -55 34.5 -86.5t96.5 -31.5q80 0 121 53q27 33 55 149l18 80h88l-22 -96q-33 -143 -86 -199q-68 -68 -178 -67 q-102 0 -158.5 48t-56.5 138zM199 578h297l39 167q12 49 12 91q0 123 -133 122q-78 0 -119 -51q-29 -37 -55 -149zM240 1163l202 223h105l98 -223h-80l-82 146l-161 -146h-82z" />
<glyph unicode="&#xeb;" horiz-adv-x="636" d="M29 172q0 45 14 102l119 514q25 109 61 160q70 88 199 88q100 0 156.5 -49t56.5 -139q0 -49 -21 -137l-47 -207h-385l-53 -232q-12 -55 -12 -88q0 -55 34.5 -86.5t96.5 -31.5q80 0 121 53q27 33 55 149l18 80h88l-22 -96q-33 -143 -86 -199q-68 -68 -178 -67 q-102 0 -158.5 48t-56.5 138zM199 578h297l39 167q12 49 12 91q0 123 -133 122q-78 0 -119 -51q-29 -37 -55 -149zM301 1198l37 158h98l-37 -158h-98zM504 1198l37 158h98l-37 -158h-98z" />
<glyph unicode="&#xec;" horiz-adv-x="292" d="M-8 0l233 1020h88l-233 -1020h-88zM39 1389h194l148 -224h-68z" />
<glyph unicode="&#xed;" horiz-adv-x="292" d="M-8 0l233 1020h88l-233 -1020h-88zM201 1163l192 223h193l-312 -223h-73z" />
<glyph unicode="&#xee;" horiz-adv-x="292" d="M-8 0l233 1020h88l-233 -1020h-88zM88 1163l203 223h104l99 -223h-80l-82 146l-162 -146h-82z" />
<glyph unicode="&#xef;" horiz-adv-x="292" d="M-8 0l233 1020h88l-233 -1020h-88zM145 1198l37 158h99l-37 -158h-99zM348 1198l37 158h98l-37 -158h-98z" />
<glyph unicode="&#xf0;" horiz-adv-x="641" d="M20 176q0 37 21 137l88 402q35 156 90 213q68 72 174 71q92 0 154 -73q-2 82 -23 151q-16 61 -61 152l-176 -76l-29 57l170 76l-6 10q-31 51 -123 144l70 37l18 -19q63 -63 117 -139l133 57l27 -59l-125 -55q94 -170 94 -365q0 -113 -39 -289l-76 -336q-14 -61 -20 -84 q-25 -86 -70 -133q-63 -70 -180 -69q-104 0 -166 51t-62 139zM113 193q0 -57 37.5 -90t105.5 -33q72 0 111 45q37 39 69 188l82 373q18 84 19 117q0 57 -40 91t-107.5 34t-106.5 -46q-35 -41 -70 -190l-84 -373q-16 -69 -16 -116z" />
<glyph unicode="&#xf1;" horiz-adv-x="681" d="M-8 0l233 1020h86l-22 -100q74 115 190 114q78 0 126 -48t48 -126q0 -63 -18 -139l-168 -721h-86l164 715q20 92 20 131q0 53 -31.5 85t-87.5 32q-68 0 -121 -58.5t-75 -156.5l-172 -748h-86zM256 1221q76 104 154 104q31 0 84 -27l41 -20q25 -12 43 -12q47 0 94 61 l26 -29q-76 -119 -155 -118q-31 0 -88 30q-59 31 -90 31q-39 0 -84 -47z" />
<glyph unicode="&#xf2;" horiz-adv-x="641" d="M20 176q0 49 21 137l96 435q35 158 90 215q68 72 185 71q100 0 161.5 -52t61.5 -138q0 -43 -21 -137l-96 -435q-16 -74 -20 -84q-25 -86 -70 -133q-63 -70 -180 -69q-104 0 -166 51t-62 139zM113 193q0 -57 37.5 -90t105.5 -33q72 0 111 45q37 39 69 188l90 408 q16 72 17 114q0 59 -38 92t-106 33q-70 0 -110 -45q-39 -45 -70 -188l-90 -408q-16 -69 -16 -116zM195 1389h194l148 -224h-68z" />
<glyph unicode="&#xf3;" horiz-adv-x="641" d="M20 176q0 49 21 137l96 435q35 158 90 215q68 72 185 71q100 0 161.5 -52t61.5 -138q0 -43 -21 -137l-96 -435q-16 -74 -20 -84q-25 -86 -70 -133q-63 -70 -180 -69q-104 0 -166 51t-62 139zM113 193q0 -57 37.5 -90t105.5 -33q72 0 111 45q37 39 69 188l90 408 q16 72 17 114q0 59 -38 92t-106 33q-70 0 -110 -45q-39 -45 -70 -188l-90 -408q-16 -69 -16 -116zM367 1161l192 223h193l-312 -223h-73z" />
<glyph unicode="&#xf4;" horiz-adv-x="641" d="M20 176q0 49 21 137l96 435q35 158 90 215q68 72 185 71q100 0 161.5 -52t61.5 -138q0 -43 -21 -137l-96 -435q-16 -74 -20 -84q-25 -86 -70 -133q-63 -70 -180 -69q-104 0 -166 51t-62 139zM113 193q0 -57 37.5 -90t105.5 -33q72 0 111 45q37 39 69 188l90 408 q16 72 17 114q0 59 -38 92t-106 33q-70 0 -110 -45q-39 -45 -70 -188l-90 -408q-16 -69 -16 -116zM236 1163l202 223h105l98 -223h-80l-82 146l-162 -146h-81z" />
<glyph unicode="&#xf5;" horiz-adv-x="641" d="M20 176q0 49 21 137l96 435q35 158 90 215q68 72 185 71q100 0 161.5 -52t61.5 -138q0 -43 -21 -137l-96 -435q-16 -74 -20 -84q-25 -86 -70 -133q-63 -70 -180 -69q-104 0 -166 51t-62 139zM113 193q0 -57 37.5 -90t105.5 -33q72 0 111 45q37 39 69 188l90 408 q16 72 17 114q0 59 -38 92t-106 33q-70 0 -110 -45q-39 -45 -70 -188l-90 -408q-16 -69 -16 -116zM233 1221q76 104 154 104q39 0 84 -27q14 -6 18 -10l23 -10q25 -12 43 -12q47 0 94 61l27 -29q-76 -119 -156 -118q-31 0 -88 30q-59 31 -90 31q-39 0 -84 -47z" />
<glyph unicode="&#xf6;" horiz-adv-x="641" d="M20 176q0 49 21 137l96 435q35 158 90 215q68 72 185 71q100 0 161.5 -52t61.5 -138q0 -43 -21 -137l-96 -435q-16 -74 -20 -84q-25 -86 -70 -133q-63 -70 -180 -69q-104 0 -166 51t-62 139zM113 193q0 -57 37.5 -90t105.5 -33q72 0 111 45q37 39 69 188l90 408 q16 72 17 114q0 59 -38 92t-106 33q-70 0 -110 -45q-39 -45 -70 -188l-90 -408q-16 -69 -16 -116zM309 1198l37 158h98l-36 -158h-99zM512 1198l37 158h98l-37 -158h-98z" />
<glyph unicode="&#xf7;" horiz-adv-x="1144" d="M203 563l20 86h799l-21 -86h-798zM492 285l32 151h101l-35 -151h-98zM602 774l35 152h100l-35 -152h-100z" />
<glyph unicode="&#xf8;" horiz-adv-x="641" d="M-41 37l66 90q-4 20 -5 49q0 49 21 137l96 435q35 154 90 215q68 72 185 71q145 0 202 -100l62 80l33 -27l-78 -102q4 -16 4 -37q0 -51 -21 -141l-96 -435q-16 -74 -20 -84q-25 -86 -70 -133q-63 -70 -180 -69q-147 0 -205 96l-53 -70zM113 176q4 -47 43 -76.5t100 -29.5 q72 0 111 45q37 39 69 188l90 408l2 2q0 4 1 10t1 10l5 17zM119 258l424 578q-4 53 -42 83.5t-102 30.5q-70 0 -110 -45q-39 -45 -70 -188l-90 -408z" />
<glyph unicode="&#xf9;" horiz-adv-x="681" d="M37 160q0 57 20 141l166 719h88l-166 -715q-20 -90 -20 -131q0 -51 32.5 -83t86.5 -32q68 0 121 58.5t75 156.5l172 746h88l-233 -1020h-88l22 102q-74 -117 -190 -116q-78 0 -126 48t-48 126zM219 1389h195l147 -224h-67z" />
<glyph unicode="&#xfa;" horiz-adv-x="681" d="M37 160q0 57 20 141l166 719h88l-166 -715q-20 -90 -20 -131q0 -51 32.5 -83t86.5 -32q68 0 121 58.5t75 156.5l172 746h88l-233 -1020h-88l22 102q-74 -117 -190 -116q-78 0 -126 48t-48 126zM391 1161l193 223h192l-311 -223h-74z" />
<glyph unicode="&#xfb;" horiz-adv-x="681" d="M37 160q0 57 20 141l166 719h88l-166 -715q-20 -90 -20 -131q0 -51 32.5 -83t86.5 -32q68 0 121 58.5t75 156.5l172 746h88l-233 -1020h-88l22 102q-74 -117 -190 -116q-78 0 -126 48t-48 126zM272 1163l203 223h105l98 -223h-80l-82 146l-162 -146h-82z" />
<glyph unicode="&#xfc;" horiz-adv-x="681" d="M37 160q0 57 20 141l166 719h88l-166 -715q-20 -90 -20 -131q0 -51 32.5 -83t86.5 -32q68 0 121 58.5t75 156.5l172 746h88l-233 -1020h-88l22 102q-74 -117 -190 -116q-78 0 -126 48t-48 126zM332 1198l37 158h98l-37 -158h-98zM535 1198l36 158h99l-37 -158h-98z" />
<glyph unicode="&#xfd;" horiz-adv-x="589" d="M-178 -322l18 78q51 -10 86 -10q51 0 89 39t83 135l39 86l19 1014h86l-25 -848l389 848h92l-538 -1139q-66 -139 -119 -176t-123 -37q-33 0 -96 10zM373 1161l190 223h193l-310 -223h-73z" />
<glyph unicode="&#xfe;" horiz-adv-x="675" d="M-86 -334l410 1780h88l-113 -481q66 66 166 65q86 0 137 -48t51 -128q0 -35 -18 -119l-103 -448q-14 -59 -38 -131q-31 -84 -103 -129q-59 -37 -125 -37q-61 0 -99 21.5t-71 74.5l-96 -420h-86zM133 213q0 -63 37 -102t96 -39q61 0 105 39q20 20 37 53q16 31 36 123 l109 465q12 55 12 86q0 55 -34.5 85.5t-96.5 30.5q-63 0 -111.5 -42t-62.5 -111l-117 -512q-10 -37 -10 -76z" />
<glyph unicode="&#xff;" horiz-adv-x="589" d="M-178 -322l18 78q51 -10 86 -10q51 0 89 39t83 135l39 86l19 1014h86l-25 -848l389 848h92l-538 -1139q-66 -139 -119 -176t-123 -37q-33 0 -96 10zM297 1198l37 158h98l-37 -158h-98zM500 1198l37 158h98l-37 -158h-98z" />
<glyph unicode="&#x152;" horiz-adv-x="1144" d="M55 215q0 63 21 154l180 770q39 170 104 235q84 90 232 90q145 0 209 -102l18 84h451l-21 -90h-350l-129 -557h328l-21 -88h-327l-144 -621h426l-20 -90h-520l16 74q-80 -88 -213 -88q-109 0 -174.5 63.5t-65.5 165.5zM156 233q0 -78 46 -120.5t128 -42.5q90 0 147 61 q23 25 37 55q35 80 47 144l166 700q31 125 31 193q0 156 -166 155q-92 0 -154 -57q-27 -27 -41 -55q-20 -41 -47 -152l-166 -698q-28 -126 -28 -183z" />
<glyph unicode="&#x153;" horiz-adv-x="1021" d="M20 176q0 49 21 137l96 435q35 158 90 215q68 72 187 71q121 0 192 -92q41 51 86 72.5t115 21.5q100 0 155.5 -49t55.5 -139q0 -49 -21 -137l-47 -207h-385l-53 -232q-12 -55 -12 -88q0 -55 34.5 -86.5t96.5 -31.5q80 0 123 53q25 33 53 149l20 80h88l-22 -96 q-33 -145 -86 -199q-61 -68 -178 -67q-139 0 -189 88q-70 -88 -192 -88q-104 0 -166 51t-62 139zM113 193q0 -57 37.5 -90t105.5 -33q72 0 111 45q37 39 69 188l90 408q16 72 17 114q0 59 -38 92t-106 33q-70 0 -110 -45q-39 -45 -70 -188l-90 -408q-16 -69 -16 -116z M582 578h297l39 167q12 49 12 91q0 123 -131 122q-80 0 -119 -51q-29 -37 -55 -149z" />
<glyph unicode="&#x178;" horiz-adv-x="716" d="M190 0l148 639l-98 807h104l74 -680l389 680h111l-482 -807l-147 -639h-99zM399 1616l37 156h107l-37 -156h-107zM688 1616l35 156h106l-34 -156h-107z" />
<glyph unicode="&#x2c6;" d="M31 1163l202 223h105l100 -223h-80l-82 146l-161 -146h-84z" />
<glyph unicode="&#x2dc;" d="M12 1221q76 104 154 104q33 0 84 -27l41 -20q25 -12 43 -12q47 0 94 61l29 -29q-76 -119 -156 -118q-31 0 -88 30q-59 31 -90 31q-39 0 -84 -47z" />
<glyph unicode="&#x2000;" horiz-adv-x="901" />
<glyph unicode="&#x2001;" horiz-adv-x="1804" />
<glyph unicode="&#x2002;" horiz-adv-x="901" />
<glyph unicode="&#x2003;" horiz-adv-x="1804" />
<glyph unicode="&#x2004;" horiz-adv-x="600" />
<glyph unicode="&#x2005;" horiz-adv-x="450" />
<glyph unicode="&#x2006;" horiz-adv-x="299" />
<glyph unicode="&#x2007;" horiz-adv-x="299" />
<glyph unicode="&#x2008;" horiz-adv-x="225" />
<glyph unicode="&#x2009;" horiz-adv-x="360" />
<glyph unicode="&#x200a;" horiz-adv-x="98" />
<glyph unicode="&#x2010;" horiz-adv-x="507" d="M92 555l21 86h362l-20 -86h-363z" />
<glyph unicode="&#x2011;" horiz-adv-x="507" d="M92 555l21 86h362l-20 -86h-363z" />
<glyph unicode="&#x2012;" horiz-adv-x="507" d="M92 555l21 86h362l-20 -86h-363z" />
<glyph unicode="&#x2013;" horiz-adv-x="727" d="M92 555l19 86h581l-18 -86h-582z" />
<glyph unicode="&#x2014;" horiz-adv-x="1007" d="M92 559l19 86h862l-19 -86h-862z" />
<glyph unicode="&#x2018;" horiz-adv-x="296" d="M250 1079l43 187q20 86 47 122.5t88 61.5l-10 -45q-29 -14 -43 -33q-23 -31 -39 -106h49l-43 -187h-92z" />
<glyph unicode="&#x2019;" horiz-adv-x="296" d="M240 1075l10 45q23 14 41 35q20 25 39 105h-49l43 186h92l-43 -186q-20 -86 -47 -123t-86 -62z" />
<glyph unicode="&#x201a;" horiz-adv-x="296" d="M-51 -184l10 47q29 16 41 33q20 27 41 104h-49l43 186h92l-43 -184q-20 -86 -47 -123.5t-88 -62.5z" />
<glyph unicode="&#x201c;" horiz-adv-x="503" d="M250 1079l43 187q20 86 47 122.5t88 61.5l-10 -45q-29 -14 -43 -33q-23 -31 -39 -106h49l-43 -187h-92zM457 1079l43 187q20 86 46.5 122.5t88.5 61.5l-10 -45q-29 -14 -43 -33q-18 -27 -39 -106h49l-43 -187h-92z" />
<glyph unicode="&#x201d;" horiz-adv-x="503" d="M240 1075l10 45q23 14 41 35q20 25 39 105h-49l43 186h92l-43 -186q-20 -86 -47 -123t-86 -62zM446 1075l11 45q23 14 41 35q20 25 39 105h-50l43 186h93l-41 -186q-18 -84 -46.5 -122t-89.5 -63z" />
<glyph unicode="&#x201e;" horiz-adv-x="503" d="M-51 -184l10 47q29 16 41 33q20 27 41 104h-49l43 186h92l-43 -184q-20 -86 -47 -123.5t-88 -62.5zM156 -184l10 47q29 16 41 33q20 27 41 104h-49l43 186h92l-43 -184q-20 -86 -47 -123.5t-88 -62.5z" />
<glyph unicode="&#x2022;" horiz-adv-x="681" d="M197 524l96 408h291l-97 -408h-290z" />
<glyph unicode="&#x2026;" horiz-adv-x="2048" d="M164 0l29 133h106l-31 -133h-104zM846 0l28 133h107l-29 -133h-106zM1526 0l28 133h107l-29 -133h-106z" />
<glyph unicode="&#x202f;" horiz-adv-x="360" />
<glyph unicode="&#x2039;" horiz-adv-x="489" d="M78 600l297 205h131l-299 -213l188 -197h-121z" />
<glyph unicode="&#x203a;" horiz-adv-x="489" d="M25 395l299 211l-189 197h121l197 -205l-297 -203h-131z" />
<glyph unicode="&#x205f;" horiz-adv-x="450" />
<glyph unicode="&#x20ac;" horiz-adv-x="765" d="M94 639l35 76h98l23 92h-115l31 78h100l41 188q20 94 31 131q35 141 106 201q72 61 189 61q143 0 258 -114l-51 -84q-86 113 -217 112q-80 0 -119 -39q-33 -27 -49 -73q-31 -90 -56 -211l-37 -172h336l-34 -78h-320l-22 -92h309l-33 -76h-293l-37 -166l-22 -104 q-20 -98 -21 -146q0 -74 45 -113.5t127 -39.5q115 0 242 96l-29 -129q-106 -57 -219 -57q-129 0 -196.5 62t-67.5 181q0 72 25 166l26 107l33 143h-117z" />
<glyph unicode="&#x2122;" horiz-adv-x="1052" d="M233 1372l17 74h336l-17 -74h-114l-140 -606h-79l139 606h-142zM502 766l160 680h112l-18 -604l264 604h119l-160 -680h-80l158 614l-273 -614h-90l19 614l-131 -614h-80z" />
<glyph unicode="&#xe000;" horiz-adv-x="1020" d="M0 1020h1020v-1020h-1020v1020z" />
<glyph unicode="&#xfb01;" horiz-adv-x="659" d="M359 0l233 1020h88l-233 -1020h-88zM623 1145l37 160h88l-37 -160h-88zM14 0l215 936h-114l20 84h115l39 182q31 143 90 201q51 49 139 49q16 0 66 -6l-19 -82q-41 6 -53 6q-55 0 -86 -37q-16 -23 -25 -43q-10 -31 -26 -104l-39 -166h133l-20 -84h-132l-215 -936h-88z " />
<glyph unicode="&#xfb02;" horiz-adv-x="659" d="M359 0l332 1446h88l-332 -1446h-88zM14 0l215 936h-114l20 84h115l39 182q31 143 90 201q51 49 139 49q16 0 66 -6l-19 -82q-41 6 -53 6q-55 0 -86 -37q-16 -23 -25 -43q-10 -31 -26 -104l-39 -166h133l-20 -84h-132l-215 -936h-88z" />
<glyph unicode="&#xfb03;" horiz-adv-x="1026" d="M725 0l233 1020h88l-233 -1020h-88zM989 1145l37 160h88l-37 -160h-88zM381 0l215 936h-114l20 84h115l39 182q31 143 90 201q51 49 139 49q16 0 66 -6l-19 -82q-41 6 -53 6q-55 0 -86 -37q-16 -23 -25 -43q-10 -31 -26 -104l-39 -166h133l-20 -84h-132l-215 -936h-88z M14 0l215 936h-114l20 84h115l39 182q31 143 90 201q51 49 139 49q16 0 66 -6l-19 -82q-41 6 -53 6q-55 0 -86 -37q-16 -23 -25 -43q-10 -31 -26 -104l-39 -166h133l-20 -84h-132l-215 -936h-88z" />
<glyph unicode="&#xfb04;" horiz-adv-x="1026" d="M725 0l332 1446h88l-332 -1446h-88zM381 0l215 936h-114l20 84h115l39 182q31 143 90 201q51 49 139 49q16 0 66 -6l-19 -82q-41 6 -53 6q-55 0 -86 -37q-16 -23 -25 -43q-10 -31 -26 -104l-39 -166h133l-20 -84h-132l-215 -936h-88zM14 0l215 936h-114l20 84h115l39 182 q31 143 90 201q51 49 139 49q16 0 66 -6l-19 -82q-41 6 -53 6q-55 0 -86 -37q-16 -23 -25 -43q-10 -31 -26 -104l-39 -166h133l-20 -84h-132l-215 -936h-88z" />
</font>
</defs>
</svg>
