<?xml version="1.0" standalone="no"?>
<!DOCTYPE svg PUBLIC "-//W3C//DTD SVG 1.1//EN" "http://www.w3.org/Graphics/SVG/1.1/DTD/svg11.dtd" >
<svg xmlns="http://www.w3.org/2000/svg">
<metadata>
This is a custom SVG webfont generated by Font Squirrel.
Copyright   : Copyright c 2009 by Dino dos Santos DSType All rights reserved
Designer    : Dino dos Santos
Foundry     : Dino dos Santos DSType
Foundry URL : httpwwwdstypecom
</metadata>
<defs>
<font id="GlosaDisplayMedium" horiz-adv-x="1146" >
<font-face units-per-em="2048" ascent="1536" descent="-512" />
<missing-glyph horiz-adv-x="471" />
<glyph unicode=" "  horiz-adv-x="471" />
<glyph unicode="&#x09;" horiz-adv-x="471" />
<glyph unicode="&#xa0;" horiz-adv-x="471" />
<glyph unicode="!" horiz-adv-x="655" d="M197 111q0 55 38.5 94t92 39t92.5 -39t39 -94q0 -53 -39 -92t-92.5 -39t-92 39t-38.5 92zM203 1434h246l-109 -1024h-21z" />
<glyph unicode="&#x22;" horiz-adv-x="851" d="M190 1556h164l-75 -405h-13zM498 1556h164l-76 -405h-13z" />
<glyph unicode="#" d="M76 369v30h317v297h-317v31h317v320h31v-320h297v320h31v-320h319v-31h-319v-297h319v-30h-319v-318h-31v318h-297v-318h-31v318h-317zM424 399h297v297h-297v-297z" />
<glyph unicode="$" d="M109 254q0 51 31.5 86t82.5 35q74 0 105.5 -56.5t-3 -114t-124.5 -57.5v-20q106 -127 317 -127q45 0 66 2v616l-72 31q-180 76 -279.5 174.5t-99.5 251.5q0 166 123 271.5t328 107.5v184h20v-184q195 -2 298.5 -87t103.5 -187q0 -51 -32 -86t-81 -35q-74 0 -105.5 56 t3 113.5t124.5 57.5v21q-109 125 -311 127v-572l19 -6q416 -166 415 -453q0 -180 -125 -293.5t-309 -127.5v-187h-20v185h-27q-225 0 -336.5 84t-111.5 190zM307 1178q0 -113 75 -182.5t202 -125.5v564q-115 -4 -196 -71.5t-81 -184.5zM604 6q246 35 246 283q0 201 -246 319 v-602z" />
<glyph unicode="%" horiz-adv-x="2007" d="M201 1137q2 133 90 225t219 92q125 0 211 -92t82 -225t-92 -225.5t-219 -92.5q-125 0 -210 92.5t-81 225.5zM309 1136.5q0 -157.5 54.5 -226t138.5 -68.5q190 0 190 295t-190 295q-84 0 -138.5 -69t-54.5 -226.5zM694 0l588 1434h29l-586 -1434h-31zM1204 297 q2 133 90 225t219 92q125 0 211 -92t82 -225t-92 -225t-219 -92q-125 0 -210 92t-81 225zM1313 297q0 -295 192 -295q190 0 190.5 295t-190.5 295q-84 0 -138 -68.5t-54 -226.5z" />
<glyph unicode="&#x26;" horiz-adv-x="1617" d="M143 362q0 106 82 199.5t242 188.5q-98 123 -142 212t-44 181q0 139 109.5 225t256.5 86q139 0 232.5 -77t93.5 -203q0 -188 -314 -330l408 -498q106 160 156 391l-226 78v21h463v-21l-211 -78q-70 -270 -168 -411l271 -295l51 -11v-20h-316l-141 160 q-178 -180 -389 -180q-180 0 -297 103t-117 279zM356 420q0 -141 77 -239.5t202 -98.5q182 0 297 96l-455 557q-121 -104 -121 -315zM487 1221q0 -104 39 -180t123 -183q104 70 142 153t38 197q0 92 -40.5 159t-133.5 67q-90 0 -129 -64.5t-39 -148.5z" />
<glyph unicode="'" horiz-adv-x="544" d="M190 1556h164l-75 -405h-13z" />
<glyph unicode="(" horiz-adv-x="768" d="M240 604q0 289 102 596t289 551h20q-307 -535 -307 -1147t307 -1147h-20q-186 244 -288.5 551t-102.5 596z" />
<glyph unicode=")" horiz-adv-x="768" d="M117 -543q307 535 307 1147.5t-307 1146.5h20q186 -244 288.5 -551t102.5 -596t-102 -596t-289 -551h-20z" />
<glyph unicode="*" horiz-adv-x="905" d="M164 1163q0 23 14.5 37t34.5 14q8 0 107.5 -21.5t117.5 -21.5q-168 100 -190 127q-35 35 0 70q35 37 69 2q4 -4 125 -192q0 20 -19.5 119.5t-19.5 107.5q0 20 13.5 34.5t36.5 14.5q51 0 51 -49q0 -8 -20.5 -108.5t-20.5 -118.5q121 188 125 192q35 35 69.5 0t-0.5 -72 l-190 -127q20 0 116.5 21.5t106.5 21.5q23 0 37 -15t14 -35.5t-14 -35t-37 -14.5q-8 0 -105.5 18.5t-115.5 18.5q8 -4 54 -34t85 -54.5t47 -30.5q16 -16 16.5 -36.5t-16.5 -34.5q-37 -35 -71 0q-6 6 -121 184q0 -18 20.5 -113.5t20.5 -103.5q0 -23 -14.5 -37t-36.5 -14 q-20 0 -35 14t-15 37q0 6 19.5 102t19.5 117q-119 -184 -120 -186q-14 -14 -37 -14.5t-37 14.5q-35 35 2 71q6 6 45 30.5t86 54.5t55 34q-20 0 -118.5 -18.5t-104.5 -18.5q-20 0 -34.5 14.5t-14.5 34.5z" />
<glyph unicode="+" d="M199 532v31h358v361h31v-361h360v-31h-360v-358h-31v358h-358z" />
<glyph unicode="," horiz-adv-x="686" d="M199 35v217q152 20 220 -46.5t68 -162.5q0 -133 -84 -236.5t-182 -144.5l-8 21q68 27 118 85t64.5 117.5t-33.5 104.5t-163 45z" />
<glyph unicode="-" d="M199 532v31h749v-31h-749z" />
<glyph unicode="." horiz-adv-x="655" d="M197 111q0 55 38.5 94t92 39t92.5 -39t39 -94q0 -53 -39 -92t-92.5 -39t-92 39t-38.5 92z" />
<glyph unicode="/" horiz-adv-x="983" d="M256 0l430 1454h41l-430 -1454h-41z" />
<glyph unicode="0" horiz-adv-x="1228" d="M109 717q0 184 51 346t170 276.5t284.5 114.5t284.5 -114.5t170 -276.5t51 -346.5t-51 -346t-170 -276t-284.5 -114.5t-283.5 112.5t-170 275.5t-52 349zM348 717q0 -162 12.5 -284t41 -224.5t82 -155.5t130.5 -53q76 0 130.5 53t83 154.5t41 224.5t12.5 285 q0 160 -12.5 282.5t-41 224t-83 156t-130.5 54.5q-78 0 -131 -54.5t-81.5 -156t-41 -223t-12.5 -283.5z" />
<glyph unicode="1" horiz-adv-x="860" d="M76 0v20l246 11v1347l-246 -37v21l442 92h21v-1423l245 -11v-20h-708z" />
<glyph unicode="2" horiz-adv-x="1044" d="M88 0v20q178 129 306 258.5t193.5 228.5t103.5 207.5t45 174t7 149.5q0 162 -74.5 266.5t-213.5 104.5q-164 0 -267 -109v-20q109 25 144 -53q31 -66 -17 -121q-33 -41 -94 -41q-45 0 -78.5 31.5t-33.5 85.5q0 98 113.5 185t305.5 87q115 0 203 -37t137.5 -98.5t74 -131 t24.5 -140.5q0 -74 -23.5 -157t-86 -196.5t-199 -247t-332.5 -260.5v-20l651 10v-176h-889z" />
<glyph unicode="3" horiz-adv-x="1095" d="M76 256q0 49 32.5 81t81.5 32q84 0 111 -74q27 -68 -25 -117q-43 -43 -122 -31v-20q39 -35 62.5 -53.5t97 -46t161.5 -27.5q135 0 210 104.5t75 280.5q0 152 -76 260.5t-217 108.5h-61v24h47q129 0 195.5 96.5t66.5 217.5q0 111 -65.5 190.5t-178.5 79.5 q-227 0 -321 -256h-21q33 139 146.5 243.5t267.5 104.5q174 0 282.5 -89t108.5 -235q0 -131 -99.5 -225t-291.5 -131v-10q207 -14 325.5 -107.5t118.5 -261.5q0 -199 -147.5 -307t-364.5 -108q-174 0 -286.5 83.5t-112.5 192.5z" />
<glyph unicode="4" horiz-adv-x="1167" d="M76 328v32l678 1039l153 55v-1102h185v-24h-185v-328h-217v328h-614zM113 352h577v881h-20l-557 -860v-21z" />
<glyph unicode="5" horiz-adv-x="1095" d="M76 256q0 47 32.5 80t81.5 33q82 0 111 -72q27 -72 -25 -121q-43 -39 -122 -33v-20q135 -123 313 -123q143 0 220 118t77 292q0 61 -11.5 117.5t-43 112.5t-80.5 96t-131 65.5t-187 25.5h-90l21 607h694v-193h-680l-12 -393q172 45 298 29.5t212 -58.5t137 -116.5 t73.5 -142t22.5 -136.5q0 -197 -138 -320.5t-374 -123.5q-174 0 -286.5 85t-112.5 191z" />
<glyph unicode="6" horiz-adv-x="1157" d="M109 547q0 342 204.5 592t532.5 315l4 -20q-209 -45 -345 -220.5t-157 -431.5l17 -6q133 111 299 111q170 0 277.5 -126t107.5 -308q0 -209 -138.5 -341t-328.5 -132q-223 0 -348 162.5t-125 404.5zM348.5 370q20.5 -165 82 -267.5t153.5 -102.5q106 0 165.5 121 t59.5 309q0 172 -62.5 290t-173.5 118q-125 0 -225 -113q-20 -190 0.5 -355z" />
<glyph unicode="7" horiz-adv-x="1003" d="M76 1092l10 342h862v-21l-502 -1413h-204l626 1249v21l-731 -21l-41 -157h-20z" />
<glyph unicode="8" horiz-adv-x="1157" d="M113 367q0 111 87 200.5t249 128.5q-285 152 -285 381q0 172 131 274.5t305 102.5q164 0 280.5 -94t116.5 -256q0 -98 -80.5 -182t-216.5 -125q188 -82 266 -178.5t78 -225.5q0 -193 -142 -303t-341 -110q-195 0 -321.5 100.5t-126.5 286.5zM319 367q0 -160 72 -263.5 t195 -103.5q117 0 180 93t63 237q0 113 -90 196.5t-270 159.5q-68 -51 -109 -136t-41 -183zM371 1149q0 -70 25.5 -125t76.5 -96t95 -64.5t116 -56.5q121 102 121 323q0 127 -61.5 215.5t-157.5 88.5q-94 0 -154.5 -84t-60.5 -201z" />
<glyph unicode="9" horiz-adv-x="1157" d="M109 981q0 209 138 341t328 132q223 0 348.5 -163t125.5 -404q0 -342 -205 -592t-533 -315l-4 20q209 45 345 220t157 431l-16 6q-133 -111 -299 -110q-170 0 -277.5 126t-107.5 308zM348 1004q0 -172 62.5 -290t173.5 -118q125 0 225 113q20 190 -0.5 355t-81.5 267.5 t-154 102.5q-106 0 -165.5 -121t-59.5 -309z" />
<glyph unicode=":" horiz-adv-x="655" d="M197 225q0 55 38.5 94t92 39t92.5 -38.5t39 -94.5q0 -53 -39 -92t-92.5 -39t-92 39t-38.5 92zM197 798.5q0 53.5 38.5 92.5t92 39t92.5 -39t39 -92.5t-39 -92t-92.5 -38.5t-92 38.5t-38.5 92z" />
<glyph unicode=";" horiz-adv-x="686" d="M199 35v217q152 20 220 -46.5t68 -162.5q0 -133 -84 -236.5t-182 -144.5l-8 21q68 27 118 85t64.5 117.5t-33.5 104.5t-163 45zM207 798.5q0 53.5 39 92.5t92 39t92 -39t39 -92.5t-39 -92t-92 -38.5t-92 38.5t-39 92z" />
<glyph unicode="&#x3c;" horiz-adv-x="983" d="M199 528v41l579 379v-20l-467 -377l467 -381v-20z" />
<glyph unicode="=" d="M199 389v31h749v-31h-749zM199 676v31h749v-31h-749z" />
<glyph unicode="&#x3e;" horiz-adv-x="983" d="M205 150v20l467 381l-467 377v20l579 -379v-41z" />
<glyph unicode="?" horiz-adv-x="1097" d="M117 1178q0 106 119.5 191t306.5 85q209 0 327.5 -110.5t118.5 -258.5q0 -78 -39 -148.5t-145.5 -137t-269.5 -92.5l-11 -297h-20l-10 311q168 49 222 140t54 218q0 152 -80 245t-223 93q-74 0 -150.5 -31.5t-115.5 -78.5v-21q111 8 139 -72q27 -66 -25 -116 q-33 -33 -86 -33q-47 0 -79.5 33t-32.5 80zM381 111q0 55 39 94t92 39t92 -39t39 -94q0 -53 -39 -92t-92 -39t-92 39t-39 92z" />
<glyph unicode="@" horiz-adv-x="1810" d="M178 350q0 231 116 418.5t299 287t390 99.5q274 0 461.5 -160.5t187.5 -455.5q0 -242 -128 -398.5t-300 -156.5q-78 0 -120 43t-46 108q-31 -70 -92 -112.5t-131 -42.5q-80 0 -138.5 47t-82 117.5t-27.5 153.5t27 157q49 141 158.5 238.5t234.5 97.5q63 0 106.5 -41 t43.5 -105h6l160 123h20l-98 -528q-41 -215 65 -215q104 0 213 147t109 358q0 154 -54.5 274t-145.5 190.5t-200.5 105.5t-232.5 35q-176 0 -318.5 -112t-218 -290t-75.5 -379q0 -303 137 -478t414 -175q123 0 260 52t239 134l10 -16q-240 -197 -567 -197 q-289 0 -485.5 193.5t-196.5 482.5zM750.5 155q21.5 -132 105.5 -132q68 0 113 48t65 126q33 123 68 338q25 119 -9 172t-87 53q-160 0 -238 -336q-39 -137 -17.5 -269z" />
<glyph unicode="A" horiz-adv-x="1433" d="M14 0v20l211 78l393 1223l162 133l531 -1423l108 -11v-20h-545v20l183 11l-166 481h-504l-129 -414l219 -78v-20h-463zM393 537h490l-244 702h-21z" />
<glyph unicode="B" horiz-adv-x="1255" d="M76 0v20l164 11v1372l-164 10v21h573q225 0 348 -95.5t123 -253.5q0 -127 -117.5 -221t-326.5 -112v-4q248 -4 377 -118t129 -251q0 -172 -123 -275.5t-348 -103.5h-635zM457 20h198q160 0 228.5 104.5t68.5 264.5q0 158 -83 251t-261 93h-151v-713zM457 754h96 q338 0 338 311q0 156 -64.5 252t-212.5 96h-157v-659z" />
<glyph unicode="C" horiz-adv-x="1331" d="M88 716.5q0 321.5 194.5 529.5t495.5 208q260 0 457 -123l10 -334h-20l-103 217q-37 88 -129 154t-200 66q-221 0 -343 -183.5t-122 -533.5q0 -352 119.5 -534.5t345.5 -182.5q111 0 201.5 63.5t131.5 155.5l109 217h20l-20 -334q-197 -123 -457 -122 q-301 0 -495.5 207.5t-194.5 529z" />
<glyph unicode="D" horiz-adv-x="1515" d="M76 0v20l164 11v1372l-164 10v21h620q334 0 532.5 -191.5t198.5 -525.5q0 -317 -201.5 -517t-529.5 -200h-620zM457 20h239q164 0 280 110t164 262.5t48 324.5q0 197 -51.5 349.5t-170 249.5t-290.5 97h-219v-1393z" />
<glyph unicode="E" horiz-adv-x="1228" d="M76 0v20l164 11v1372l-164 10v21h1036l10 -334h-20l-156 303l-489 10v-686l356 8l84 234h21v-494h-21l-84 223l-356 9v-687l510 11l166 303h20l-20 -334h-1057z" />
<glyph unicode="F" horiz-adv-x="1177" d="M76 0v20l164 11v1372l-164 10v21h1036l10 -334h-20l-156 303l-489 10v-727l356 8l84 234h21v-494h-21l-84 223l-356 9v-635l164 -11v-20h-545z" />
<glyph unicode="G" horiz-adv-x="1454" d="M88 716.5q0 321.5 194.5 529.5t495.5 208q260 0 457 -123l10 -334h-20l-103 217q-37 86 -130 153t-199 67q-221 0 -343 -183.5t-122 -533.5q0 -332 125 -524.5t325 -192.5q166 0 287 92v471l-164 10v21h498v-21l-115 -10v-420q-76 -57 -221 -110t-285 -53 q-301 0 -495.5 207.5t-194.5 529z" />
<glyph unicode="H" horiz-adv-x="1597" d="M76 0v20l164 11v1372l-164 10v21h545v-21l-164 -10v-662h684v662l-164 10v21h545v-21l-164 -10v-1372l164 -11v-20h-545v20l164 11v686h-684v-686l164 -11v-20h-545z" />
<glyph unicode="I" horiz-adv-x="696" d="M76 0v20l164 11v1372l-164 10v21h545v-21l-164 -10v-1372l164 -11v-20h-545z" />
<glyph unicode="J" horiz-adv-x="798" d="M41 96q0 78 72 101q21 7 39 6q44 0 77 -37q30 -33 30 -85q0 -29 -9 -65h20q59 0 75.5 83t16.5 249v1055l-165 10v21h546v-21l-163 -10v-1000q0 -174 -115 -298.5t-266 -124.5q-76 0 -117 32.5t-41 83.5z" />
<glyph unicode="K" horiz-adv-x="1505" d="M76 0v20l164 11v1372l-164 10v21h545v-21l-164 -10v-666h143l492 598l-228 78v21h525v-21l-256 -78l-426 -504l616 -800l147 -11v-20h-614v20l184 11l-508 686h-75v-686l164 -11v-20h-545z" />
<glyph unicode="L" horiz-adv-x="1187" d="M76 0v20l164 11v1372l-164 10v21h545v-21l-164 -10v-1383l510 11l166 303h20l-20 -334h-1057z" />
<glyph unicode="M" horiz-adv-x="1802" d="M76 0v20l211 78v1305l-211 10v21h432l450 -1090h21l358 1090h389v-21l-163 -10v-1372l163 -11v-20h-544v20l164 11v1286h-21l-430 -1327h-41l-526 1274h-21l10 -1166l222 -78v-20h-463z" />
<glyph unicode="N" horiz-adv-x="1495" d="M76 0v20l211 78v1305l-211 10v21h422l688 -1049h20l-8 950l-221 78v21h463v-21l-211 -78v-1345h-41l-860 1286h-21l10 -1178l222 -78v-20h-463z" />
<glyph unicode="O" horiz-adv-x="1597" d="M88 716.5q0 317.5 208 527.5t503 210t502.5 -210t207.5 -527.5t-207.5 -527t-502.5 -209.5t-503 209.5t-208 527zM328 717q0 -336 129 -526.5t342 -190.5t342 190.5t129 526.5t-129 526.5t-342 190.5t-342 -190.5t-129 -526.5z" />
<glyph unicode="P" horiz-adv-x="1249" d="M76 0v20l164 11v1372l-164 10v21h635q225 0 348 -107.5t123 -282.5q0 -82 -31 -155.5t-94.5 -138t-179 -103.5t-269.5 -39h-151v-577l164 -11v-20h-545zM457 629h137q195 0 276.5 101t81.5 294q0 182 -66.5 282.5t-230.5 106.5h-198v-784z" />
<glyph unicode="Q" horiz-adv-x="1597" d="M88 717q0 317 208 527t503 210t502.5 -210t207.5 -527q0 -238 -124.5 -424.5t-336.5 -266.5q-119 -45 -245 -46q-99 0 -203 28v-10l963 -322v-20l-232 -127l-885 543q-160 100 -259 269t-99 376zM328 717q0 -336 129 -526.5t342 -190.5t342 190.5t129 526.5t-129 526.5 t-342 190.5t-342 -190.5t-129 -526.5z" />
<glyph unicode="R" horiz-adv-x="1372" d="M76 0v20l164 11v1372l-164 10v21h614q225 0 348 -104.5t123 -278.5q0 -141 -114.5 -249t-323.5 -130v-21q66 -6 108.5 -43t94.5 -108l317 -469l94 -11v-20h-348l-411 655h-121v-624l164 -11v-20h-545zM457 676h137q188 0 263 95t75 259q0 104 -23.5 185t-93.5 139.5 t-180 58.5h-178v-737z" />
<glyph unicode="S" horiz-adv-x="1105" d="M96 436h21q8 -23 26.5 -72t26.5 -71q113 -293 373 -293q129 0 207.5 73.5t78.5 215.5q0 61 -22.5 113.5t-51 86t-80.5 67.5t-87 50.5t-96 42.5q-180 78 -281.5 175.5t-101.5 250.5q0 168 124.5 273.5t333.5 105.5q207 0 340 -123l21 113h20l10 -416h-20l-61 160 q-96 246 -308 246q-113 0 -199.5 -69t-86.5 -187q0 -63 26.5 -115.5t79.5 -91.5t99.5 -63.5t113.5 -51.5q416 -166 416 -453q0 -197 -132 -310t-343 -113q-209 0 -396 149l-20 -139h-21z" />
<glyph unicode="T" horiz-adv-x="1228" d="M55 1100l11 334h1097l11 -334h-21l-156 299l-274 10v-1378l164 -11v-20h-545v20l164 11v1378l-275 -10l-155 -299h-21z" />
<glyph unicode="U" horiz-adv-x="1556" d="M55 1413v21h545v-21l-164 -10v-897q0 -479 398 -479q195 0 305 137t110 375v796l-211 78v21h463v-21l-221 -78v-782q0 -276 -131 -424.5t-381 -148.5q-274 0 -411.5 150.5t-137.5 422.5v850z" />
<glyph unicode="V" horiz-adv-x="1433" d="M14 1413v21h545v-21l-182 -10l418 -1188h20l359 1120l-218 78v21h463v-21l-213 -78l-438 -1345h-117l-528 1413z" />
<glyph unicode="W" horiz-adv-x="2068" d="M14 1413v21h539v-21l-176 -10l379 -1182h20l250 785l-125 397l-137 10v21h553v-21l-162 -10l338 -1182h20l295 1114l-217 78v21h463v-21l-213 -78l-362 -1345h-138l-297 960l-47 -137l-274 -823h-123l-477 1413z" />
<glyph unicode="X" horiz-adv-x="1454" d="M35 0v20l211 78l393 564l-414 741l-159 10v21h596v-21l-175 -10l324 -576l326 508l-222 78v21h474v-21l-211 -78l-353 -532l435 -772l159 -11v-20h-616v20l190 11l-340 608l-366 -541l241 -78v-20h-493z" />
<glyph unicode="Y" horiz-adv-x="1392" d="M14 1413v21h539v-21l-154 -10l385 -782h21l334 714l-203 78v21h442v-21l-200 -78l-363 -755v-549l164 -11v-20h-545v20l164 11v467l-455 905z" />
<glyph unicode="Z" horiz-adv-x="1228" d="M76 0v20l794 1373v20l-559 -10l-174 -303h-20l10 334h1006v-21l-789 -1372v-21l614 11l175 303h20l-31 -334h-1046z" />
<glyph unicode="[" horiz-adv-x="778" d="M190 -532v2283h500v-20h-371v-2243h371v-20h-500z" />
<glyph unicode="\" horiz-adv-x="983" d="M256 1454h41l430 -1454h-41z" />
<glyph unicode="]" horiz-adv-x="778" d="M190 -512h371v2243h-371v20h500v-2283h-500v20z" />
<glyph unicode="^" horiz-adv-x="1044" d="M205 1004l307 471h20l308 -471h-21l-297 276l-297 -276h-20z" />
<glyph unicode="_" horiz-adv-x="1249" d="M199 -102h852v-31h-852v31z" />
<glyph unicode="`" horiz-adv-x="755" d="M190 1495h211l140 -369h-21z" />
<glyph unicode="a" horiz-adv-x="1044" d="M82 199q0 92 75.5 152.5t217.5 109.5l274 92v252q0 102 -46 153.5t-152 51.5q-55 0 -122 -24.5t-108 -59.5v-21h6q79 0 112 -52q17 -28 17 -56q0 -26 -15 -53q-32 -54 -105 -54q-47 0 -80 33t-33 80q0 92 123 166.5t286 74.5q150 0 242 -63t92 -203v-758h164v-20 l-360 -20h-21v112h-20q-88 -59 -154.5 -85.5t-152.5 -26.5q-113 0 -176.5 61.5t-63.5 157.5zM299 256q0 -82 50 -128t128 -46q90 0 172 41v409l-178 -65q-94 -33 -133 -83t-39 -128z" />
<glyph unicode="b" horiz-adv-x="1187" d="M14 1454v21q78 4 254 16l86 4h21v-567h20q131 117 295 116q197 0 313.5 -149.5t116.5 -382.5q0 -229 -132 -380.5t-333 -151.5q-145 0 -260 81h-20l-197 -81h-20v1474h-144zM375 104q119 -80 219 -79q287 0 287 487q0 481 -287 481q-96 0 -219 -108v-781z" />
<glyph unicode="c" horiz-adv-x="1044" d="M68 508q0 248 157.5 392t364.5 144q172 0 269 -75.5t97 -173.5q0 -51 -32.5 -85t-79.5 -34q-86 0 -113 74q-8 22 -8 41q0 41 35 73q34 31 91 31q15 0 32 -2v20q-96 104 -267 105q-152 0 -241.5 -123t-89.5 -320q0 -211 101 -330.5t257 -119.5q106 0 190 53t125 129h21 q-33 -135 -143.5 -231t-264.5 -96q-231 0 -366 154.5t-135 373.5z" />
<glyph unicode="d" horiz-adv-x="1228" d="M68 512q0 229 132 380.5t332 151.5q145 0 261 -81h20v491h-143v21l340 20h20v-1475h164v-20l-360 -20h-21v116h-20q-131 -117 -295 -116q-197 0 -313.5 149.5t-116.5 382.5zM307 512q0 -481 287 -481q96 0 219 108v781q-119 80 -219 79q-287 0 -287 -487z" />
<glyph unicode="e" horiz-adv-x="1044" d="M68 508q0 248 154.5 392t361.5 144q80 0 150.5 -22.5t131 -70.5t86.5 -140q14 -50 15 -109q0 -50 -11 -108h-673q0 -205 100 -337t258 -132q98 0 187.5 54t127.5 128h21q-33 -135 -143.5 -231t-264.5 -96q-231 0 -366 154.5t-135 373.5zM287 614l446 11q18 88 18 157 q0 86 -28 142q-51 100 -150 100q-121 0 -197.5 -103.5t-88.5 -306.5z" />
<glyph unicode="f" horiz-adv-x="696" d="M55 0v20l164 11v962h-151v21l151 10v47q0 174 115 299t266 125q63 0 110.5 -27.5t47.5 -89.5q0 -45 -30 -75.5t-79 -30.5t-88 46q-23 27 -23 72q0 30 11 68h-21q-59 0 -75.5 -83t-16.5 -249v-102h254v-31h-254v-962l226 -11v-20h-607z" />
<glyph unicode="g" horiz-adv-x="1116" d="M35 -236q0 72 62.5 132.5t162.5 91.5v18q-141 43 -141 154q0 55 49 99t149 89v19q-100 45 -164.5 126.5t-64.5 186.5q0 158 121 261t303 103q139 0 268 -71q82 111 215 110q55 0 91 -30.5t36 -73.5q0 -70 -65 -92q-21 -7 -39 -7q-42 0 -72 35q-28 32 -28 85q0 23 6 51 q-29 -4 -68 -31t-61 -59q61 -47 96 -121t35 -152q0 -166 -115 -263t-299 -97q-98 0 -164 28q-61 -51 -61 -98q0 -70 147 -80l311 -26q313 -23 314 -240q0 -170 -173 -276.5t-429 -106.5q-213 0 -317.5 63t-104.5 172zM180 -213q0 -100 74 -169t231 -69q209 0 312.5 73 t103.5 173q0 76 -62.5 115t-203.5 51l-348 35q-107 -107 -107 -209zM309 684q18 -184 70.5 -260t142.5 -76q184 0 184 262q0 38 -4 82q-14 176 -63 254t-137 78q-100 0 -154 -83q-42 -65 -42 -187q0 -33 3 -70z" />
<glyph unicode="h" horiz-adv-x="1269" d="M55 0v20l164 11v1423h-143v21l340 20h20v-635h21q174 184 372 184q115 0 189 -74.5t74 -232.5v-706l163 -11v-20h-503v20l122 11v721q0 217 -172 217q-63 0 -119.5 -34t-146.5 -126v-778l164 -11v-20h-545z" />
<glyph unicode="i" horiz-adv-x="614" d="M55 0v20l164 11v973h-143v20l340 20h20v-1013l164 -11v-20h-545zM184 1337.5q0 59.5 42 101.5t101.5 42t101.5 -42t42 -101.5t-42 -101.5t-101.5 -42t-101.5 42t-42 101.5z" />
<glyph unicode="j" horiz-adv-x="573" d="M-102 -354q0 45 29.5 75.5t78.5 30.5t88 -46q23 -27 23 -72q0 -30 -11 -68h21q59 0 75.5 87t16.5 279v1072h-143v20l340 20h20v-1091q0 -174 -114.5 -299t-266.5 -125q-63 0 -110 28t-47 89zM184 1337.5q0 59.5 42 101.5t101.5 42t101.5 -42t42 -101.5t-42 -101.5 t-101.5 -42t-101.5 42t-42 101.5z" />
<glyph unicode="k" horiz-adv-x="1269" d="M55 0v20l164 11v1423h-143v21l340 20h20v-922h90l385 379l-180 52v20h453v-20l-232 -52l-274 -256l444 -665l113 -11v-20h-504v20l119 11l-332 522h-82v-522l144 -11v-20h-525z" />
<glyph unicode="l" horiz-adv-x="614" d="M55 0v20l164 11v1423h-143v21l340 20h20v-1464l164 -11v-20h-545z" />
<glyph unicode="m" horiz-adv-x="1884" d="M55 0v20l164 11v973h-143v20l340 20h20v-184h21q88 96 166.5 140t185.5 44q92 0 160.5 -50t91.5 -154h16q86 106 172 155t195 49q115 0 188.5 -74.5t73.5 -232.5v-706l164 -11v-20h-504v20l123 11v721q0 217 -164 217q-115 0 -254 -170v-768l164 -11v-20h-504v20l123 11 v721q0 217 -164 217q-59 0 -109.5 -33t-144.5 -127v-778l164 -11v-20h-545z" />
<glyph unicode="n" horiz-adv-x="1269" d="M55 0v20l164 11v973h-143v20l340 20h20v-184h21q174 184 372 184q115 0 189 -74.5t74 -232.5v-706l163 -11v-20h-503v20l122 11v721q0 217 -172 217q-63 0 -119.5 -34t-146.5 -126v-778l164 -11v-20h-545z" />
<glyph unicode="o" d="M68 512q0 231 145 381.5t360 150.5t360.5 -150.5t145.5 -381.5t-145.5 -381.5t-360.5 -150.5t-360 150.5t-145 381.5zM307 512q0 -248 67.5 -380t199 -132t199 132t67.5 380t-67.5 380t-199 132t-199 -132t-67.5 -380z" />
<glyph unicode="p" horiz-adv-x="1208" d="M14 -430l164 10v1424h-143v20l340 20h20v-116h21q131 117 295 116q197 0 313.5 -149.5t116.5 -382.5q0 -229 -132 -380.5t-333 -151.5q-145 0 -260 81h-21v-481l164 -10v-21h-545v21zM395 104q119 -80 219 -79q287 0 287 487q0 481 -287 481q-96 0 -219 -108v-781z" />
<glyph unicode="q" horiz-adv-x="1167" d="M68 512q0 229 132 380.5t332 151.5q145 0 261 -81h20l197 81h20v-1464l164 -10v-21h-545v21l164 10v516h-20q-131 -117 -295 -116q-197 0 -313.5 149.5t-116.5 382.5zM307 512q0 -481 287 -481q96 0 219 108v781q-119 80 -219 79q-287 0 -287 -487z" />
<glyph unicode="r" horiz-adv-x="907" d="M55 0v20l164 11v973h-143v20l340 20h20v-272h21q137 272 282 272q53 0 90 -32.5t37 -83.5q0 -78 -58 -111q-29 -16 -58 -16q-30 0 -62 17q-61 34 -67 120h-21q-72 -66 -164 -268v-639l164 -11v-20h-545z" />
<glyph unicode="s" horiz-adv-x="880" d="M76 -20v313h20q53 -133 119 -207q72 -84 174 -84q96 0 153.5 56.5t57.5 142.5q0 47 -17.5 82.5t-57.5 65.5t-73.5 47.5t-97.5 43.5q-141 59 -208.5 129t-67.5 189q0 127 97 206.5t265 79.5q154 0 293 -102l10 102h21v-313h-21q-51 141 -133 223q-78 68 -166 68 q-78 0 -128 -49t-50 -119q0 -86 59.5 -136t155.5 -87q164 -68 246 -139.5t82 -198.5q0 -143 -109.5 -228t-279.5 -85q-164 0 -314 110l-10 -110h-20z" />
<glyph unicode="t" horiz-adv-x="757" d="M47 993v21l152 10l196 246h21v-246h286v-31h-286v-753q0 -117 33.5 -161t103.5 -44q61 0 149 37v-21q-143 -72 -286 -71q-109 0 -163 58t-54 187v768h-152z" />
<glyph unicode="u" horiz-adv-x="1208" d="M14 1004v20l346 20h35v-772q0 -217 172 -217q63 0 115.5 33t130.5 127v789h-164v20l346 20h35v-1017h164v-21l-360 -26h-21v184h-20q-158 -184 -353 -184q-115 0 -188.5 74.5t-73.5 232.5v717h-164z" />
<glyph unicode="v" horiz-adv-x="1187" d="M14 1004v20h545v-20l-172 -11l315 -805h21l233 764l-163 52v20h381v-20l-187 -52l-305 -962h-139l-408 1003z" />
<glyph unicode="w" horiz-adv-x="1761" d="M14 1004v20h518v-20l-145 -11l275 -805h20l174 568l-80 237l-121 11v20h547v-20l-174 -11l248 -805h20l234 764l-164 52v20h381v-20l-186 -52l-306 -962h-139l-246 723l-32 -103l-197 -620h-139l-367 1003z" />
<glyph unicode="x" d="M35 0v20l180 52l250 420l-287 501l-123 11v20h512v-20l-125 -11l211 -377l207 336l-160 52v20h392v-20l-201 -52l-225 -356l323 -565l123 -11v-20h-512v20l123 11l-246 442l-231 -401l180 -52v-20h-391z" />
<glyph unicode="y" horiz-adv-x="1187" d="M14 1004v20h545v-20l-172 -11l324 -764h20l225 723l-163 52v20h381v-20l-187 -52l-340 -1054q-27 -66 -50.5 -114t-66.5 -114.5t-104 -103.5t-133 -37q-74 0 -112 32.5t-38 84.5q0 70 68 96q26 10 48 10q40 0 69 -33q30 -34 30 -93q0 -25 -6 -56h10q63 0 141.5 104.5 t125.5 239.5l-494 1079z" />
<glyph unicode="z" horiz-adv-x="983" d="M55 0v20l590 963v21l-373 -11l-155 -262h-21l10 293h791v-20l-590 -963v-21l434 11l156 262h21l-11 -293h-852z" />
<glyph unicode="{" horiz-adv-x="880" d="M96 573v19q135 18 179 71.5t63 180.5q10 82 -18.5 310t-28.5 280q0 82 22.5 140t61.5 92t104.5 53.5t135 25.5t169.5 6v-20q-172 -8 -231 -29q-176 -59 -154 -297q2 -16 37 -218t33 -276q-2 -72 -24.5 -127t-65.5 -91t-70.5 -53t-79 -37.5t-53.5 -20.5q41 -6 70.5 -13.5 t75 -29t73 -51t50 -84t24.5 -125.5q2 -63 -33 -262t-37 -220q-6 -59 1.5 -106t21.5 -78t43 -53.5t53.5 -34.5t65.5 -19.5t66.5 -9.5t69.5 -4t64 -4v-20q-104 0 -170.5 5t-134 21.5t-104.5 49t-60.5 89t-23.5 138.5q0 53 28.5 274t18.5 303q-16 123 -60.5 167t-181.5 58z" />
<glyph unicode="|" horiz-adv-x="440" d="M205 -205v1884h31v-1884h-31z" />
<glyph unicode="}" horiz-adv-x="880" d="M96 -512q20 2 64.5 4t70 4t66.5 9.5t65.5 19.5t53 34.5t43 53.5t21.5 78t1 106q-2 20 -36.5 219t-32.5 263q2 72 24.5 126t50 83.5t72.5 51t75 28.5t71 14q-4 2 -42 16t-61.5 24.5t-62.5 38t-62.5 58.5t-43 82t-21.5 110q-2 74 32.5 276t36.5 218q8 98 -12 160 q-8 27 -21.5 49t-34 37.5t-34.5 28t-45 20.5t-44.5 13t-51 8t-47 4t-51.5 3.5t-44 2.5v20q100 0 170 -6t135.5 -25.5t104.5 -53.5t61.5 -92t22.5 -140q0 -51 -29 -279.5t-18 -310.5q14 -123 61 -179.5t180 -72.5v-19q-137 -14 -181 -58t-60 -167q-10 -82 18.5 -303 t28.5 -274q0 -82 -23.5 -138.5t-60.5 -89t-104.5 -49t-134 -21.5t-171.5 -5v20z" />
<glyph unicode="~" horiz-adv-x="1126" d="M190 676q117 240 220 239q41 0 194.5 -49t196.5 -49q39 0 63.5 14.5t53.5 59.5l18 -10q-109 -219 -209 -219q-47 0 -192.5 48t-192.5 48q-49 0 -71.5 -16.5t-63.5 -73.5z" />
<glyph unicode="&#xa1;" horiz-adv-x="655" d="M197 913q0 53 38.5 92t92 39t92.5 -38.5t39 -92.5q0 -55 -39 -94t-92.5 -39t-92 39t-38.5 94zM203 -451l116 1065h21l109 -1065h-246z" />
<glyph unicode="&#xa2;" horiz-adv-x="1126" d="M109 508q0 236 144 379t341 155v187h31v-185h6q172 0 269 -75.5t97 -173.5q0 -51 -32.5 -85t-79.5 -34q-86 0 -113 74q-25 68 27 114q43 39 123 29v20q-96 104 -267 105q-20 0 -30 -2v-887q37 -4 57 -4q106 0 190 53t125 129h21q-33 -131 -139.5 -226t-253.5 -101v-185 h-31v185q-225 6 -355 159.5t-130 368.5zM324 575q0 -180 73.5 -293.5t196.5 -146.5v877q-127 -25 -198.5 -143t-71.5 -294z" />
<glyph unicode="&#xa3;" horiz-adv-x="1273" d="M112.5 99q8.5 46 39.5 75q61 59 165 68q43 76 53.5 164t3.5 150t-30 171h-176v21h170q-33 156 -37 190q-16 131 20.5 234.5t109.5 162t157 89t170 30.5q188 0 280 -78t92 -172q0 -51 -32.5 -85t-81.5 -34q-88 0 -113 76q-27 70 27 117q45 41 125 22v21q-113 113 -301 113 q-135 0 -208 -113t-38 -297q6 -29 29.5 -127t31.5 -149h267v-21h-263q20 -266 -225 -473l6 -14q92 6 210 -14.5t206 -42t172 -31t137.5 25.5t71.5 123h20q-10 -47 -20 -77.5t-39 -82t-64.5 -82t-101 -55t-149.5 -24.5q-82 0 -157 34.5t-120 77.5t-98 83t-94 48 q51 -244 -111 -243q-59 0 -86 36.5t-18.5 82.5z" />
<glyph unicode="&#xa4;" horiz-adv-x="1050" d="M143 928l17 16l162 -184q90 74 204 74q113 0 203 -74l160 184l18 -16l-159 -183q102 -96 102 -235t-100 -234l155 -176l-18 -18l-158 178q-88 -72 -203 -72q-117 0 -204 72l-156 -178l-19 18l156 176q-98 94 -98 233.5t98 233.5zM229 510q0 -121 88.5 -209t209 -88 t209.5 88t89 209t-89 210t-209.5 89t-209 -89t-88.5 -210z" />
<glyph unicode="&#xa5;" horiz-adv-x="1619" d="M109 1327q0 63 54 95t128 32q61 0 127.5 -26.5t142.5 -93t139.5 -166t115.5 -263.5t75 -366h20q86 449 208 682t270 233q55 0 88.5 -35t33.5 -80q0 -49 -32.5 -83.5t-81.5 -34.5q-53 0 -87 42t-24 109h-20q-98 -80 -192.5 -332t-141.5 -518h272v-20h-274 q-12 -76 -12 -174v-297l163 -11v-20h-544v20l163 11v241q0 119 -14 230h-262v20h260q-41 295 -161 558t-232 352l-21 -11q72 -66 48.5 -135t-101.5 -69q-43 0 -75.5 29.5t-32.5 80.5z" />
<glyph unicode="&#xa6;" horiz-adv-x="440" d="M205 -205v737h31v-737h-31zM205 942v737h31v-737h-31z" />
<glyph unicode="&#xa7;" horiz-adv-x="1236" d="M186.5 603q57.5 122 229.5 243q-172 117 -172 301q0 123 97 215t282 92q182 0 283.5 -85t101.5 -181q0 -49 -30 -81t-73 -32q-78 0 -102 70q-23 63 28 104q41 33 115 21v20q-121 143 -323 144q-104 0 -175 -75t-71 -181q0 -39 11 -73t39 -63.5t46.5 -49t64.5 -45t60 -34 t66 -30.5l51 -23q231 -106 312 -232t23.5 -248t-229.5 -243q172 -117 172 -301q0 -123 -97 -215t-282 -92q-182 0 -283.5 85t-101.5 181q0 49 30 81t73 32q78 0 102 -70q23 -63 -28 -104q-41 -33 -115 -21v-20q121 -143 323 -144q104 0 175 75t71 181q0 39 -11 73t-39 63.5 t-46.5 49t-64.5 45t-60 34t-66 30.5l-51 23q-231 106 -312 232t-23.5 248zM294 534.5q7 -55.5 52 -106.5t100.5 -87t139.5 -75q123 -57 223 -119q78 90 109.5 168t24.5 133.5t-52 106.5t-100.5 87t-139.5 75q-123 57 -223 119q-78 -90 -109.5 -168t-24.5 -133.5z" />
<glyph unicode="&#xa8;" horiz-adv-x="1024" d="M197 1260q0 51 33.5 84.5t82.5 33.5t83 -33.5t34 -84.5q0 -49 -34 -82t-83 -33t-82.5 33t-33.5 82zM594 1260q0 51 34 84.5t83 33.5t82.5 -33.5t33.5 -84.5q0 -49 -33.5 -82t-82.5 -33t-83 33t-34 82z" />
<glyph unicode="&#xa9;" horiz-adv-x="1720" d="M123 717q0 305 216 521t521 216t521 -216t216 -521t-216 -521t-521 -216t-521 216t-216 521zM143 717q0 -299 209 -508t508 -209t508 209t209 508t-209 508t-508 209t-508 -209t-209 -508zM549 717q0 160 98 264t244 104q137 0 231 -61l6 -168h-10l-51 119 q-86 96 -176 96q-98 0 -160.5 -102.5t-62.5 -252t62.5 -252t160.5 -102.5q94 0 182 95l51 121h9l-11 -168q-94 -61 -231 -62q-145 0 -243.5 104.5t-98.5 264.5z" />
<glyph unicode="&#xaa;" horiz-adv-x="716" d="M68 635v20h581v-20h-581zM72 930q0 55 45 90t131 67l164 56v151q0 123 -119 123q-78 0 -137 -51v-12q51 0 70.5 -32t0 -64.5t-62.5 -32.5q-29 0 -48.5 19.5t-19.5 47.5q0 55 74 100.5t172 45.5q201 0 201 -160v-455h98v-12l-217 -12h-12v67h-13q-100 -68 -184 -67 q-68 0 -105.5 37t-37.5 94zM203 965q0 -49 29.5 -77t76.5 -28q53 0 103 25v245l-107 -38q-102 -35 -102 -127z" />
<glyph unicode="&#xab;" horiz-adv-x="1392" d="M199 528v41l483 379v-20l-227 -377l227 -381v-20zM711 528v41l483 379v-20l-227 -377l227 -381v-20z" />
<glyph unicode="&#xac;" horiz-adv-x="1222" d="M199 563v21h833v-404h-20v383h-813z" />
<glyph unicode="&#xad;" d="M199 532v31h749v-31h-749z" />
<glyph unicode="&#xae;" horiz-adv-x="1720" d="M123 717q0 305 216 521t521 216t521 -216t216 -521t-216 -521t-521 -216t-521 216t-216 521zM143 717q0 -299 209 -508t508 -209t508 209t209 508t-209 508t-508 209t-508 -209t-209 -508zM553 358v11l82 4v688l-82 4v10h307q115 0 176.5 -52t61.5 -138q0 -156 -168 -201 l219 -311l39 -4v-11h-174l-201 318h-68v-303l78 -4v-11h-270zM745 690h54q184 0 184 187q0 184 -156 184h-82v-371z" />
<glyph unicode="&#xaf;" horiz-adv-x="1044" d="M205 1229v31h635v-31h-635z" />
<glyph unicode="&#xb0;" horiz-adv-x="768" d="M199 1378.5q0 75.5 53 131t131 55.5t132 -55.5t54 -131t-53 -130t-133 -54.5q-78 0 -131 54.5t-53 130zM219 1378q0 -66 44 -115t120 -49q78 0 122 49.5t44 114.5q0 68 -44 117t-122 49q-76 0 -120 -49t-44 -117z" />
<glyph unicode="&#xb1;" d="M199 164v20h364v355h-364v20h364v365h21v-365h364v-20h-364v-355h364v-20h-749z" />
<glyph unicode="&#xb2;" horiz-adv-x="649" d="M102 1147v10q111 80 181.5 156t100.5 143.5t38 111.5t8 97q0 82 -38 134t-107 52q-80 0 -133 -55v-10q63 14 75 -35q12 -43 -28 -65q-14 -6 -31 -7q-23 0 -39 16.5t-16 41.5q0 51 56 94t153 43q111 0 165 -62.5t54 -142.5q0 -223 -320 -430v-10l326 6v-88h-445z" />
<glyph unicode="&#xb3;" horiz-adv-x="659" d="M102 1264q0 25 16.5 41t41.5 16q49 0 57 -47q10 -47 -35 -62q-18 -6 -41 -4v-10q76 -61 160 -61q68 0 105.5 52t37.5 140q0 76 -37.5 130t-109.5 54h-31v13h25q66 0 98.5 47t32.5 108q0 55 -33 95.5t-88 40.5q-115 0 -162 -127h-10q16 70 72.5 122t134.5 52q88 0 141 -45 t53 -117q0 -139 -194 -178v-6q102 -6 161.5 -53.5t59.5 -131.5q0 -100 -73.5 -153.5t-182.5 -53.5q-86 0 -142.5 42.5t-56.5 95.5z" />
<glyph unicode="&#xb4;" horiz-adv-x="755" d="M195 1126l159 369h211l-350 -369h-20z" />
<glyph unicode="&#xb5;" horiz-adv-x="1208" d="M-143 -352q0 53 40 81.5t89 19.5t73 -52q27 -49 7 -131q76 0 94 86t18 280v1072h-164v20l346 20h35v-790q8 -199 172 -199q63 0 115.5 33t130.5 127v789h-164v20l346 20h35v-1017h164v-21l-360 -26h-21v184h-20q-158 -184 -353 -184q-18 0 -51 4q-10 -88 -32.5 -163 t-64.5 -143.5t-112.5 -108.5t-165.5 -40q-72 0 -114.5 31t-42.5 88z" />
<glyph unicode="&#xb6;" horiz-adv-x="1413" d="M143 717q0 336 192.5 526.5t524.5 190.5h41v-1434h-41q-328 0 -522.5 199t-194.5 518zM1004 0v1434h266v-21l-236 -10v-1372l236 -11v-20h-266z" />
<glyph unicode="&#xb7;" horiz-adv-x="729" d="M193 508q0 70 51 121t120.5 51t121 -51t51.5 -121t-51.5 -121t-121 -51t-120.5 51t-51 121z" />
<glyph unicode="&#xb8;" horiz-adv-x="763" d="M199 -446l2 16q66 -16 104 -16q63 0 97 40.5t34 98.5q0 123 -108 143l6 164h20v-154q78 0 144.5 -43t66.5 -114q0 -74 -57 -117t-156 -43q-73 0 -153 25z" />
<glyph unicode="&#xb9;" horiz-adv-x="661" d="M102 1147v10l174 4v674l-153 -18v10l252 47h10v-713l174 -4v-10h-457z" />
<glyph unicode="&#xba;" horiz-adv-x="716" d="M55 1118q0 139 87 229.5t216 90.5t216.5 -90.5t87.5 -229.5t-87.5 -229t-216.5 -90t-216 90t-87 229zM68 635v20h581v-20h-581zM199 1118q0 -307 159.5 -307t159.5 307t-159.5 307t-159.5 -307z" />
<glyph unicode="&#xbb;" horiz-adv-x="1392" d="M199 150v20l225 381l-225 377v20l483 -379v-41zM711 150v20l225 381l-225 377v20l483 -379v-41z" />
<glyph unicode="&#xbc;" horiz-adv-x="1638" d="M102 737v11l174 4v673l-153 -18v10l252 47h10v-712l174 -4v-11h-457zM573 0l308 717l327 737h21l-328 -737l-307 -717h-21zM1028 164v16l338 520l78 27v-551h92v-12h-92v-164h-109v164h-307zM1047 176h288v440h-10l-278 -430v-10z" />
<glyph unicode="&#xbd;" horiz-adv-x="1638" d="M102 737v11l174 4v673l-153 -18v10l252 47h10v-712l174 -4v-11h-457zM532 0l308 717l327 737h21l-328 -737l-307 -717h-21zM1092 0v10q111 80 181 156t100 143.5t38 111.5t8 97q0 82 -38 134.5t-107 52.5q-82 0 -133 -56v-10q63 14 76 -35q12 -43 -27 -65q-14 -6 -31 -7 q-23 0 -40 16.5t-17 41.5q0 51 57.5 94t153.5 43q111 0 164 -62.5t53 -142.5q0 -223 -320 -430v-10l326 6v-88h-444z" />
<glyph unicode="&#xbe;" horiz-adv-x="1638" d="M102 854q0 25 16.5 41t41.5 16q49 0 57 -47q10 -47 -35 -61q-18 -6 -41 -4v-11q76 -61 160 -61q68 0 105.5 52t37.5 141q0 76 -37.5 130t-109.5 54h-31v12h25q66 0 98.5 47t32.5 109q0 55 -33 95t-88 40q-115 0 -162 -127h-10q16 70 72.5 122t134.5 52q88 0 141 -45 t53 -117q0 -139 -194 -178v-6q102 -6 161.5 -53t59.5 -131q0 -100 -73.5 -153.5t-182.5 -53.5q-86 0 -142.5 42t-56.5 95zM573 0l308 717l327 737h21l-328 -737l-307 -717h-21zM1028 164v16l338 520l78 27v-551h92v-12h-92v-164h-109v164h-307zM1047 176h288v440h-10 l-278 -430v-10z" />
<glyph unicode="&#xbf;" horiz-adv-x="1056" d="M117 -102q0 125 107.5 232.5t344.5 145.5l11 338h20l10 -352q-168 -49 -222 -140t-54 -218q0 -152 80 -245t223 -93q76 0 151.5 31.5t114.5 78.5v21q-111 -8 -139 72q-25 66 24 116q35 33 89 33q47 0 79.5 -32.5t32.5 -80.5q0 -106 -119.5 -191t-308.5 -85 q-209 0 -326.5 111t-117.5 258zM461 913q0 53 39 92t92 39q55 0 94 -38.5t39 -92.5q0 -55 -39 -94t-94 -39q-53 0 -92 39t-39 94z" />
<glyph unicode="&#xc0;" horiz-adv-x="1433" d="M14 0v20l211 78l393 1223l162 133l531 -1423l108 -11v-20h-545v20l183 11l-166 481h-504l-129 -414l219 -78v-20h-463zM371 1905h211l139 -369h-21zM393 537h490l-244 702h-21z" />
<glyph unicode="&#xc1;" horiz-adv-x="1433" d="M14 0v20l211 78l393 1223l162 133l531 -1423l108 -11v-20h-545v20l183 11l-166 481h-504l-129 -414l219 -78v-20h-463zM393 537h490l-244 702h-21zM680 1536l160 369h211l-351 -369h-20z" />
<glyph unicode="&#xc2;" horiz-adv-x="1433" d="M14 0v20l211 78l393 1223l162 133l531 -1423l108 -11v-20h-545v20l183 11l-166 481h-504l-129 -414l219 -78v-20h-463zM393 537h490l-244 702h-21zM440 1536l267 369h20l266 -369h-20l-256 209l-256 -209h-21z" />
<glyph unicode="&#xc3;" horiz-adv-x="1433" d="M14 0v20l211 78l393 1223l162 133l531 -1423l108 -11v-20h-545v20l183 11l-166 481h-504l-129 -414l219 -78v-20h-463zM344 1597q117 240 219 240q49 0 182.5 -58.5t186.5 -58.5q49 0 77.5 20.5t69.5 71.5l11 -10q-111 -219 -209 -219q-55 0 -189.5 58.5t-189.5 58.5 q-16 0 -28.5 -2t-25 -9.5t-19.5 -11.5t-19.5 -18t-17.5 -20.5t-19.5 -26t-18.5 -25.5zM393 537h490l-244 702h-21z" />
<glyph unicode="&#xc4;" horiz-adv-x="1433" d="M14 0v20l211 78l393 1223l162 133l531 -1423l108 -11v-20h-545v20l183 11l-166 481h-504l-129 -414l219 -78v-20h-463zM393 537h490l-244 702h-21zM401 1669q0 51 34 85t83 34t83 -34t34 -85q0 -49 -34 -82t-83 -33t-83 33t-34 82zM799 1669q0 51 33.5 85t83 34t83 -34 t33.5 -85q0 -49 -33.5 -82t-83 -33t-83 33t-33.5 82z" />
<glyph unicode="&#xc5;" horiz-adv-x="1433" d="M14 0v20l211 78l393 1223l162 133l531 -1423l108 -11v-20h-545v20l183 11l-166 481h-504l-129 -414l219 -78v-20h-463zM393 537h490l-244 702h-21zM539 1714q0 78 48 129t130 51t131 -51t49 -129t-49 -128t-131 -50q-78 0 -128 51t-50 127zM588 1714.5q0 -69.5 32.5 -114 t96.5 -44.5q66 0 97.5 44.5t31.5 113.5q0 72 -32 116t-97 44q-63 0 -96 -45t-33 -114.5z" />
<glyph unicode="&#xc6;" horiz-adv-x="1884" d="M14 0v20l246 78l651 1305l-188 10v21h1044l11 -334h-21l-155 303l-490 10v-686l356 8l84 228h21v-496h-21l-84 231l-356 9v-687l510 11l166 303h20l-20 -334h-1057v20l164 11v676h-311l-293 -609l186 -78v-20h-463zM592 727h303v561h-21z" />
<glyph unicode="&#xc7;" horiz-adv-x="1331" d="M88 717q0 322 194.5 529.5t495.5 207.5q260 0 457 -123l10 -334h-20l-103 217q-37 88 -129 154t-200 66q-221 0 -343 -183.5t-122 -533.5q0 -352 119.5 -534.5t345.5 -182.5q111 0 201.5 63.5t131.5 155.5l109 217h20l-20 -334q-190 -115 -444 -122v-134q78 0 144 -43 t66 -114q0 -74 -57 -117t-156 -43q-74 0 -153 25l2 16q66 -16 104 -16q63 0 97 40.5t34 98.5q0 123 -108 143l6 144q-311 6 -496.5 216t-185.5 521z" />
<glyph unicode="&#xc8;" horiz-adv-x="1228" d="M76 0v20l164 11v1372l-164 10v21h1036l10 -334h-20l-156 303l-489 10v-686l356 8l84 234h21v-494h-21l-84 223l-356 9v-687l510 11l166 303h20l-20 -334h-1057zM412 1905h211l139 -369h-21z" />
<glyph unicode="&#xc9;" horiz-adv-x="1228" d="M76 0v20l164 11v1372l-164 10v21h1036l10 -334h-20l-156 303l-489 10v-686l356 8l84 234h21v-494h-21l-84 223l-356 9v-687l510 11l166 303h20l-20 -334h-1057zM594 1536l160 369h211l-351 -369h-20z" />
<glyph unicode="&#xca;" horiz-adv-x="1228" d="M76 0v20l164 11v1372l-164 10v21h1036l10 -334h-20l-156 303l-489 10v-686l356 8l84 234h21v-494h-21l-84 223l-356 9v-687l510 11l166 303h20l-20 -334h-1057zM338 1536l266 369h21l266 -369h-21l-256 209l-256 -209h-20z" />
<glyph unicode="&#xcb;" horiz-adv-x="1228" d="M76 0v20l164 11v1372l-164 10v21h1036l10 -334h-20l-156 303l-489 10v-686l356 8l84 234h21v-494h-21l-84 223l-356 9v-687l510 11l166 303h20l-20 -334h-1057zM319 1669q0 51 34 85t83 34t83 -34t34 -85q0 -49 -34 -82t-83 -33t-83 33t-34 82zM717 1669q0 51 33.5 85 t83 34t83 -34t33.5 -85q0 -49 -33.5 -82t-83 -33t-83 33t-33.5 82z" />
<glyph unicode="&#xcc;" horiz-adv-x="696" d="M-12 1905h211l139 -369h-21zM76 0v20l164 11v1372l-164 10v21h545v-21l-164 -10v-1372l164 -11v-20h-545z" />
<glyph unicode="&#xcd;" horiz-adv-x="696" d="M76 0v20l164 11v1372l-164 10v21h545v-21l-164 -10v-1372l164 -11v-20h-545zM313 1536l160 369h211l-350 -369h-21z" />
<glyph unicode="&#xce;" horiz-adv-x="696" d="M72 1536l266 369h20l267 -369h-21l-256 209l-256 -209h-20zM76 0v20l164 11v1372l-164 10v21h545v-21l-164 -10v-1372l164 -11v-20h-545z" />
<glyph unicode="&#xcf;" horiz-adv-x="696" d="M33 1669q0 51 33.5 85t83 34t83 -34t33.5 -85q0 -49 -33.5 -82t-83 -33t-83 33t-33.5 82zM76 0v20l164 11v1372l-164 10v21h545v-21l-164 -10v-1372l164 -11v-20h-545zM430 1669q0 51 34 85t83 34t83 -34t34 -85q0 -49 -34 -82t-83 -33t-83 33t-34 82z" />
<glyph unicode="&#xd0;" horiz-adv-x="1515" d="M76 0v20l164 11v686h-152v20h152v666l-164 10v21h620q334 0 532.5 -191.5t198.5 -525.5q0 -317 -201.5 -517t-529.5 -200h-620zM457 20h239q164 0 280 110t164 262.5t48 324.5q0 197 -51.5 349.5t-170 249.5t-290.5 97h-219v-676h254v-20h-254v-697z" />
<glyph unicode="&#xd1;" horiz-adv-x="1495" d="M76 0v20l211 78v1305l-211 10v21h422l688 -1049h20l-8 950l-221 78v21h463v-21l-211 -78v-1345h-41l-860 1286h-21l10 -1178l222 -78v-20h-463zM412 1597q117 240 219 240q49 0 182 -58.5t186 -58.5q49 0 78 20.5t70 71.5l10 -10q-109 -219 -209 -219q-55 0 -189 58.5 t-190 58.5q-16 0 -28.5 -2t-24.5 -9.5t-19.5 -11.5t-19.5 -18t-17 -20.5t-19.5 -26t-18.5 -25.5z" />
<glyph unicode="&#xd2;" horiz-adv-x="1597" d="M88 716.5q0 317.5 208 527.5t503 210t502.5 -210t207.5 -527.5t-207.5 -527t-502.5 -209.5t-503 209.5t-208 527zM328 717q0 -336 129 -526.5t342 -190.5t342 190.5t129 526.5t-129 526.5t-342 190.5t-342 -190.5t-129 -526.5zM446 1905h211l140 -369h-21z" />
<glyph unicode="&#xd3;" horiz-adv-x="1597" d="M88 716.5q0 317.5 208 527.5t503 210t502.5 -210t207.5 -527.5t-207.5 -527t-502.5 -209.5t-503 209.5t-208 527zM328 717q0 -336 129 -526.5t342 -190.5t342 190.5t129 526.5t-129 526.5t-342 190.5t-342 -190.5t-129 -526.5zM750 1536l159 369h211l-350 -369h-20z" />
<glyph unicode="&#xd4;" horiz-adv-x="1597" d="M88 716.5q0 317.5 208 527.5t503 210t502.5 -210t207.5 -527.5t-207.5 -527t-502.5 -209.5t-503 209.5t-208 527zM328 717q0 -336 129 -526.5t342 -190.5t342 190.5t129 526.5t-129 526.5t-342 190.5t-342 -190.5t-129 -526.5zM522 1536l266 369h21l266 -369h-20 l-256 209l-256 -209h-21z" />
<glyph unicode="&#xd5;" horiz-adv-x="1597" d="M88 716.5q0 317.5 208 527.5t503 210t502.5 -210t207.5 -527.5t-207.5 -527t-502.5 -209.5t-503 209.5t-208 527zM328 717q0 -336 129 -526.5t342 -190.5t342 190.5t129 526.5t-129 526.5t-342 190.5t-342 -190.5t-129 -526.5zM426 1597q117 240 219 240 q49 0 182.5 -58.5t186.5 -58.5q49 0 77.5 20.5t69.5 71.5l10 -10q-111 -219 -208 -219q-55 0 -189.5 58.5t-189.5 58.5q-16 0 -28.5 -2t-25 -9.5t-19.5 -11.5t-19.5 -18t-17.5 -20.5t-19.5 -26t-18.5 -25.5z" />
<glyph unicode="&#xd6;" horiz-adv-x="1597" d="M88 716.5q0 317.5 208 527.5t503 210t502.5 -210t207.5 -527.5t-207.5 -527t-502.5 -209.5t-503 209.5t-208 527zM328 717q0 -336 129 -526.5t342 -190.5t342 190.5t129 526.5t-129 526.5t-342 190.5t-342 -190.5t-129 -526.5zM483 1669q0 51 34 85t83 34t83 -34t34 -85 q0 -49 -34 -82t-83 -33t-83 33t-34 82zM881 1669q0 51 33.5 85t83 34t83 -34t33.5 -85q0 -49 -33.5 -82t-83 -33t-83 33t-33.5 82z" />
<glyph unicode="&#xd7;" horiz-adv-x="1126" d="M219 227l322 322l-322 321l21 23l321 -322l324 322l22 -21l-323 -323l323 -324l-22 -20l-324 321l-321 -321z" />
<glyph unicode="&#xd8;" horiz-adv-x="1597" d="M88 717q0 317 208 527t503 210t497 -207l119 123l17 -18l-117 -123q195 -211 194 -512q0 -317 -207.5 -527t-502.5 -210q-287 0 -492 198l-121 -127l-16 19l121 125q-203 213 -203 522zM328 717q0 -238 67 -412l799 836q-59 141 -161.5 217t-233.5 76q-213 0 -342 -190.5 t-129 -526.5zM408 281q127 -281 391 -281q213 0 342 190.5t129 526.5q0 227 -66 397z" />
<glyph unicode="&#xd9;" horiz-adv-x="1556" d="M55 1413v21h545v-21l-164 -10v-897q0 -479 398 -479q195 0 305 137t110 375v796l-211 78v21h463v-21l-221 -78v-782q0 -276 -131 -424.5t-381 -148.5q-274 0 -411.5 150.5t-137.5 422.5v850zM481 1905h211l139 -369h-20z" />
<glyph unicode="&#xda;" horiz-adv-x="1556" d="M55 1413v21h545v-21l-164 -10v-897q0 -479 398 -479q195 0 305 137t110 375v796l-211 78v21h463v-21l-221 -78v-782q0 -276 -131 -424.5t-381 -148.5q-274 0 -411.5 150.5t-137.5 422.5v850zM795 1536l159 369h211l-350 -369h-20z" />
<glyph unicode="&#xdb;" horiz-adv-x="1556" d="M55 1413v21h545v-21l-164 -10v-897q0 -479 398 -479q195 0 305 137t110 375v796l-211 78v21h463v-21l-221 -78v-782q0 -276 -131 -424.5t-381 -148.5q-274 0 -411.5 150.5t-137.5 422.5v850zM553 1536l266 369h21l266 -369h-21l-256 209l-256 -209h-20z" />
<glyph unicode="&#xdc;" horiz-adv-x="1556" d="M55 1413v21h545v-21l-164 -10v-897q0 -479 398 -479q195 0 305 137t110 375v796l-211 78v21h463v-21l-221 -78v-782q0 -276 -131 -424.5t-381 -148.5q-274 0 -411.5 150.5t-137.5 422.5v850zM516 1669q0 51 34 85t83 34t83 -34t34 -85q0 -49 -34 -82t-83 -33t-83 33 t-34 82zM913 1669q0 51 34 85t83 34t83 -34t34 -85q0 -49 -34 -82t-83 -33t-83 33t-34 82z" />
<glyph unicode="&#xdd;" horiz-adv-x="1392" d="M14 1413v21h539v-21l-154 -10l385 -782h21l334 714l-203 78v21h442v-21l-200 -78l-363 -755v-549l164 -11v-20h-545v20l164 11v467l-455 905zM737 1536l160 369h211l-350 -369h-21z" />
<glyph unicode="&#xde;" horiz-adv-x="1249" d="M76 0v20l164 11v1372l-164 10v21h545v-21l-164 -10v-277h254q225 0 348 -107.5t123 -281.5q0 -176 -138.5 -303t-435.5 -127h-151v-276l164 -11v-20h-545zM457 328h137q98 0 171 35.5t111.5 94t57 124t18.5 135.5q0 68 -14 130t-46 121.5t-93.5 97.5t-143.5 40h-198v-778 z" />
<glyph unicode="&#xdf;" horiz-adv-x="1269" d="M55 0v20l144 11v962h-144v21l144 10q0 119 34.5 209t83 138t113 78t112.5 38t93 8q170 0 266 -66.5t96 -179.5q0 -57 -25.5 -104t-60 -79t-70.5 -61.5t-61.5 -64.5t-25.5 -74q0 -57 86 -118l211 -152q109 -78 138.5 -186.5t-8.5 -202.5t-129 -160.5t-208 -66.5 q-168 0 -312 71l-10 244h21l53 -113q39 -80 104.5 -131t139.5 -51q184 0 204 170q16 131 -157 266l-170 129q-37 27 -58.5 53.5t-25.5 54t-3 49t17.5 52.5t28.5 51.5t38.5 57.5t41.5 57q51 82 60 208t-41 226.5t-154 100.5q-117 0 -161 -115t-44 -336v-1024h-361z" />
<glyph unicode="&#xe0;" horiz-adv-x="1044" d="M82 199q0 92 75.5 152.5t217.5 109.5l274 92v252q0 102 -46 153.5t-152 51.5q-55 0 -122 -24.5t-108 -59.5v-21q84 2 118 -52t2 -108.5t-105 -54.5q-47 0 -80 33t-33 80q0 92 123 166.5t286 74.5q150 0 242 -63t92 -203v-758h164v-20l-360 -20h-21v112h-20 q-88 -59 -154.5 -85.5t-152.5 -26.5q-113 0 -176.5 61.5t-63.5 157.5zM193 1495h210l140 -369h-21zM299 256q0 -82 50 -128t128 -46q90 0 172 41v409l-178 -65q-94 -33 -133 -83t-39 -128z" />
<glyph unicode="&#xe1;" horiz-adv-x="1044" d="M82 199q0 92 75.5 152.5t217.5 109.5l274 92v252q0 102 -46 153.5t-152 51.5q-55 0 -122 -24.5t-108 -59.5v-21q84 2 118 -52t2 -108.5t-105 -54.5q-47 0 -80 33t-33 80q0 92 123 166.5t286 74.5q150 0 242 -63t92 -203v-758h164v-20l-360 -20h-21v112h-20 q-88 -59 -154.5 -85.5t-152.5 -26.5q-113 0 -176.5 61.5t-63.5 157.5zM299 256q0 -82 50 -128t128 -46q90 0 172 41v409l-178 -65q-94 -33 -133 -83t-39 -128zM463 1126l160 369h211l-351 -369h-20z" />
<glyph unicode="&#xe2;" horiz-adv-x="1044" d="M82 199q0 92 75.5 152.5t217.5 109.5l274 92v252q0 102 -46 153.5t-152 51.5q-55 0 -122 -24.5t-108 -59.5v-21q84 2 118 -52t2 -108.5t-105 -54.5q-47 0 -80 33t-33 80q0 92 123 166.5t286 74.5q150 0 242 -63t92 -203v-758h164v-20l-360 -20h-21v112h-20 q-88 -59 -154.5 -85.5t-152.5 -26.5q-113 0 -176.5 61.5t-63.5 157.5zM244 1126l266 369h20l267 -369h-21l-256 209l-256 -209h-20zM299 256q0 -82 50 -128t128 -46q90 0 172 41v409l-178 -65q-94 -33 -133 -83t-39 -128z" />
<glyph unicode="&#xe3;" horiz-adv-x="1044" d="M82 199q0 92 75.5 152.5t217.5 109.5l274 92v252q0 102 -46 153.5t-152 51.5q-55 0 -122 -24.5t-108 -59.5v-21q84 2 118 -52t2 -108.5t-105 -54.5q-47 0 -80 33t-33 80q0 92 123 166.5t286 74.5q150 0 242 -63t92 -203v-758h164v-20l-360 -20h-21v112h-20 q-88 -59 -154.5 -85.5t-152.5 -26.5q-113 0 -176.5 61.5t-63.5 157.5zM154 1188q117 240 219 239q49 0 182 -58t186 -58q49 0 78 20.5t70 71.5l10 -10q-109 -219 -209 -219q-55 0 -189 58t-190 58q-16 0 -28.5 -2t-24.5 -9t-19.5 -11t-19.5 -18.5t-17 -20.5t-19.5 -25.5 t-18.5 -25.5zM299 256q0 -82 50 -128t128 -46q90 0 172 41v409l-178 -65q-94 -33 -133 -83t-39 -128z" />
<glyph unicode="&#xe4;" horiz-adv-x="1044" d="M82 199q0 92 75.5 152.5t217.5 109.5l274 92v252q0 102 -46 153.5t-152 51.5q-55 0 -122 -24.5t-108 -59.5v-21q84 2 118 -52t2 -108.5t-105 -54.5q-47 0 -80 33t-33 80q0 92 123 166.5t286 74.5q150 0 242 -63t92 -203v-758h164v-20l-360 -20h-21v112h-20 q-88 -59 -154.5 -85.5t-152.5 -26.5q-113 0 -176.5 61.5t-63.5 157.5zM197 1260q0 51 33.5 84.5t82.5 33.5t83 -33.5t34 -84.5q0 -49 -34 -82t-83 -33t-82.5 33t-33.5 82zM299 256q0 -82 50 -128t128 -46q90 0 172 41v409l-178 -65q-94 -33 -133 -83t-39 -128zM594 1260 q0 51 34 84.5t83 33.5t82.5 -33.5t33.5 -84.5q0 -49 -33.5 -82t-82.5 -33t-83 33t-34 82z" />
<glyph unicode="&#xe5;" horiz-adv-x="1044" d="M82 199q0 92 75.5 152.5t217.5 109.5l274 92v252q0 102 -46 153.5t-152 51.5q-55 0 -122 -24.5t-108 -59.5v-21q84 2 118 -52t2 -108.5t-105 -54.5q-47 0 -80 33t-33 80q0 92 123 166.5t286 74.5q150 0 242 -63t92 -203v-758h164v-20l-360 -20h-21v112h-20 q-88 -59 -154.5 -85.5t-152.5 -26.5q-113 0 -176.5 61.5t-63.5 157.5zM299 256q0 -82 50 -128t128 -46q90 0 172 41v409l-178 -65q-94 -33 -133 -83t-39 -128zM326 1305q0 78 48 129t130 51t131 -51.5t49 -129t-49 -128t-131 -50.5q-78 0 -128 51.5t-50 127.5zM375 1304.5 q0 -69.5 32.5 -113.5t96.5 -44q66 0 97.5 44t31.5 114q0 72 -32 115.5t-97 43.5q-63 0 -96 -45t-33 -114.5z" />
<glyph unicode="&#xe6;" horiz-adv-x="1628" d="M82 199q0 92 75.5 152.5t217.5 109.5l274 92v252q0 102 -46 153.5t-152 51.5q-55 0 -122 -24.5t-108 -59.5v-21q84 2 118 -52t2 -108.5t-105 -54.5q-47 0 -80 33t-33 80q0 92 123 166.5t286 74.5q219 0 293 -129q145 129 342 129q61 0 118.5 -13t114 -45t90.5 -83 t51.5 -128t-3.5 -181h-672q0 -205 100.5 -337t258.5 -132q98 0 187 54t126 128h21q-33 -135 -142.5 -231t-263.5 -96q-260 0 -397 192q-162 -117 -253 -154.5t-181 -37.5q-113 0 -176.5 61.5t-63.5 157.5zM299 256q0 -82 50 -128t128 -46q123 0 268 104q-96 150 -96 346 l-178 -65q-94 -33 -133 -83t-39 -128zM870 614l447 11q39 199 -12.5 299t-147.5 100q-121 0 -198 -103.5t-89 -306.5z" />
<glyph unicode="&#xe7;" horiz-adv-x="1044" d="M68 508q0 248 157.5 392t364.5 144q172 0 269 -75.5t97 -173.5q0 -51 -32.5 -85t-79.5 -34q-86 0 -113 74q-25 68 27 114q43 39 123 29v20q-96 104 -267 105q-152 0 -241.5 -123t-89.5 -320q0 -211 101 -330.5t257 -119.5q106 0 190 53t125 129h21q-31 -133 -139.5 -229 t-257.5 -98v-134q78 0 144.5 -43t66.5 -114q0 -74 -57.5 -117t-155.5 -43q-74 0 -154 25l2 16q66 -16 104 -16q63 0 97.5 40.5t34.5 98.5q0 123 -109 143l6 144q-229 4 -360 158.5t-131 369.5z" />
<glyph unicode="&#xe8;" horiz-adv-x="1044" d="M68 508q0 248 154.5 392t361.5 144q80 0 150.5 -22.5t131 -70.5t87 -140t3.5 -217h-673q0 -205 100 -337t258 -132q98 0 187.5 54t127.5 128h21q-33 -135 -143.5 -231t-264.5 -96q-231 0 -366 154.5t-135 373.5zM256 1495h211l139 -369h-20zM287 614l446 11 q41 199 -10 299t-150 100q-121 0 -197.5 -103.5t-88.5 -306.5z" />
<glyph unicode="&#xe9;" horiz-adv-x="1044" d="M68 508q0 248 154.5 392t361.5 144q80 0 150.5 -22.5t131 -70.5t87 -140t3.5 -217h-673q0 -205 100 -337t258 -132q98 0 187.5 54t127.5 128h21q-33 -135 -143.5 -231t-264.5 -96q-231 0 -366 154.5t-135 373.5zM287 614l446 11q41 199 -10 299t-150 100 q-121 0 -197.5 -103.5t-88.5 -306.5zM485 1126l160 369h211l-350 -369h-21z" />
<glyph unicode="&#xea;" horiz-adv-x="1044" d="M68 508q0 248 154.5 392t361.5 144q80 0 150.5 -22.5t131 -70.5t87 -140t3.5 -217h-673q0 -205 100 -337t258 -132q98 0 187.5 54t127.5 128h21q-33 -135 -143.5 -231t-264.5 -96q-231 0 -366 154.5t-135 373.5zM285 1126l266 369h20l267 -369h-21l-256 209l-256 -209 h-20zM287 614l446 11q41 199 -10 299t-150 100q-121 0 -197.5 -103.5t-88.5 -306.5z" />
<glyph unicode="&#xeb;" horiz-adv-x="1044" d="M68 508q0 248 154.5 392t361.5 144q80 0 150.5 -22.5t131 -70.5t87 -140t3.5 -217h-673q0 -205 100 -337t258 -132q98 0 187.5 54t127.5 128h21q-33 -135 -143.5 -231t-264.5 -96q-231 0 -366 154.5t-135 373.5zM227 1260q0 51 34 84.5t83 33.5t83 -33.5t34 -84.5 q0 -49 -34 -82t-83 -33t-83 33t-34 82zM287 614l446 11q41 199 -10 299t-150 100q-121 0 -197.5 -103.5t-88.5 -306.5zM625 1260q0 51 33.5 84.5t83 33.5t83 -33.5t33.5 -84.5q0 -49 -33.5 -82t-83 -33t-83 33t-33.5 82z" />
<glyph unicode="&#xec;" horiz-adv-x="614" d="M-2 1495h211l139 -369h-20zM55 0v20l164 11v973h-143v20l340 20h20v-1013l164 -11v-20h-545z" />
<glyph unicode="&#xed;" horiz-adv-x="614" d="M55 0v20l164 11v973h-143v20l340 20h20v-1013l164 -11v-20h-545zM270 1126l160 369h211l-350 -369h-21z" />
<glyph unicode="&#xee;" horiz-adv-x="614" d="M49 1126l266 369h21l266 -369h-20l-256 209l-256 -209h-21zM55 0v20l164 11v973h-143v20l340 20h20v-1013l164 -11v-20h-545z" />
<glyph unicode="&#xef;" horiz-adv-x="614" d="M10 1260q0 51 34 84.5t83 33.5t83 -33.5t34 -84.5q0 -49 -34 -82t-83 -33t-83 33t-34 82zM55 0v20l164 11v973h-143v20l340 20h20v-1013l164 -11v-20h-545zM408 1260q0 51 33.5 84.5t82.5 33.5t83 -33.5t34 -84.5q0 -49 -34 -82t-83 -33t-82.5 33t-33.5 82z" />
<glyph unicode="&#xf0;" horiz-adv-x="1075" d="M68 453q0 182 107.5 308t277.5 126q166 0 299 -111l16 6q-25 295 -199 480l-221 -146l-16 25l217 141q-121 115 -283 152l4 20q178 -35 332 -135l242 158l16 -25l-231 -152q178 -127 278.5 -322.5t100.5 -430.5q0 -242 -125 -404.5t-348 -162.5q-190 0 -328.5 132 t-138.5 341zM307 430q0 -188 59.5 -309t165.5 -121q92 0 154 102.5t82 267.5t0 355q-100 113 -225 113q-111 0 -173.5 -118t-62.5 -290z" />
<glyph unicode="&#xf1;" horiz-adv-x="1269" d="M55 0v20l164 11v973h-143v20l340 20h20v-184h21q174 184 372 184q115 0 189 -74.5t74 -232.5v-706l163 -11v-20h-503v20l122 11v721q0 217 -172 217q-63 0 -119.5 -34t-146.5 -126v-778l164 -11v-20h-545zM276 1188q117 240 220 239q49 0 182 -58t186 -58q49 0 78 20.5 t70 71.5l10 -10q-109 -219 -209 -219q-55 0 -189.5 58t-189.5 58q-16 0 -28.5 -2t-24.5 -9t-19.5 -11t-19.5 -18.5t-17.5 -20.5t-19.5 -25.5t-18 -25.5z" />
<glyph unicode="&#xf2;" d="M68 512q0 231 145 381.5t360 150.5t360.5 -150.5t145.5 -381.5t-145.5 -381.5t-360.5 -150.5t-360 150.5t-145 381.5zM266 1495h211l139 -369h-20zM307 512q0 -248 67.5 -380t199 -132t199 132t67.5 380t-67.5 380t-199 132t-199 -132t-67.5 -380z" />
<glyph unicode="&#xf3;" d="M68 512q0 231 145 381.5t360 150.5t360.5 -150.5t145.5 -381.5t-145.5 -381.5t-360.5 -150.5t-360 150.5t-145 381.5zM307 512q0 -248 67.5 -380t199 -132t199 132t67.5 380t-67.5 380t-199 132t-199 -132t-67.5 -380zM516 1126l160 369h211l-350 -369h-21z" />
<glyph unicode="&#xf4;" d="M68 512q0 231 145 381.5t360 150.5t360.5 -150.5t145.5 -381.5t-145.5 -381.5t-360.5 -150.5t-360 150.5t-145 381.5zM301 1126l266 369h21l266 -369h-20l-256 209l-256 -209h-21zM307 512q0 -248 67.5 -380t199 -132t199 132t67.5 380t-67.5 380t-199 132t-199 -132 t-67.5 -380z" />
<glyph unicode="&#xf5;" d="M68 512q0 231 145 381.5t360 150.5t360.5 -150.5t145.5 -381.5t-145.5 -381.5t-360.5 -150.5t-360 150.5t-145 381.5zM203 1188q117 240 219 239q49 0 182 -58t187 -58q49 0 77.5 20.5t69.5 71.5l10 -10q-109 -219 -209 -219q-55 0 -189 58t-190 58q-16 0 -28.5 -2 t-24.5 -9t-19 -11t-19.5 -18.5t-17.5 -20.5t-19.5 -25.5t-18.5 -25.5zM307 512q0 -248 67.5 -380t199 -132t199 132t67.5 380t-67.5 380t-199 132t-199 -132t-67.5 -380z" />
<glyph unicode="&#xf6;" d="M68 512q0 231 145 381.5t360 150.5t360.5 -150.5t145.5 -381.5t-145.5 -381.5t-360.5 -150.5t-360 150.5t-145 381.5zM268 1260q0 51 34 84.5t83 33.5t83 -33.5t34 -84.5q0 -49 -34 -82t-83 -33t-83 33t-34 82zM307 512q0 -248 67.5 -380t199 -132t199 132t67.5 380 t-67.5 380t-199 132t-199 -132t-67.5 -380zM666 1260q0 51 33.5 84.5t82.5 33.5t83 -33.5t34 -84.5q0 -49 -34 -82t-83 -33t-82.5 33t-33.5 82z" />
<glyph unicode="&#xf7;" d="M199 537v20h749v-20h-749zM485 248q0 43 29 71.5t70 28.5t69.5 -28.5t28.5 -71.5q0 -41 -28.5 -68.5t-69.5 -27.5t-70 27.5t-29 68.5zM485 844q0 43 29 71.5t70 28.5t69.5 -28.5t28.5 -71.5q0 -41 -28.5 -68.5t-69.5 -27.5t-70 27.5t-29 68.5z" />
<glyph unicode="&#xf8;" d="M68 512q0 225 142 378.5t363 153.5q211 0 357 -145l114 125l13 -16l-115 -125q137 -154 137 -371q0 -225 -142 -378.5t-364 -153.5q-201 0 -340 129l-98 -109l-16 16l98 109q-149 154 -149 387zM309 438q6 -115 27 -186l475 518q-55 254 -238 254q-258 0 -264 -455 q-2 -63 0 -131zM342 227q61 -227 231 -227q266 0 267 512q0 131 -23 231z" />
<glyph unicode="&#xf9;" horiz-adv-x="1208" d="M14 1004v20l346 20h35v-772q0 -217 172 -217q63 0 115.5 33t130.5 127v789h-164v20l346 20h35v-1017h164v-21l-360 -26h-21v184h-20q-158 -184 -353 -184q-115 0 -188.5 74.5t-73.5 232.5v717h-164zM250 1495h211l139 -369h-20z" />
<glyph unicode="&#xfa;" horiz-adv-x="1208" d="M14 1004v20l346 20h35v-772q0 -217 172 -217q63 0 115.5 33t130.5 127v789h-164v20l346 20h35v-1017h164v-21l-360 -26h-21v184h-20q-158 -184 -353 -184q-115 0 -188.5 74.5t-73.5 232.5v717h-164zM512 1126l160 369h211l-351 -369h-20z" />
<glyph unicode="&#xfb;" horiz-adv-x="1208" d="M14 1004v20l346 20h35v-772q0 -217 172 -217q63 0 115.5 33t130.5 127v789h-164v20l346 20h35v-1017h164v-21l-360 -26h-21v184h-20q-158 -184 -353 -184q-115 0 -188.5 74.5t-73.5 232.5v717h-164zM289 1126l266 369h20l267 -369h-21l-256 209l-256 -209h-20z" />
<glyph unicode="&#xfc;" horiz-adv-x="1208" d="M14 1004v20l346 20h35v-772q0 -217 172 -217q63 0 115.5 33t130.5 127v789h-164v20l346 20h35v-1017h164v-21l-360 -26h-21v184h-20q-158 -184 -353 -184q-115 0 -188.5 74.5t-73.5 232.5v717h-164zM279 1260q0 51 33.5 84.5t82.5 33.5t83 -33.5t34 -84.5q0 -49 -34 -82 t-83 -33t-82.5 33t-33.5 82zM676 1260q0 51 33.5 84.5t83 33.5t83 -33.5t33.5 -84.5q0 -49 -33.5 -82t-83 -33t-83 33t-33.5 82z" />
<glyph unicode="&#xfd;" horiz-adv-x="1187" d="M14 1004v20h545v-20l-172 -11l324 -764h20l225 723l-163 52v20h381v-20l-187 -52l-340 -1054q-27 -66 -50.5 -114t-66.5 -114.5t-104 -103.5t-133 -37q-74 0 -112 32.5t-38 84.5q0 70 68 96q72 29 117 -23q43 -49 24 -149h10q63 0 141.5 104.5t125.5 239.5l-494 1079z M616 1126l160 369h211l-350 -369h-21z" />
<glyph unicode="&#xfe;" horiz-adv-x="1208" d="M14 -430l164 10v1874h-143v21l340 20h20v-567h21q131 117 295 116q197 0 313.5 -149.5t116.5 -382.5q0 -229 -132 -380.5t-333 -151.5q-145 0 -260 81h-21v-481l164 -10v-21h-545v21zM395 104q119 -80 219 -79q287 0 287 487q0 481 -287 481q-96 0 -219 -108v-781z" />
<glyph unicode="&#xff;" horiz-adv-x="1187" d="M14 1004v20h545v-20l-172 -11l324 -764h20l225 723l-163 52v20h381v-20l-187 -52l-340 -1054q-27 -66 -50.5 -114t-66.5 -114.5t-104 -103.5t-133 -37q-74 0 -112 32.5t-38 84.5q0 70 68 96q72 29 117 -23q43 -49 24 -149h10q63 0 141.5 104.5t125.5 239.5l-494 1079z M365 1260q0 51 33.5 84.5t82.5 33.5t83 -33.5t34 -84.5q0 -49 -34 -82t-83 -33t-82.5 33t-33.5 82zM762 1260q0 51 33.5 84.5t83 33.5t83 -33.5t33.5 -84.5q0 -49 -33.5 -82t-83 -33t-83 33t-33.5 82z" />
<glyph unicode="&#x152;" horiz-adv-x="1986" d="M88 716.5q0 317.5 208 527.5t503 210q78 0 149 -20h922l10 -334h-20l-156 303l-475 10v-686l342 8l84 234h20v-494h-20l-84 223l-342 9v-687l495 11l166 303h21l-21 -334h-942q-72 -20 -149 -20q-295 0 -503 209.5t-208 527zM328 717q0 -336 129 -526.5t342 -190.5 q119 0 165 80t46 252v770q0 170 -46 251t-165 81q-213 0 -342 -190.5t-129 -526.5z" />
<glyph unicode="&#x153;" horiz-adv-x="1839" d="M68 512q0 225 142 378.5t363 153.5q125 0 228.5 -54t169.5 -148q72 98 180.5 150t226.5 52q80 0 150.5 -22.5t131 -70.5t87.5 -140t4 -217h-674q2 -205 102.5 -337t258.5 -132q98 0 187 55.5t126 126.5h21q-33 -135 -142.5 -231t-263.5 -96q-260 0 -397 198 q-145 -199 -396 -198q-221 0 -363 153.5t-142 378.5zM307 512q0 -512 266.5 -512t266.5 512t-266.5 512t-266.5 -512zM1081 614l449 11q39 199 -12.5 299t-149.5 100q-121 0 -197 -103.5t-90 -306.5z" />
<glyph unicode="&#x178;" horiz-adv-x="1392" d="M14 1413v21h539v-21l-154 -10l385 -782h21l334 714l-203 78v21h442v-21l-200 -78l-363 -755v-549l164 -11v-20h-545v20l164 11v467l-455 905zM381 1669q0 51 34 85t83 34t82.5 -34t33.5 -85q0 -49 -33.5 -82t-82.5 -33t-83 33t-34 82zM778 1669q0 51 34 85t83 34t83 -34 t34 -85q0 -49 -34 -82t-83 -33t-83 33t-34 82z" />
<glyph unicode="&#x2c6;" horiz-adv-x="962" d="M205 1126l266 369h21l266 -369h-21l-256 209l-256 -209h-20z" />
<glyph unicode="&#x2dc;" horiz-adv-x="1126" d="M190 1188q117 240 220 239q49 0 182 -58t186 -58q49 0 78 20.5t70 71.5l10 -10q-109 -219 -209 -219q-55 0 -189.5 58t-189.5 58q-16 0 -28.5 -2t-24.5 -9t-19.5 -11t-19.5 -18.5t-17.5 -20.5t-19.5 -25.5t-18 -25.5z" />
<glyph unicode="&#x2000;" horiz-adv-x="952" />
<glyph unicode="&#x2001;" horiz-adv-x="1904" />
<glyph unicode="&#x2002;" horiz-adv-x="952" />
<glyph unicode="&#x2003;" horiz-adv-x="1904" />
<glyph unicode="&#x2004;" horiz-adv-x="634" />
<glyph unicode="&#x2005;" horiz-adv-x="475" />
<glyph unicode="&#x2006;" horiz-adv-x="317" />
<glyph unicode="&#x2007;" horiz-adv-x="317" />
<glyph unicode="&#x2008;" horiz-adv-x="237" />
<glyph unicode="&#x2009;" horiz-adv-x="380" />
<glyph unicode="&#x200a;" horiz-adv-x="104" />
<glyph unicode="&#x2010;" d="M199 532v31h749v-31h-749z" />
<glyph unicode="&#x2011;" d="M199 532v31h749v-31h-749z" />
<glyph unicode="&#x2012;" d="M199 532v31h749v-31h-749z" />
<glyph unicode="&#x2013;" horiz-adv-x="1249" d="M199 532v31h852v-31h-852z" />
<glyph unicode="&#x2014;" horiz-adv-x="1843" d="M199 532v31h1446v-31h-1446z" />
<glyph unicode="&#x2018;" horiz-adv-x="686" d="M199 1110q0 133 84 237.5t182 143.5l8 -21q-68 -27 -118 -85t-64.5 -116.5t34 -103.5t162.5 -45v-219q-152 -20 -220 46.5t-68 162.5z" />
<glyph unicode="&#x2019;" horiz-adv-x="686" d="M199 1243v217q152 20 220 -46t68 -163q0 -133 -84 -236.5t-182 -144.5l-8 21q68 27 118 85t64.5 117.5t-33.5 104.5t-163 45z" />
<glyph unicode="&#x201a;" horiz-adv-x="686" d="M199 35v217q152 20 220 -46.5t68 -162.5q0 -133 -84 -236.5t-182 -144.5l-8 21q68 27 118 85t64.5 117.5t-33.5 104.5t-163 45z" />
<glyph unicode="&#x201c;" horiz-adv-x="1136" d="M199 1110q0 133 84 237.5t182 143.5l8 -21q-68 -27 -118 -85t-64.5 -116.5t34 -103.5t162.5 -45v-219q-152 -20 -220 46.5t-68 162.5zM649 1110q0 133 84 237.5t182 143.5l9 -21q-68 -27 -118 -85t-64.5 -116.5t33.5 -103.5t163 -45v-219q-152 -20 -220.5 46.5 t-68.5 162.5z" />
<glyph unicode="&#x201d;" horiz-adv-x="1136" d="M199 1243v217q152 20 220 -46t68 -163q0 -133 -84 -236.5t-182 -144.5l-8 21q68 27 118 85t64.5 117.5t-33.5 104.5t-163 45zM649 1243v217q152 20 220.5 -46t68.5 -163q0 -133 -84 -236.5t-182 -144.5l-8 21q68 27 117.5 85t64 117.5t-33.5 104.5t-163 45z" />
<glyph unicode="&#x201e;" horiz-adv-x="1136" d="M199 35v217q152 20 220 -46.5t68 -162.5q0 -133 -84 -236.5t-182 -144.5l-8 21q68 27 118 85t64.5 117.5t-33.5 104.5t-163 45zM649 35v217q152 20 220.5 -46.5t68.5 -162.5q0 -133 -84 -236.5t-182 -144.5l-8 21q68 27 117.5 85t64 117.5t-33.5 104.5t-163 45z" />
<glyph unicode="&#x2022;" horiz-adv-x="813" d="M205 475q0 84 58.5 143.5t142 59.5t143 -59.5t59.5 -143.5t-59.5 -142.5t-143 -58.5t-142 58.5t-58.5 142.5z" />
<glyph unicode="&#x2026;" horiz-adv-x="1619" d="M197 102.5q0 51.5 35.5 87t87 35.5t87 -35.5t35.5 -87t-35.5 -87t-87 -35.5t-87 35.5t-35.5 87zM688 102.5q0 51.5 36 87t87 35.5t87 -35.5t36 -87t-36 -87t-87 -35.5t-87 35.5t-36 87zM1180 102.5q0 51.5 35.5 87t87 35.5t87 -35.5t35.5 -87t-35.5 -87t-87 -35.5 t-87 35.5t-35.5 87z" />
<glyph unicode="&#x202f;" horiz-adv-x="380" />
<glyph unicode="&#x2039;" horiz-adv-x="880" d="M199 528v41l483 379v-20l-227 -377l227 -381v-20z" />
<glyph unicode="&#x203a;" horiz-adv-x="880" d="M199 150v20l233 381l-233 377v20l483 -379v-41z" />
<glyph unicode="&#x205f;" horiz-adv-x="475" />
<glyph unicode="&#x20ac;" horiz-adv-x="1484" d="M117 573v21h164q-8 51 -9 123q0 57 7 112h-162v21h164q39 276 228 440t454 164q188 0 300.5 -82t112.5 -178q0 -51 -31.5 -87t-82.5 -36q-74 0 -106 57.5t3 114.5t125 57v21q-119 113 -321 113q-176 0 -298 -154t-147 -430h410v-21h-412q-4 -37 -4 -112q0 -45 4 -123h412 v-21h-410q27 -272 148.5 -422.5t296.5 -150.5q203 0 321 113v20q-90 0 -125 57.5t-3 114.5t106 57q51 0 82.5 -35.5t31.5 -86.5q0 -96 -112.5 -178t-300.5 -82q-262 0 -449.5 160.5t-230.5 432.5h-166z" />
<glyph unicode="&#x2122;" horiz-adv-x="1730" d="M119 1266l4 168h553l4 -168h-14l-58 145l-153 6v-686l82 -4v-10h-275v10l82 4v686l-154 -6l-57 -145h-14zM784 717v10l107 4v688l-107 4v11h209l228 -578h10l188 578h193v-11l-82 -4v-688l82 -4v-10h-275v10l82 4v610h-10l-207 -630h-41l-246 624h-10l6 -604l107 -4v-10 h-234z" />
<glyph unicode="&#xe000;" horiz-adv-x="1025" d="M0 1025h1025v-1025h-1025v1025z" />
<glyph unicode="&#xfb01;" horiz-adv-x="1249" d="M55 0v20l164 11v962h-151v21l151 10v41q0 193 144.5 311.5t343.5 118.5q186 0 285.5 -76t99.5 -166q0 -59 -37 -93t-88 -34q-55 0 -86 34t-31 79q0 49 42 83t122 19v21q-113 113 -303 113q-274 0 -275 -410v-41h164v-31h-164v-962l164 -11v-20h-545zM690 0v20l164 11v973 h-143v20l340 20h20v-1013l164 -11v-20h-545z" />
<glyph unicode="&#xfb02;" horiz-adv-x="1249" d="M55 0v20l164 11v962h-151v21l151 10v41q0 195 131 312.5t326 117.5q127 0 225 -72l150 72h20v-1464l164 -11v-20h-545v20l164 11v1265q0 80 -47 129.5t-131 49.5q-133 0 -186.5 -106.5t-53.5 -303.5v-41h164v-31h-164v-962l164 -11v-20h-545z" />
<glyph unicode="&#xfb03;" horiz-adv-x="1884" d="M55 0v20l164 11v962h-151v21l151 10v47q0 174 115 299t266 125q63 0 110.5 -27.5t47.5 -89.5q0 -45 -30 -75.5t-79 -30.5t-88 46t-12 140h-21q-59 0 -75.5 -83t-16.5 -249v-102h418v41q0 193 144.5 311.5t342.5 118.5q186 0 285.5 -76t99.5 -166q0 -59 -36.5 -93 t-87.5 -34q-55 0 -86 34t-31 79q0 49 42 83t122 19v21q-113 113 -303 113q-274 0 -275 -410v-41h164v-31h-164v-962l164 -11v-20h-545v20l164 11v962h-418v-962l164 -11v-20h-545zM1325 0v20l164 11v973h-143v20l340 20h20v-1013l164 -11v-20h-545z" />
<glyph unicode="&#xfb04;" horiz-adv-x="1884" d="M55 0v20l164 11v962h-151v21l151 10v47q0 174 115 299t266 125q63 0 110.5 -27.5t47.5 -89.5q0 -45 -30 -75.5t-79 -30.5t-88 46t-12 140h-21q-59 0 -75.5 -83t-16.5 -249v-102h418v41q0 195 131 312.5t326 117.5q127 0 225 -72l150 72h20v-1464l164 -11v-20h-545v20 l164 11v1265q0 80 -47 129.5t-131 49.5q-133 0 -186.5 -106.5t-53.5 -303.5v-41h164v-31h-164v-962l164 -11v-20h-545v20l164 11v962h-418v-962l164 -11v-20h-545z" />
</font>
</defs>
</svg>
