<?xml version="1.0" standalone="no"?>
<!DOCTYPE svg PUBLIC "-//W3C//DTD SVG 1.1//EN" "http://www.w3.org/Graphics/SVG/1.1/DTD/svg11.dtd" >
<svg xmlns="http://www.w3.org/2000/svg">
<metadata>
This is a custom SVG webfont generated by Font Squirrel.
Copyright   : Copyright c 2009 by Dino dos Santos DSType All rights reserved
Designer    : Dino dos Santos
Foundry     : Dino dos Santos DSType
Foundry URL : httpwwwdstypecom
</metadata>
<defs>
<font id="GlosaDisplayMediumItalic" horiz-adv-x="1146" >
<font-face units-per-em="2048" ascent="1536" descent="-512" />
<missing-glyph horiz-adv-x="471" />
<glyph unicode=" "  horiz-adv-x="471" />
<glyph unicode="&#x09;" horiz-adv-x="471" />
<glyph unicode="&#xa0;" horiz-adv-x="471" />
<glyph unicode="!" horiz-adv-x="655" d="M211 111q8 55 52 94t97 39q55 0 88 -39t27 -94q-8 -53 -53 -92t-98.5 -39t-87 39t-25.5 92zM377 410l26 1024h246l-252 -1024h-20z" />
<glyph unicode="&#x22;" horiz-adv-x="851" d="M408 1556h163l-131 -405h-12zM715 1556h164l-131 -405h-13z" />
<glyph unicode="#" d="M127 369l4 30h318l40 297h-317l4 31h318l45 320h30l-45 -320h297l45 320h31l-45 -320h319l-4 -31h-319l-41 -297h319l-4 -30h-319l-45 -318h-31l45 318h-297l-45 -318h-31l45 318h-317zM479 399h297l41 297h-297z" />
<glyph unicode="$" d="M143 254q8 51 45 86t86 35q82 0 100.5 -69.5t-40.5 -121.5q-45 -37 -115 -37l-2 -20q90 -127 301 -127q43 0 64 2l88 614q-23 12 -68 33q-168 76 -254 174.5t-65 251.5q23 166 161 271.5t342 107.5l27 184h21l-27 -184q195 -4 287 -88t77 -186q-6 -51 -42.5 -86 t-88.5 -35q-82 0 -100 69.5t41 120.5q45 37 115 37l2 21q-39 53 -114 89t-179 38l-82 -572l18 -6q391 -166 353 -453q-27 -180 -167.5 -293.5t-326.5 -127.5l-27 -187h-20l27 185h-27q-225 0 -324.5 84t-85.5 190zM473 1178q-16 -113 48.5 -182.5t183.5 -125.5l79 564 q-117 -4 -207 -71.5t-104 -184.5zM602 4q254 35 287 285q16 117 -40 190.5t-161 128.5z" />
<glyph unicode="%" horiz-adv-x="2007" d="M360 1137q20 133 121 225t232 92q125 0 198.5 -92t51.5 -225q-23 -135 -124.5 -226.5t-232.5 -91.5q-125 0 -197 93.5t-49 224.5zM469 1137q-23 -158 21.5 -226.5t127.5 -68.5q190 0 234 295q41 295 -150 295q-84 0 -148.5 -68.5t-84.5 -226.5zM694 0l789 1434h28 l-786 -1434h-31zM1245 297q20 133 121.5 225t232.5 92q125 0 198 -92t50.5 -225t-124 -225t-232.5 -92q-125 0 -197 92t-49 225zM1354 297q-43 -295 151 -295q188 0 232 295q41 295 -150 295q-84 0 -148.5 -68.5t-84.5 -226.5z" />
<glyph unicode="&#x26;" horiz-adv-x="1617" d="M193 362q27 195 378 388q-80 123 -111.5 212t-19.5 181q18 139 140 225t270 86q139 0 222 -77t65 -203q-27 -188 -359 -330l336 -498q129 160 211 391l-215 78l2 21h465l-2 -21l-223 -78q-109 -270 -226 -411l230 -295l49 -11l-2 -20h-316l-120 160q-201 -180 -414 -180 q-180 0 -282.5 103t-77.5 279zM414 420q-18 -141 44 -239.5t187 -98.5q180 0 311 96l-376 557q-135 -104 -166 -315zM657 1221q-14 -104 14.5 -181t98.5 -182q113 70 163 153t64 197q12 92 -18.5 159t-122.5 67q-90 0 -138.5 -64.5t-60.5 -148.5z" />
<glyph unicode="'" horiz-adv-x="544" d="M408 1556h163l-131 -405h-12z" />
<glyph unicode="(" horiz-adv-x="768" d="M324 604q41 291 186 597t367 550h20q-381 -528 -469 -1147q-84 -618 145 -1147h-20q-152 242 -211 549t-18 598z" />
<glyph unicode=")" horiz-adv-x="768" d="M39 -543q381 535 469 1147q84 614 -146 1147h21q152 -242 211 -549t18 -598t-186 -597t-367 -550h-20z" />
<glyph unicode="*" horiz-adv-x="905" d="M326 1163q4 23 20 37t37 14q8 0 104.5 -21.5t114.5 -21.5q-29 18 -97.5 67.5t-74.5 59.5q-31 35 8 70q41 37 72 2l96 -192q4 20 -1 120.5t-5 106.5q4 23 19.5 36t35.5 13q23 0 35 -13.5t10 -35.5q0 -10 -34.5 -109.5t-38.5 -117.5q147 188 153 192q39 35 70 0 q29 -37 -10 -72q-8 -8 -52.5 -33.5t-95.5 -56.5l-61 -37q20 0 120.5 21.5t108.5 21.5q20 0 33.5 -14t9.5 -37q-2 -20 -18.5 -34.5t-38.5 -14.5q-8 0 -103.5 18.5t-113.5 18.5q166 -115 170 -119q14 -14 11 -35.5t-22 -35.5q-39 -35 -71 0q-4 6 -94 184q-2 -18 4 -114.5 t6 -102.5q-4 -23 -20.5 -37t-37 -14t-34 14t-9.5 37q0 8 34 104t36 115q-143 -184 -147 -186q-16 -14 -38 -14.5t-36 14.5q-29 35 12 71q6 6 49 31l94 53q50 29 60 35q-20 0 -120.5 -18.5t-106.5 -18.5q-23 0 -34 14.5t-9 34.5z" />
<glyph unicode="+" d="M272 532l4 31h359l51 361h31l-51 -361h360l-4 -31h-360l-52 -358h-30l51 358h-359z" />
<glyph unicode="," horiz-adv-x="686" d="M166 -317q117 43 184 147q74 113 0 168q-47 37 -149 37l30 217q156 20 215.5 -46.5t47.5 -162.5q-20 -133 -119 -237.5t-203 -143.5z" />
<glyph unicode="-" d="M272 532l4 31h750l-4 -31h-750z" />
<glyph unicode="." horiz-adv-x="655" d="M211 111q8 55 52 94t97 39q55 0 88 -39t27 -94q-8 -53 -53 -92t-98.5 -39t-87 39t-25.5 92z" />
<glyph unicode="/" horiz-adv-x="983" d="M256 0l633 1454h41l-633 -1454h-41z" />
<glyph unicode="0" horiz-adv-x="1228" d="M201.5 451.5q-17.5 132.5 7.5 265.5q27 184 100.5 346t207.5 276.5t300 114.5t268.5 -114.5t132 -276.5t3.5 -346q-18 -135 -67.5 -263t-124.5 -235.5t-184.5 -173t-234.5 -65.5t-216 65.5t-133 169.5t-59.5 236.5zM449 717q-106 -717 165 -717q76 0 137.5 53 t104.5 155.5t72.5 224.5t52.5 284q102 717 -166 717q-102 0 -177 -99.5t-116.5 -250t-72.5 -367.5z" />
<glyph unicode="1" horiz-adv-x="860" d="M76 0l2 20l248 11l188 1347l-250 -37l2 21l455 92h20l-198 -1423l243 -11l-2 -20h-708z" />
<glyph unicode="2" horiz-adv-x="1044" d="M88 0l2 20q197 129 343.5 258.5t226 228.5t132 207.5t69 174t28.5 149.5q23 162 -37.5 266.5t-200.5 104.5q-162 0 -280 -109l-4 -20q109 25 137 -49q23 -63 -29 -121q-41 -45 -104 -45q-45 0 -75 31.5t-22 85.5q14 100 139.5 186t317.5 86q152 0 246 -65.5t121.5 -154.5 t13.5 -187q-10 -74 -46 -157t-114 -196.5t-232.5 -247t-369.5 -260.5l-2 -20l651 10l-22 -176h-889z" />
<glyph unicode="3" horiz-adv-x="1095" d="M109 256q8 49 46 81t85 32q84 0 100 -74q18 -70 -41 -119q-49 -39 -125 -29l-2 -20q33 -35 54.5 -53.5t91 -46t157.5 -27.5q135 0 225.5 104.5t112.5 280.5q23 152 -38.5 260.5t-203.5 108.5h-61l4 24h47q129 0 208 95.5t97 218.5q14 111 -39 190.5t-165 79.5 q-137 0 -218.5 -72.5t-138.5 -183.5h-20q53 139 181 243.5t279 104.5q174 0 270.5 -89t76.5 -235q-18 -131 -131 -225t-310 -131l-2 -10q205 -14 310.5 -107.5t80.5 -261.5q-29 -199 -190.5 -307t-378.5 -108q-174 0 -275 83.5t-87 192.5z" />
<glyph unicode="4" horiz-adv-x="1167" d="M121 328l4 32l823 1039l162 55l-154 -1102h185l-4 -24h-185l-45 -328h-217l45 328h-614zM162 352h577l123 881h-20l-678 -860z" />
<glyph unicode="5" horiz-adv-x="1095" d="M109 256q8 47 44.5 80t88.5 33q80 0 98 -70t-37 -119q-49 -45 -131 -37l-2 -20q115 -123 297 -123q143 0 236.5 118t117.5 292q4 59 4 117.5t-26.5 112.5t-68.5 96t-121 66.5t-183 24.5h-90l106 607h695l-29 -193h-678l-68 -393q123 29 227.5 32t174.5 -17.5t127 -57.5 t86 -84t50.5 -98.5t21.5 -103.5t-2 -95q-29 -197 -184.5 -320.5t-391.5 -123.5q-174 0 -275 85t-87 191z" />
<glyph unicode="6" horiz-adv-x="1157" d="M184 547q49 342 289 592t576 315l2 -20q-215 -45 -377 -220.5t-217 -431.5l16 -6q150 111 313 111q170 0 260.5 -126t65.5 -308q-31 -209 -187.5 -341t-346.5 -132q-223 0 -326 162.5t-68 404.5zM410.5 220q35.5 -220 173.5 -220q106 0 182 120t102 310q25 172 -21 290 t-157 118q-121 0 -241 -113q-74 -285 -38.5 -505z" />
<glyph unicode="7" horiz-adv-x="1003" d="M227 1092l60 342h862l-4 -21l-699 -1413h-204l800 1249l5 21l-736 -21l-63 -157h-21z" />
<glyph unicode="8" horiz-adv-x="1157" d="M162 367q16 111 115.5 200.5t267.5 128.5q-262 154 -232 381q25 172 170.5 274.5t319.5 102.5q164 0 267.5 -94t80.5 -256q-14 -98 -106.5 -182t-233.5 -125q176 -82 240.5 -178.5t46.5 -225.5q-27 -193 -183.5 -303t-357.5 -110q-195 0 -307.5 100.5t-87.5 286.5z M371 367q-23 -160 35.5 -263.5t179.5 -103.5q117 0 193.5 93t97.5 237q14 113 -65 197.5t-247 158.5q-76 -49 -128 -135t-66 -184zM530 1149q-8 -55 5.5 -103.5t35 -81t63.5 -64.5t75.5 -50.5t87.5 -42.5q137 102 166 323q16 127 -32 215.5t-145 88.5q-94 0 -166 -84 t-90 -201z" />
<glyph unicode="9" horiz-adv-x="1157" d="M246 981q31 211 186.5 342t345.5 131q223 0 325.5 -163t67.5 -404q-47 -342 -287.5 -592t-576.5 -315v20q213 45 375 220t217 431l-16 6q-145 -111 -314 -110q-170 0 -259 126t-64 308zM487 1004q-23 -172 22.5 -290t156.5 -118q123 0 243 113q74 285 38 505t-173 220 q-106 0 -183 -121t-104 -309z" />
<glyph unicode=":" horiz-adv-x="655" d="M227 225q8 55 51.5 94t98.5 39t88 -38.5t24 -94.5q-8 -53 -51 -92t-98 -39q-53 0 -87 39t-26 92zM307 798.5q8 53.5 52 92.5t100 39q53 0 86 -39t24 -92q-6 -53 -50 -92t-99 -39q-53 0 -87 38.5t-26 92z" />
<glyph unicode=";" horiz-adv-x="686" d="M166 -317q117 43 184 147q74 113 0 168q-47 37 -149 37l30 217q156 20 215.5 -46.5t47.5 -162.5q-20 -133 -119 -237.5t-203 -143.5zM317.5 798.5q8.5 53.5 52.5 92.5t99 39q53 0 86 -39t25 -92q-6 -53 -50.5 -92t-99.5 -39q-53 0 -87 38.5t-25.5 92z" />
<glyph unicode="&#x3c;" horiz-adv-x="983" d="M272 528l7 41l632 379l-4 -20l-520 -377l414 -381l-2 -20z" />
<glyph unicode="=" d="M252 389l4 31h750l-5 -31h-749zM293 676l4 31h750l-5 -31h-749z" />
<glyph unicode="&#x3e;" horiz-adv-x="983" d="M225 150l2 20l521 381l-414 377l4 20l526 -379l-6 -41z" />
<glyph unicode="?" horiz-adv-x="1097" d="M281 1178q14 106 146 191t318 85q209 0 312.5 -110.5t83.5 -258.5q-18 -125 -141 -232.5t-367 -145.5l-51 -297h-21l33 311q92 25 156.5 65.5t98.5 93t49 96.5t24 103q20 152 -46.5 245t-209.5 93q-76 0 -157 -31.5t-126 -78.5l-2 -21q92 6 121.5 -49t-10 -113.5 t-115.5 -58.5q-47 0 -74.5 33t-21.5 80zM395 111q8 55 52.5 94t97.5 39q55 0 88 -39t26 -94q-8 -53 -53 -92t-98 -39t-87 39t-26 92z" />
<glyph unicode="@" horiz-adv-x="1810" d="M227 350q31 231 173.5 418.5t340 287t404.5 99.5q176 0 311 -66.5t207 -209t43 -340.5q-33 -242 -183.5 -398.5t-322.5 -156.5q-78 0 -112.5 43t-30.5 108q-41 -70 -108.5 -112.5t-137.5 -42.5q-106 0 -159.5 78.5t-49.5 187t55 209.5q68 141 192 238.5t249 97.5 q63 0 100 -41t29 -105h6l176 123h21l-173 -528q-72 -215 37 -215q104 0 232.5 147t159.5 358q20 154 -17 274t-119 190.5t-186 105.5t-227 35q-176 0 -334 -112t-258.5 -290t-128.5 -379q-43 -303 69.5 -478t388.5 -175q123 0 266.5 52t258.5 134l8 -16q-266 -197 -592 -197 q-289 0 -459 193.5t-129 482.5zM771 155q3 -132 87 -132q68 0 120 48t83 126q39 92 115 338q33 86 24.5 136t-32 69.5t-56.5 19.5q-162 0 -285 -336q-59 -137 -56 -269z" />
<glyph unicode="A" horiz-adv-x="1433" d="M14 0l2 20l222 78l565 1223l180 133l332 -1423l106 -11l-2 -20h-545l3 20l184 11l-98 481h-504l-189 -414l209 -78l-2 -20h-463zM467 537h489l-143 702h-20z" />
<glyph unicode="B" horiz-adv-x="1255" d="M76 0l2 20l166 11l192 1372l-164 10l4 21h574q225 0 335 -96q91 -79 91 -201q0 -25 -4 -52q-18 -127 -149.5 -221t-342.5 -112v-4q246 -4 360 -118q98 -98 98 -213q0 -19 -3 -38q-25 -174 -162 -276.5t-362 -102.5h-635zM459 20h198q160 0 244 104.5t105 264.5q6 39 5 73 q0 107 -53 178q-70 93 -247 93h-152zM561 754h96q338 0 383 311q7 46 7 87q0 95 -36 164q-52 97 -200 97h-158z" />
<glyph unicode="C" horiz-adv-x="1331" d="M188 717q45 322 268.5 529.5t524.5 207.5q258 0 440 -123l-37 -334h-20l-72 217q-23 88 -106.5 154t-192.5 66q-221 0 -368.5 -183.5t-196.5 -533.5q-18 -122 -18 -225q0 -190 62 -309q95 -183 321 -183q111 0 210 62.5t154 156.5l139 217h21l-68 -334 q-217 -123 -475 -122q-301 0 -466 207q-129 163 -129 397q-1 64 9 133z" />
<glyph unicode="D" horiz-adv-x="1515" d="M76 0l2 20l166 11l192 1372l-164 10l4 21h621q334 0 506 -192q135 -150 135 -388q0 -65 -10 -137q-45 -317 -274.5 -517t-557.5 -200h-620zM459 20h239q125 0 230.5 62.5t177.5 165t118 222.5t64 247q13 93 13 176q0 93 -16 173q-30 153 -135.5 250t-277.5 97h-219z" />
<glyph unicode="E" horiz-adv-x="1228" d="M76 0l2 20l166 11l192 1372l-164 10l4 21h1037l-37 -334h-21l-112 303l-490 10l-96 -686l358 8l119 234h21l-70 -494h-20l-56 223l-354 9l-96 -687l512 11l209 303h20l-67 -334h-1057z" />
<glyph unicode="F" horiz-adv-x="1177" d="M76 0l2 20l166 11l192 1372l-164 10l4 21h1037l-37 -334h-21l-112 303l-490 10l-100 -727l356 8l119 234h21l-70 -494h-21l-55 223l-354 9l-88 -635l162 -11l-2 -20h-545z" />
<glyph unicode="G" horiz-adv-x="1454" d="M188 717q45 322 268.5 529.5t524.5 207.5q258 0 440 -123l-37 -334h-20l-72 217q-23 86 -107.5 153t-191.5 67q-221 0 -368.5 -183.5t-196.5 -533.5q-15 -107 -15 -201q0 -194 66 -323q98 -193 299 -193q166 0 299 92l66 471l-162 10l2 21h498l-2 -21l-117 -10l-59 -420 q-84 -57 -237 -110t-292 -53q-301 0 -466 207q-129 163 -129 397q-1 64 9 133z" />
<glyph unicode="H" horiz-adv-x="1597" d="M76 0l2 20l166 11l192 1372l-164 10l4 21h545l-4 -21l-164 -10l-94 -662h684l94 662l-163 10l4 21h544l-4 -21l-164 -10l-192 -1372l162 -11l-2 -20h-545l2 20l166 11l96 686h-684l-96 -686l162 -11l-2 -20h-545z" />
<glyph unicode="I" horiz-adv-x="696" d="M76 0l2 20l166 11l192 1372l-164 10l4 21h545l-4 -21l-164 -10l-192 -1372l162 -11l-2 -20h-545z" />
<glyph unicode="J" horiz-adv-x="798" d="M53 96q10 78 86 101q22 7 41 6q45 0 72 -37q19 -25 19 -61q0 -38 -21 -89h20q59 0 88 83t52 249l149 1055l-166 10l4 21h547l-4 -21l-164 -10l-141 -1000q-25 -174 -157 -298.5t-283 -124.5q-78 0 -114 32q-29 27 -29 66q-1 8 1 18z" />
<glyph unicode="K" horiz-adv-x="1505" d="M76 0l2 20l166 11l192 1372l-164 10l4 21h545l-4 -21l-164 -10l-94 -666h143l576 598l-217 78l4 21h524l-4 -21l-266 -78l-496 -504l504 -800l146 -11l-3 -20h-614l2 20l186 11l-411 686h-76l-96 -686l162 -11l-2 -20h-545z" />
<glyph unicode="L" horiz-adv-x="1187" d="M76 0l2 20l166 11l192 1372l-164 10l4 21h545l-4 -21l-164 -10l-194 -1383l512 11l209 303h20l-67 -334h-1057z" />
<glyph unicode="M" horiz-adv-x="1802" d="M76 0l2 20l221 78l184 1305l-211 10l4 21h433l297 -1090h20l512 1090h389l-4 -21l-164 -10l-192 -1372l162 -11l-3 -20h-544l2 20l166 11l180 1286h-21l-616 -1327h-41l-348 1274h-21l-153 -1166l211 -78l-2 -20h-463z" />
<glyph unicode="N" horiz-adv-x="1495" d="M76 0l2 20l221 78l184 1305l-211 10l4 21h422l541 -1049h21l124 950l-210 78l4 21h462l-4 -21l-221 -78l-188 -1345h-41l-680 1286h-21l-155 -1178l211 -78l-2 -20h-463z" />
<glyph unicode="O" horiz-adv-x="1597" d="M188 717q29 209 150 380t296 264t367 93q295 0 474 -210q144 -169 143 -408q0 -58 -8 -119q-45 -317 -282.5 -527t-532.5 -210t-473 209q-142 168 -143 404q0 60 9 124zM428 717q-16 -108 -16 -202q0 -196 70 -325q103 -190 316.5 -190t369 190.5t202.5 526.5 q16 108 16 201q0 196 -70 325q-103 190 -316.5 190.5t-369 -190t-202.5 -526.5z" />
<glyph unicode="P" horiz-adv-x="1249" d="M76 0l2 20l166 11l192 1372l-164 10l4 21h635q225 0 333 -108q88 -88 88 -219q0 -30 -5 -63q-12 -82 -52 -155.5t-112.5 -138t-194.5 -103.5t-276 -39h-149l-82 -577l162 -11l-2 -20h-545zM545 629h137q195 0 291 101t123 294q9 61 9 112q0 103 -36 171q-53 100 -217 106 h-199z" />
<glyph unicode="Q" horiz-adv-x="1597" d="M188 717q29 209 150 380t296 264t367 93q295 0 474 -210q144 -169 143 -408q0 -58 -8 -119q-35 -238 -185.5 -424.5t-373.5 -266.5q-125 -45 -252 -46q-99 0 -199 28v-10l916 -322l-3 -20l-249 -127l-807 543q-147 100 -223 268q-54 121 -54 264q0 55 8 113zM428 717 q-16 -108 -16 -202q0 -196 70 -325q103 -190 316.5 -190t369 190.5t202.5 526.5q16 108 16 201q0 196 -70 325q-103 190 -316.5 190.5t-369 -190t-202.5 -526.5z" />
<glyph unicode="R" horiz-adv-x="1372" d="M76 0l2 20l166 11l192 1372l-164 10l4 21h615q225 0 333 -105q88 -85 87 -216q0 -30 -4 -62q-20 -141 -149.5 -249t-340.5 -130l-2 -21q61 -6 100 -43t80 -108l252 -469l92 -11l-2 -20h-348l-321 655h-121l-86 -624l162 -11l-2 -20h-545zM551 676h137q188 0 276.5 95 t110.5 259q5 52 6 100q0 43 -5 83q-9 85 -71.5 142.5t-173.5 57.5h-178z" />
<glyph unicode="S" horiz-adv-x="1105" d="M104 -10l52 446h20l35 -143q37 -152 125 -222.5t207 -70.5q129 0 218 73.5t107 215.5q4 26 4 50q0 46 -13 85q-19 59 -71.5 102t-93.5 66.5t-112 56.5q-170 78 -257 175q-70 79 -71 195q0 27 4 56q25 168 164 273.5t348 105.5q207 0 324 -123l36 113h21l-49 -416h-21 l-39 160q-61 246 -272 246q-113 0 -209 -69t-112 -187q-4 -22 -4 -43q0 -39 13 -73q19 -52 66 -91t90 -63.5t107 -51.5q356 -151 356 -402q0 -25 -4 -51q-29 -197 -177 -310t-357 -113q-207 0 -375 149l-39 -139h-21z" />
<glyph unicode="T" horiz-adv-x="1228" d="M207 1100l59 334h1098l-37 -334h-20l-115 299l-272 10l-193 -1378l162 -11l-2 -20h-545l2 20l166 11l192 1378l-276 -10l-199 -299h-20z" />
<glyph unicode="U" horiz-adv-x="1556" d="M252 1413l4 21h545l-4 -21l-164 -10l-125 -897q-10 -71 -10 -132q0 -347 338 -347q195 0 324.5 138t162.5 374l113 796l-201 78l4 21h463l-4 -21l-232 -78l-110 -782q-39 -276 -190.5 -424.5t-401.5 -148.5q-274 0 -390 150q-88 114 -88 298q0 59 9 125l121 850z" />
<glyph unicode="V" horiz-adv-x="1433" d="M211 1413l4 21h545l-4 -21l-183 -10l250 -1188h21l516 1120l-207 78l4 21h463l-4 -21l-223 -78l-627 -1345h-117l-330 1413z" />
<glyph unicode="W" horiz-adv-x="2068" d="M211 1413l4 21h539l-4 -21l-177 -10l211 -1182h21l362 785l-69 397l-137 10l4 21h553l-5 -21l-161 -10l172 -1182h20l451 1114l-207 78l4 21h463l-4 -21l-223 -78l-551 -1345h-138l-163 960l-66 -137l-389 -823h-123l-279 1413z" />
<glyph unicode="X" horiz-adv-x="1454" d="M35 0l2 20l221 78l473 564l-309 741l-160 10l4 21h596l-4 -21l-174 -10l242 -576l397 508l-211 78l4 21h473l-4 -21l-221 -78l-426 -532l326 -772l157 -11l-2 -20h-616l2 20l192 11l-256 608l-442 -541l231 -78l-2 -20h-493z" />
<glyph unicode="Y" horiz-adv-x="1392" d="M211 1413l4 21h539l-4 -21l-154 -10l274 -782h21l434 714l-192 78l4 21h442l-4 -21l-211 -78l-469 -755l-76 -549l162 -11l-2 -20h-545l2 20l166 11l66 467l-328 905z" />
<glyph unicode="Z" horiz-adv-x="1228" d="M76 0l2 20l987 1373l2 20l-559 -10l-219 -303h-21l60 334h1005l-4 -21l-981 -1372l-2 -21l617 11l217 303h20l-78 -334h-1046z" />
<glyph unicode="[" horiz-adv-x="778" d="M115 -532l321 2283h500l-4 -20h-371l-315 -2243h370l-2 -20h-499z" />
<glyph unicode="\" horiz-adv-x="983" d="M459 1454h41l227 -1454h-41z" />
<glyph unicode="]" horiz-adv-x="778" d="M115 -532l2 20h370l316 2243h-371l4 20h500l-322 -2283h-499z" />
<glyph unicode="^" horiz-adv-x="1044" d="M344 1004l375 471h20l240 -471h-21l-256 276l-337 -276h-21z" />
<glyph unicode="_" horiz-adv-x="1249" d="M178 -133l4 31h852l-4 -31h-852z" />
<glyph unicode="`" horiz-adv-x="755" d="M399 1495h211l88 -369h-20z" />
<glyph unicode="a" horiz-adv-x="1142" d="M135 512q39 229 203 380.5t381 151.5q88 0 180 -34l180 34h21l-144 -997l19 -20l209 69v-20q-193 -96 -318 -96q-115 0 -114 101q0 27 8 62l35 142h-21q-121 -305 -348 -305q-160 0 -245 151q-58 104 -58 245q0 64 12 136zM362 512q-13 -84 -12 -154q0 -98 25 -170 q43 -123 137 -122q111 0 185.5 117.5t99.5 293.5l73 498q-70 49 -161 49q-113 0 -213.5 -145.5t-133.5 -366.5z" />
<glyph unicode="b" horiz-adv-x="1120" d="M158 86l192 1368h-190v21l393 20h20l-124 -756h20q121 305 348 305q160 0 245 -151q58 -104 58 -245q0 -64 -12 -136q-39 -229 -203 -380.5t-381 -151.5q-61 0 -167.5 26.5t-198.5 79.5zM373 49q70 -49 162 -49q111 0 212 145.5t134 366.5q13 84 12 154q0 98 -25 170 q-43 123 -137 122q-111 0 -185.5 -117.5t-99.5 -293.5z" />
<glyph unicode="c" horiz-adv-x="999" d="M131 508q35 248 209 392t381 144q166 0 238 -73q61 -62 61 -143q0 -16 -2 -33q-6 -49 -44 -84t-85 -35q-84 0 -101 72q-4 15 -3 29q0 49 44 85q38 33 95 34q16 0 34 -3l3 20q-61 104 -220 105q-152 0 -255 -123t-132 -320q-9 -61 -8 -114q0 -133 54 -217 q77 -119 231 -119q197 0 317 182h21q-51 -139 -165 -233t-265 -94q-231 0 -335 152q-80 118 -80 277q0 48 7 99z" />
<glyph unicode="d" horiz-adv-x="1142" d="M135 512q39 229 203 380.5t381 151.5q70 0 155 -26l62 436h-188v21l393 20h20l-205 -1448l19 -20l209 69v-20q-193 -96 -318 -96q-115 0 -114 101q0 27 8 62l35 142h-21q-121 -305 -348 -305q-160 0 -245 151q-58 104 -58 245q0 64 12 136zM362 512q-13 -84 -12 -154 q0 -98 25 -170q43 -123 137 -122q111 0 185.5 117.5t99.5 293.5l73 498q-70 49 -161 49q-113 0 -213.5 -145.5t-133.5 -366.5z" />
<glyph unicode="e" horiz-adv-x="989" d="M131 508q35 248 209 392t381 144q199 0 264 -126q25 -47 25 -98q0 -69 -47 -142q-106 -162 -365 -203q-73 -13 -153 -13q-48 0 -99 5q-2 -164 75 -253t210 -89q197 0 317 182h21q-51 -139 -165 -233t-265 -94q-231 0 -335 152q-80 118 -80 277q0 48 7 99zM346 487 q28 -2 54 -2q225 0 352 158q80 101 80 210q0 19 -3 38q-14 109 -102 125q-12 2 -25 2q-129 0 -224 -124t-124 -319q-4 -31 -8 -88z" />
<glyph unicode="f" horiz-adv-x="690" d="M-160 -354q4 45 39 75.5t84 30.5q29 0 54.5 -17.5t37.5 -58.5q4 -12 4 -25q0 -35 -22 -85h20q31 0 53.5 23.5t39 80t24.5 98.5t21 130l157 1095h-151l2 21l153 10l6 47q25 174 157 299t284 125q63 0 106 -28q36 -23 36 -70q0 -9 -1 -19q-6 -45 -40 -75.5t-83 -30.5 q-31 0 -55.5 17.5t-36.5 58.5q-4 12 -3 25q0 35 22 85h-21q-59 0 -88 -83t-51 -249l-15 -102h254l-4 -31h-254l-145 -1024q-27 -184 -159 -312t-285 -128q-63 0 -106 28q-35 23 -35 70q0 9 1 19z" />
<glyph unicode="g" horiz-adv-x="1126" d="M16 -236q8 72 80 131.5t176 92.5l4 18q-123 38 -122 131q0 11 2 23q8 55 62 99t161 89l4 19q-94 45 -146 127q-41 64 -41 142q0 21 3 44q20 158 155 261t318 103q139 0 258 -71q100 111 233 110q55 0 86 -30q26 -26 26 -60q0 -7 -1 -14q-10 -70 -78 -92q-21 -7 -39 -7 q-41 0 -67 35q-18 25 -19 62q0 32 14 74q-29 -4 -72.5 -31t-70.5 -59q55 -45 80 -120q17 -53 17 -107q0 -23 -3 -46q-25 -166 -152.5 -263t-312.5 -97q-98 0 -159 28q-76 -63 -77 -106q0 -33 32 -49q35 -18 104 -23l309 -26q160 -12 225 -82q51 -56 51 -136q0 -20 -3 -43 q-25 -168 -207 -265t-440 -97q-207 0 -306 63q-86 55 -85 146q-1 12 1 26zM166 -213q-3 -20 -3 -39q0 -75 51 -130q65 -69 222 -69q211 0 320.5 64.5t124.5 161.5q2 12 1 23q0 142 -239 163l-342 35q-123 -105 -135 -209zM420 684q-1 -31 -2 -58q0 -139 35 -202 q41 -76 131 -76q211 0 231 344q2 37 2 69q0 123 -31 185q-39 78 -127 78q-100 0 -164.5 -82t-74.5 -258z" />
<glyph unicode="h" horiz-adv-x="1132" d="M150 0l204 1454h-190v21l393 20h21l-152 -860h20q78 201 190 305t228 104q187 0 187 -218q0 -40 -7 -89l-98 -690l19 -20l209 69v-20q-193 -96 -322 -96q-76 0 -99 42q-15 28 -16 71q0 23 4 50l95 662q5 36 5 64q0 37 -10 60q-16 40 -69 40q-88 0 -194.5 -153.5 t-143.5 -412.5l-55 -403h-219z" />
<glyph unicode="i" horiz-adv-x="579" d="M82 928v20q193 96 321 96q76 0 100 -42q15 -28 15 -71q0 -23 -4 -50l-121 -834l19 -20l209 69v-20q-193 -96 -320 -96q-78 0 -101 40q-15 27 -16 72q0 23 4 51l121 834l-18 20zM322 1337q8 59 56 101.5t107.5 42.5t95.5 -42q29 -34 29 -80q0 -10 -2 -22q-10 -59 -57 -101 t-106.5 -42t-96.5 42q-29 33 -29 76q1 12 3 25z" />
<glyph unicode="j" horiz-adv-x="544" d="M-203 -354q8 45 42 75.5t83 30.5q29 0 53.5 -17.5t36.5 -58.5q4 -12 4 -25q0 -35 -22 -85h20q59 0 87 86t57 280l149 1045l-18 20l-209 -69v20q193 96 319 96q78 0 102 -40q15 -27 15 -72q0 -23 -4 -51l-123 -834q-35 -244 -164 -381t-288 -137q-63 0 -106 28 q-35 23 -35 70q0 9 1 19zM319 1337q8 59 55.5 101.5t107 42.5t95.5 -42q29 -34 29 -80q0 -10 -2 -22q-8 -59 -56 -101t-106 -42q-59 0 -96 42q-29 33 -29 76q0 12 2 25z" />
<glyph unicode="k" horiz-adv-x="1107" d="M158 0l202 1454h-143l4 21l342 20h21l-209 -1495h-217zM465 530q190 51 345 132t202 139v20q-15 -2 -30 -1q-95 0 -122 73q-8 22 -8 42q0 41 33 75q37 35 92 34q61 0 95 -33.5t34 -92.5q0 -168 -416 -343v-20l307 -518l152 59v-20q-178 -96 -264 -96q-74 0 -116 35.5 t-79 107.5z" />
<glyph unicode="l" horiz-adv-x="552" d="M158 1454v21l393 20h20l-204 -1448l18 -20l209 69v-20q-193 -96 -320 -96q-78 0 -101 40q-15 27 -15 72q0 23 4 51l184 1311h-188z" />
<glyph unicode="m" horiz-adv-x="1726" d="M82 928v20q193 96 317 96q115 0 116 -100q0 -28 -9 -63l-60 -246h21q78 201 189.5 305t228.5 104q186 0 185 -214q0 -43 -7 -95l-6 -53h4q78 180 180 271t217 91q187 0 187 -218q0 -40 -7 -89l-98 -690l19 -20l208 69v-20q-139 -70 -268 -90q-25 -3 -44 -3q-26 0 -44 5 q-79 10 -79 109q0 21 3 46q31 238 95 662q7 27 7 54q0 26 -6 53q-13 56 -73 57q-104 0 -206.5 -172t-129.5 -367l-59 -430h-220l113 805q4 32 4 57q0 107 -76 107q-102 0 -205.5 -172t-142.5 -453l-47 -344h-219l135 977l-18 20z" />
<glyph unicode="n" horiz-adv-x="1153" d="M82 928v20q193 96 317 96q115 0 116 -100q0 -28 -9 -63l-60 -246h21q78 201 189.5 305t228.5 104q187 0 186 -218q0 -40 -6 -89l-98 -690l18 -20l209 69v-20q-193 -96 -320 -96q-78 0 -101 40q-15 27 -15 72q0 23 4 51l94 662q5 36 5 64q0 37 -9 60q-16 40 -70 40 q-88 0 -194.5 -153.5t-143.5 -412.5l-55 -403h-219l135 977l-18 20z" />
<glyph unicode="o" horiz-adv-x="1071" d="M131 512q33 238 181.5 385t359.5 147t318 -148q81 -112 81 -274q0 -52 -8 -110q-35 -238 -182.5 -385t-358.5 -147t-318 147q-81 111 -81 274q-1 53 8 111zM369 512q-18 -124 -18 -218q0 -294 175 -294q225 0 299 512q16 121 17 213q0 299 -172 299q-227 0 -301 -512z " />
<glyph unicode="p" horiz-adv-x="1140" d="M-55 -451l4 21l162 10l196 1397l-18 20l-209 -69v20q193 96 317 96q115 0 115 -101q0 -27 -8 -62l-35 -142h20q121 305 349 305q162 0 245 -151q57 -104 58 -244q0 -65 -13 -137q-37 -227 -201.5 -379.5t-381.5 -152.5q-70 0 -156 26l-61 -426l164 -10l-3 -21h-544z M393 49q70 -49 162 -49q113 0 213 145.5t133 366.5q13 84 13 154q0 98 -25 170q-43 123 -137 122q-111 0 -185.5 -117.5t-99.5 -293.5z" />
<glyph unicode="q" horiz-adv-x="1099" d="M135 512q39 229 203 380.5t381 151.5q92 0 180 -34l180 34h21l-207 -1464l162 -10l-2 -21h-545l2 21l166 10l119 705h-21q-121 -305 -348 -305q-160 0 -245 151q-58 104 -58 245q0 64 12 136zM362 512q-13 -84 -12 -154q0 -98 25 -170q43 -123 137 -122 q111 0 185.5 117.5t99.5 293.5l73 498q-70 49 -161 49q-113 0 -213.5 -145.5t-133.5 -366.5z" />
<glyph unicode="r" horiz-adv-x="901" d="M82 928v20q193 96 317 96q115 0 116 -100q0 -28 -9 -63l-66 -287h21q80 240 180 345t197 105q63 0 97 -38q27 -31 27 -72q0 -10 -1 -21q-12 -76 -79 -105q-30 -13 -58 -13q-35 0 -67 20q-53 33 -53 107q0 8 1 16h-21q-61 -49 -137 -197.5t-105 -357.5l-53 -383h-219 l135 977l-18 20z" />
<glyph unicode="s" horiz-adv-x="888" d="M72 229q6 51 46 85t93 34q43 0 75.5 -23.5t44.5 -59.5q8 -25 7 -50q0 -12 -1 -24q-5 -38 -41 -69.5t-97 -41.5l-2 -21q59 -57 202 -57q92 0 151.5 50t74.5 132q4 21 3 40q0 64 -42 108q-55 57 -172 108q-131 55 -190 127q-46 56 -45 143q0 24 3 52q16 125 126 203.5 t276 78.5q176 0 263 -74q75 -64 75 -148q0 -14 -2 -27q-6 -49 -42 -81t-83 -32q-76 0 -111 57q-18 29 -18 59q0 29 17 59q34 60 128 69l2 20q-82 78 -229 78q-84 0 -139.5 -51t-65.5 -125q-1 -10 -1 -20q0 -123 189 -197q154 -68 226 -139q57 -57 57 -150q0 -24 -4 -49 q-18 -141 -148.5 -227t-298.5 -86q-174 0 -258 74q-72 64 -71 147q0 13 2 28z" />
<glyph unicode="t" horiz-adv-x="757" d="M152 993l2 21l151 10l234 246h20l-35 -246h287l-4 -31h-287l-106 -753q-7 -47 -8 -82q0 -53 17 -79q28 -44 97 -44q61 0 156 37l-2 -21q-156 -72 -297 -71q-189 0 -189 183q0 29 5 62l108 768h-149z" />
<glyph unicode="u" horiz-adv-x="1153" d="M82 928v20q193 96 321 96q76 0 100 -42q15 -28 15 -71q0 -23 -4 -50l-94 -662q-5 -36 -5 -64q0 -37 9 -60q16 -40 70 -40q88 0 194.5 153.5t142.5 412.5l56 403h219l-135 -977l18 -20l205 69v-20q-193 -96 -317 -96q-115 0 -116 100q0 28 9 63l59 246h-20 q-78 -201 -189.5 -305t-228.5 -104q-187 0 -186 218q0 40 6 89l98 690l-18 20z" />
<glyph unicode="v" horiz-adv-x="1060" d="M41 928v20q193 96 311 96q76 0 105.5 -36.5t48.5 -124.5l133 -740h20q16 25 68.5 109t82.5 134t73 127t72.5 146.5t48.5 133.5v20q-29 -5 -54 -4q-99 0 -131 72q-11 24 -10 47q0 40 31 78q35 39 90 38q61 0 96 -40.5t35 -102.5q0 -57 -32 -145t-92 -197.5t-112.5 -197 t-127 -207t-101.5 -164.5h-141l-219 977l-19 20z" />
<glyph unicode="w" horiz-adv-x="1675" d="M41 928v20q193 96 311 96q76 0 105.5 -36.5t48.5 -124.5l133 -740h20q16 27 62.5 99.5t74 119t66.5 116t68 128.5l-80 361l-19 20l-176 -59v20q193 96 312 96q76 0 105.5 -36.5t47.5 -124.5l133 -740h21q16 25 68.5 109t82 134t72.5 127t72.5 146.5t48.5 133.5v20 q-29 -5 -54 -4q-99 0 -130 72q-11 24 -11 47q0 40 31 78q35 39 90 38q61 0 96 -40.5t35 -102.5q0 -57 -31.5 -145t-92 -197.5t-113 -197t-127 -207t-101.5 -164.5h-141l-129 575q-47 -90 -108.5 -193.5t-138.5 -225t-97 -156.5h-141l-219 977l-19 20z" />
<glyph unicode="x" horiz-adv-x="1196" d="M45 111q12 70 71 100q31 16 61 16q28 0 56 -13q59 -28 76 -108h21q51 35 113.5 130.5t101.5 248.5l-162 473l-18 21l-185 -51v20q207 96 336 96q74 0 102.5 -33.5t53.5 -119.5l69 -242h21q176 395 375 395q59 0 93 -37q26 -29 26 -69q0 -12 -3 -25q-12 -70 -72 -100 q-32 -16 -64 -16q-28 0 -56 13q-59 28 -72 108h-20q-100 -68 -201 -324l180 -524l19 -21l170 47v-20q-205 -96 -322 -96q-41 0 -66.5 9t-43 33.5t-24.5 45t-22 67.5l-86 281h-20q-90 -236 -191.5 -336t-199.5 -100q-59 0 -93 37q-26 29 -26 69q0 12 2 25z" />
<glyph unicode="y" horiz-adv-x="1060" d="M-94 -338q10 72 82 94q23 7 42 7q46 0 74 -37q25 -30 25 -77q0 -31 -10 -69h20q61 0 158.5 87t191.5 227l-253 1073l-19 20l-176 -59v20q193 96 311 96q76 0 105.5 -36.5t48.5 -124.5l133 -740h20q16 25 68.5 109t82.5 134t73 127t72.5 146.5t48.5 133.5v20 q-29 -5 -54 -4q-99 0 -131 72q-11 24 -10 47q0 40 31 78q35 39 90 38q61 0 96 -40.5t35 -102.5q0 -133 -171 -433t-351 -558q-121 -176 -238 -278.5t-256 -102.5q-72 0 -108 40q-32 34 -32 78q0 7 1 15z" />
<glyph unicode="z" horiz-adv-x="1009" d="M41 6l780 813v21l-600 -6l-45 -95l-18 9q18 70 34.5 115.5t46 96t66.5 72t95 22.5h4q57 0 128 -32l330 -145l176 157l13 -14l-779 -813v-21l662 7l45 94l18 -8q-14 -57 -27.5 -96.5t-35 -85.5t-48 -70.5t-63.5 -41.5q-30 -14 -69 -14h-19q-51 4 -112 29l-387 156 l-183 -166z" />
<glyph unicode="{" horiz-adv-x="880" d="M176 573l2 19q137 18 189.5 71.5t87.5 180.5q23 82 25.5 309t11.5 281q14 102 55 166.5t115.5 96.5t157.5 43t210 11l-4 -20q-174 -8 -238 -29q-182 -61 -192 -297q0 -12 6 -229.5t-6 -264.5q-12 -72 -42 -127t-78 -91t-78.5 -53t-84 -37.5t-55.5 -20.5q41 -6 69.5 -13.5 t69.5 -29t65.5 -51t39 -84t6.5 -125.5q-8 -63 -71.5 -265t-67.5 -217q-12 -53 -14.5 -96t8 -73.5t24.5 -53.5t40 -36t48.5 -22.5t58 -14.5t59 -6t61.5 -3t57 -4l-2 -20q-104 0 -170 5t-131.5 21.5t-98.5 49t-48 89t-3 138.5q6 55 65.5 275t61.5 302q2 121 -36 166t-173 59z " />
<glyph unicode="|" horiz-adv-x="440" d="M174 -205l266 1884h31l-266 -1884h-31z" />
<glyph unicode="}" horiz-adv-x="880" d="M20 -532l3 20q20 2 64 4t70.5 4t68.5 9.5t69 19.5t58.5 34.5t50 53.5t33 78t16.5 106q2 20 -6.5 229.5t2.5 252.5q12 72 41.5 126t62.5 83.5t81 51t78.5 28.5t73.5 14q-4 2 -39.5 16t-57 24.5t-57.5 38t-56.5 58.5t-33 82t-5.5 110q8 55 38.5 159t64.5 207t40 128 q20 98 8 160q-4 27 -14 49t-28.5 37.5t-31 28t-43 20.5t-43 13t-50.5 8t-46 4t-50 3.5t-44 2.5l4 20q258 0 366.5 -61.5t82.5 -255.5q-8 -51 -68.5 -279.5t-63.5 -310.5q-4 -123 36 -179.5t171 -72.5l-2 -19q-141 -14 -191 -58t-83 -167q-23 -82 -25 -305t-8 -272 q-12 -82 -43 -138.5t-73 -89t-112.5 -49t-137.5 -21.5t-171 -5z" />
<glyph unicode="~" horiz-adv-x="1126" d="M285 676q150 240 252 239q41 0 188 -49t190 -49q41 0 67 14.5t60 59.5l17 -10q-141 -219 -240 -219q-49 0 -186 48t-186.5 48t-73 -16.5t-74.5 -73.5z" />
<glyph unicode="&#xa1;" horiz-adv-x="655" d="M139 -451l267 1065h20l-41 -1065h-246zM324 913q8 53 52 92t97 39t87 -38.5t28 -92.5q-10 -55 -54.5 -94t-97.5 -39t-86.5 39t-25.5 94z" />
<glyph unicode="&#xa2;" horiz-adv-x="1126" d="M180 508q33 236 196 379t363 155l27 187h31l-27 -185h6q172 0 259 -75.5t73 -173.5q-8 -51 -46 -85t-85 -34q-82 0 -100 72q-16 70 43 116q49 39 127 29l2 20q-80 104 -252 105q-20 0 -31 -2l-125 -887q37 -4 59 -4q104 0 195.5 53t142.5 129h21q-51 -133 -171 -228 t-270 -99l-24 -185h-31l25 185q-223 8 -331 160.5t-77 367.5zM403 575q-25 -178 33 -292.5t174 -147.5l125 877q-129 -25 -219 -144t-113 -293z" />
<glyph unicode="&#xa3;" horiz-adv-x="1273" d="M126 99q15 46 50 75q72 59 174 68q76 109 91.5 217t2.5 268h-176l4 21h170q-12 178 -12 190q2 131 54.5 234.5t133 162t168.5 89t175 30.5q188 0 269 -78t68 -172q-8 -51 -46 -85t-87 -34q-84 0 -100 72q-16 70 41 119q51 43 131 24l2 21q-94 113 -285 113 q-135 0 -224 -113t-79 -297q2 -35 11.5 -131t11.5 -145h266l-4 -21h-262q-16 -266 -291 -473l4 -14q92 6 207 -14.5t201 -42t167.5 -31t140 25.5t89.5 123h20q-25 -61 -45 -100t-68 -98.5t-126 -91t-180 -31.5q-82 0 -152 34.5t-109.5 77.5t-87 83t-86.5 48 q18 -244 -145 -243q-59 0 -80.5 36.5t-6.5 82.5z" />
<glyph unicode="&#xa4;" horiz-adv-x="1050" d="M160 100l180 176q-84 96 -66 234q23 141 134 233l-136 185l19 16l137 -184q100 74 215 74q113 0 193 -74l184 184l16 -16l-184 -183q90 -96 68 -235q-18 -139 -134 -234l132 -176l-21 -18l-133 178q-98 -72 -213 -72q-117 0 -195 72l-180 -178zM299 510 q-16 -121 59.5 -209t196.5 -88t222.5 88t117.5 209q18 121 -58.5 210t-197.5 89t-221.5 -89t-118.5 -210z" />
<glyph unicode="&#xa5;" horiz-adv-x="1619" d="M295 1327q8 63 66.5 95t132.5 32q61 0 124.5 -26.5t130 -93t115.5 -166t78 -263.5t23 -366h20q307 915 606 915q55 0 84 -35t23 -80q-6 -49 -44 -83.5t-87 -34.5q-53 0 -81 42t-7 109h-21q-111 -80 -239.5 -332t-214.5 -518h272l-2 -20h-275q-23 -68 -36 -174l-41 -297 l161 -11l-2 -20h-544l2 20l166 11l32 241q14 104 19 230h-262l2 20h260q2 293 -82 557t-182 353l-23 -11q61 -66 28.5 -135t-110.5 -69q-43 0 -71.5 29.5t-20.5 80.5z" />
<glyph unicode="&#xa6;" horiz-adv-x="440" d="M174 -205l105 737h30l-104 -737h-31zM336 942l104 737h31l-104 -737h-31z" />
<glyph unicode="&#xa7;" horiz-adv-x="1236" d="M199 -205q8 49 41.5 81t76.5 32q76 0 93 -66q16 -63 -39 -106q-47 -37 -121 -23l-4 -20q106 -143 305 -144q104 0 184 75t96 181q4 33 -2 65t-17 55.5t-34.5 48t-43 40t-52.5 35t-50.5 28.5t-51 25.5t-41.5 20.5q-164 80 -241 172t-67.5 185t86 184.5t218.5 181.5 q-156 115 -132 301q16 123 127 215t295 92q182 0 271.5 -85t77.5 -181q-6 -49 -41 -81t-78 -32q-76 0 -92.5 65.5t41.5 108.5q47 35 120 21l2 20q-98 143 -303 144q-104 0 -185 -75t-97 -181q-4 -33 2 -65t17 -55.5t37 -48t42 -40t52 -36t50 -27.5l52 -25q37 -18 43 -21 q162 -80 239.5 -172t67.5 -185t-86 -185.5t-217 -180.5q156 -119 129 -301q-16 -123 -127 -215t-295 -92q-182 0 -271 85t-77 181zM380 476.5q30 -66.5 86 -114t157 -96.5q106 -53 206 -119q90 90 132.5 168t43.5 133.5t-36 106.5t-88.5 87t-128.5 75q-121 61 -207 119 q-113 -113 -154 -203t-11 -156.5z" />
<glyph unicode="&#xa8;" horiz-adv-x="1024" d="M373 1259.5q6 51.5 45 85t88 33.5t77.5 -33.5t22.5 -84.5q-8 -51 -46 -83t-87 -32t-77.5 31.5t-22.5 83zM770 1260q8 51 46 84.5t89 33.5q49 0 77 -33.5t22 -84.5q-6 -49 -44 -82t-88 -33q-51 0 -79.5 32t-22.5 83z" />
<glyph unicode="&#xa9;" horiz-adv-x="1720" d="M223 717q43 305 289 521t551 216t491.5 -216t143.5 -521t-290 -521t-552 -216t-490.5 216t-142.5 521zM244 717q-43 -297 137 -507t479 -210q297 0 535.5 209t281.5 508q41 299 -139 508t-477 209q-299 0 -537.5 -210t-279.5 -507zM649 717q20 160 134 264t259 104 q137 0 224 -61l-17 -168h-10l-37 119q-70 96 -162 96q-98 0 -175 -102.5t-97 -251.5q-23 -150 25.5 -252.5t146.5 -102.5q92 0 197 95l67 121h8l-32 -168q-104 -61 -242 -62q-145 0 -228.5 104.5t-60.5 264.5z" />
<glyph unicode="&#xaa;" horiz-adv-x="716" d="M156 635l2 20h581l-2 -20h-581zM201 930q6 55 56 91t142 66l172 56l21 151q18 123 -100 123q-82 0 -144 -51l-2 -12q66 2 70 -49q4 -47 -41 -72q-18 -8 -39 -8q-29 0 -46.5 19.5t-13.5 47.5q8 55 88 100.5t179 45.5q90 0 140 -38t38 -122l-64 -455h99l-2 -12l-219 -12 h-13l10 67h-12q-109 -68 -194 -67q-68 0 -100.5 37t-24.5 94zM338 965q-8 -49 17.5 -77t72.5 -28q55 0 107 25l34 245l-112 -38q-107 -35 -119 -127z" />
<glyph unicode="&#xab;" horiz-adv-x="1392" d="M272 528l7 41l536 379l-4 -20l-281 -377l175 -381l-3 -20zM784 528l7 41l536 379l-4 -20l-281 -377l175 -381l-3 -20z" />
<glyph unicode="&#xac;" horiz-adv-x="1222" d="M276 563l5 21h833l-57 -404h-21l54 383h-814z" />
<glyph unicode="&#xad;" d="M272 532l4 31h750l-4 -31h-750z" />
<glyph unicode="&#xae;" horiz-adv-x="1720" d="M223 717q43 305 289 521t551 216t491.5 -216t143.5 -521t-290 -521t-552 -216t-490.5 216t-142.5 521zM244 717q-43 -297 137 -507t479 -210q297 0 535.5 209t281.5 508q41 299 -139 508t-477 209q-299 0 -537.5 -210t-279.5 -507zM602 358l2 11l82 4l96 688l-80 4v10 h308q115 0 169 -52t42 -138q-23 -156 -195 -201l174 -311l39 -4l-2 -11h-174l-156 318h-67l-43 -303l77 -4l-2 -11h-270zM842 690h53q182 0 211 187q23 184 -131 184h-82z" />
<glyph unicode="&#xaf;" horiz-adv-x="1044" d="M377 1229l4 31h635l-4 -31h-635z" />
<glyph unicode="&#xb0;" horiz-adv-x="768" d="M391 1378q10 78 70.5 132.5t140.5 54.5q78 0 124 -55.5t36 -131t-71.5 -130t-139.5 -54.5q-80 0 -125 54t-35 130zM412 1378q-10 -66 27.5 -115t113.5 -49q78 0 129 49.5t59 114.5q10 68 -27.5 117t-115.5 49q-76 0 -127 -49t-59 -117z" />
<glyph unicode="&#xb1;" d="M221 164l2 20h365l49 355h-365l4 20h365l51 365h21l-51 -365h364l-4 -20h-365l-49 -355h365l-2 -20h-750z" />
<glyph unicode="&#xb2;" horiz-adv-x="649" d="M262 1147l2 10q121 80 203 156t121 143.5t53 111.5t23 97q12 82 -19 134t-100 52q-82 0 -142 -55l-2 -10q61 14 70 -31q8 -41 -31 -65q-16 -10 -37 -11q-23 0 -37 16.5t-10 41.5q6 51 68.5 94t159.5 43q111 0 155.5 -62.5t34.5 -142.5q-6 -37 -23.5 -78t-56.5 -98 t-116.5 -123.5t-184.5 -130.5v-10l326 6l-12 -88h-445z" />
<glyph unicode="&#xb3;" horiz-adv-x="659" d="M279 1264q4 25 22 41t43 16q47 0 51 -43q4 -47 -41 -66q-18 -6 -43 -4l-2 -10q61 -61 152 -61q68 0 112.5 52t57.5 140q10 76 -20.5 130t-102.5 54h-31l2 13h25q66 0 105.5 47t47.5 108q8 55 -19.5 95.5t-82.5 40.5q-113 0 -178 -127h-10q27 70 90 122t139 52 q88 0 135 -45t37 -117q-20 -139 -219 -178v-6q100 -6 153.5 -53.5t40.5 -131.5q-14 -100 -95 -153.5t-189 -53.5q-86 0 -137 42.5t-43 95.5z" />
<glyph unicode="&#xb4;" horiz-adv-x="755" d="M352 1126l211 369h211l-401 -369h-21z" />
<glyph unicode="&#xb5;" horiz-adv-x="1153" d="M-199 -354q8 45 42 75.5t83 30.5q29 0 53.5 -17.5t37 -58.5t-18.5 -110h20q59 0 87 86t57 280q37 268 147 1045l-18 20l-209 -69v20q193 96 321 96q76 0 99.5 -41.5t11.5 -121.5l-94 -662q-12 -84 4 -124t70 -40q88 0 194.5 153.5t142.5 412.5l56 403h219l-135 -977 l18 -20l205 69v-20q-193 -96 -317 -96q-147 0 -107 163l59 246h-20q-78 -201 -189.5 -305t-228.5 -104h-10q-47 -213 -170 -332t-270 -119q-63 0 -105.5 28t-34.5 89z" />
<glyph unicode="&#xb6;" horiz-adv-x="1413" d="M244 717q47 336 266 526.5t551 190.5h41l-201 -1434h-41q-328 0 -494.5 199t-121.5 518zM1004 0l200 1434h266l-4 -21l-235 -10l-193 -1372l234 -11l-2 -20h-266z" />
<glyph unicode="&#xb7;" horiz-adv-x="729" d="M262 508q10 72 68.5 122t128 50t113.5 -50t34 -122t-67.5 -122t-128.5 -50q-70 0 -114 50t-34 122z" />
<glyph unicode="&#xb8;" horiz-adv-x="763" d="M135 -446l4 16q66 -16 103 -16q61 0 101 40.5t48 98.5q18 123 -88 143l31 164h20l-22 -154q78 0 139 -43t49 -114q-10 -72 -73.5 -116t-161.5 -44q-72 0 -150 25z" />
<glyph unicode="&#xb9;" horiz-adv-x="661" d="M262 1147l2 10l174 4l97 674l-158 -18l2 10l258 47h10l-100 -713l174 -4l-2 -10h-457z" />
<glyph unicode="&#xba;" horiz-adv-x="716" d="M156 635l2 20h581l-2 -20h-581zM210.5 1118q20.5 139 120 229.5t228.5 90.5t204 -90.5t54.5 -229.5t-120 -229t-228.5 -90t-204 90t-54.5 229zM354 1118q-41 -307 117 -307q162 0 203 307q45 307 -117 307q-158 0 -203 -307z" />
<glyph unicode="&#xbb;" horiz-adv-x="1392" d="M219 150l2 20l279 381l-172 377l4 20l430 -379l-6 -41zM731 150l2 20l279 381l-172 377l4 20l430 -379l-6 -41z" />
<glyph unicode="&#xbc;" horiz-adv-x="1638" d="M205 737l2 11l174 4l94 673l-156 -18l3 10l258 47h10l-101 -712l175 -4l-2 -11h-457zM573 0l408 717l430 737h21l-431 -737l-407 -717h-21zM1051 164l2 16l411 520l80 27l-76 -551h93l-2 -12h-93l-22 -164h-109l23 164h-307zM1071 176h289l59 440h-10l-338 -430v-10z" />
<glyph unicode="&#xbd;" horiz-adv-x="1638" d="M205 737l2 11l174 4l94 673l-156 -18l3 10l258 47h10l-101 -712l175 -4l-2 -11h-457zM532 0l408 717l430 737h21l-430 -737l-408 -717h-21zM1092 0v10q121 80 203.5 156t120.5 143.5t53.5 111.5t21.5 97q12 82 -18.5 134.5t-100.5 52.5q-82 0 -141 -56l-2 -10 q61 14 71 -31q8 -41 -30 -65q-16 -10 -37 -11q-23 0 -37 16.5t-12 41.5q6 51 69.5 94t159.5 43q111 0 156 -62.5t33 -142.5q-29 -221 -379 -430l-2 -10l325 6l-10 -88h-444z" />
<glyph unicode="&#xbe;" horiz-adv-x="1638" d="M221 854q4 25 22.5 41t43.5 16q45 0 51 -43q4 -47 -39 -65q-20 -8 -45 -4l-2 -11q61 -61 149 -61q68 0 114 52t58 141q10 76 -20.5 130t-101.5 54h-31l2 12h24q66 0 106 47t48 109q8 55 -19.5 95t-84.5 40q-111 0 -177 -127h-10q27 70 90.5 122t139.5 52q88 0 135 -45 t37 -117q-20 -139 -219 -178v-6q100 -6 153 -53t41 -131q-14 -100 -95 -153.5t-190 -53.5q-86 0 -137 42t-43 95zM573 0l408 717l430 737h21l-431 -737l-407 -717h-21zM1051 164l2 16l411 520l80 27l-76 -551h93l-2 -12h-93l-22 -164h-109l23 164h-307zM1071 176h289l59 440 h-10l-338 -430v-10z" />
<glyph unicode="&#xbf;" horiz-adv-x="1056" d="M100 -102q18 125 140 232.5t366 145.5l60 338h20l-41 -352q-92 -25 -155.5 -65.5t-97.5 -93t-49 -96.5t-24 -103q-20 -152 46.5 -245t209.5 -93q74 0 155 31.5t126 78.5l2 21q-92 -6 -121.5 49t10 113.5t115.5 58.5q47 0 76 -32.5t23 -80.5q-14 -106 -146.5 -191 t-320.5 -85q-209 0 -311.5 109.5t-82.5 259.5zM588 913q8 53 52 92t97 39q55 0 89 -38.5t26 -92.5q-8 -55 -52 -94t-100 -39q-53 0 -86.5 39t-25.5 94z" />
<glyph unicode="&#xc0;" horiz-adv-x="1433" d="M14 0l2 20l222 78l565 1223l180 133l332 -1423l106 -11l-2 -20h-545l3 20l184 11l-98 481h-504l-189 -414l209 -78l-2 -20h-463zM467 537h489l-143 702h-20zM637 1905h211l88 -369h-21z" />
<glyph unicode="&#xc1;" horiz-adv-x="1433" d="M14 0l2 20l222 78l565 1223l180 133l332 -1423l106 -11l-2 -20h-545l3 20l184 11l-98 481h-504l-189 -414l209 -78l-2 -20h-463zM467 537h489l-143 702h-20zM895 1536l211 369h211l-402 -369h-20z" />
<glyph unicode="&#xc2;" horiz-adv-x="1433" d="M14 0l2 20l222 78l565 1223l180 133l332 -1423l106 -11l-2 -20h-545l3 20l184 11l-98 481h-504l-189 -414l209 -78l-2 -20h-463zM467 537h489l-143 702h-20zM655 1536l318 369h20l215 -369h-20l-227 209l-285 -209h-21z" />
<glyph unicode="&#xc3;" horiz-adv-x="1433" d="M14 0l2 20l222 78l565 1223l180 133l332 -1423l106 -11l-2 -20h-545l3 20l184 11l-98 481h-504l-189 -414l209 -78l-2 -20h-463zM467 537h489l-143 702h-20zM567 1597q150 240 254 240q49 0 174 -58.5t179 -58.5q35 0 62.5 12.5t45.5 29t51 50.5l8 -10 q-141 -219 -239 -219q-55 0 -181 58.5t-182 58.5q-18 0 -34.5 -5t-26.5 -9.5t-26.5 -18.5t-22.5 -20.5t-26.5 -30t-27.5 -29.5z" />
<glyph unicode="&#xc4;" horiz-adv-x="1433" d="M14 0l2 20l222 78l565 1223l180 133l332 -1423l106 -11l-2 -20h-545l3 20l184 11l-98 481h-504l-189 -414l209 -78l-2 -20h-463zM467 537h489l-143 702h-20zM635 1669q8 51 46 85t87 34t79 -34t21.5 -85t-46.5 -83t-87 -32t-77.5 32t-22.5 83zM1032 1669q8 51 46 85 t89 34q49 0 78 -34t21 -85q-6 -49 -44 -82t-87 -33q-51 0 -80 32t-23 83z" />
<glyph unicode="&#xc5;" horiz-adv-x="1433" d="M14 0l2 20l222 78l565 1223l180 133l332 -1423l106 -11l-2 -20h-545l3 20l184 11l-98 481h-504l-189 -414l209 -78l-2 -20h-463zM467 537h489l-143 702h-20zM778 1714q10 78 66.5 129t138.5 51t123 -51t30.5 -129t-66.5 -128t-138 -50q-80 0 -122 51t-32 127z M827.5 1714.5q-10.5 -69.5 16 -114t90.5 -44.5q66 0 103.5 44.5t47.5 113.5q10 72 -15.5 116t-90.5 44q-63 0 -102 -45t-49.5 -114.5z" />
<glyph unicode="&#xc6;" horiz-adv-x="1884" d="M14 0l2 20l256 78l836 1305l-188 10l4 21h1044l-37 -334h-20l-113 303l-489 10l-97 -686l359 8l117 228h20l-70 -496h-20l-53 231l-355 9l-96 -687l512 11l209 303h20l-67 -334h-1057l2 20l166 11l94 676h-311l-379 -609l176 -78l-2 -20h-463zM692 727h303l80 561h-20z " />
<glyph unicode="&#xc7;" horiz-adv-x="1331" d="M188 717q45 322 268.5 529.5t524.5 207.5q258 0 440 -123l-37 -334h-20l-72 217q-23 88 -106.5 154t-192.5 66q-221 0 -368.5 -183.5t-196.5 -533.5q-51 -350 44 -533.5t321 -183.5q111 0 210 62.5t154 156.5l139 217h21l-68 -334q-211 -115 -463 -122l-18 -134 q78 0 139.5 -43t48.5 -114q-10 -72 -73.5 -116t-161.5 -44q-74 0 -150 25l4 16q66 -16 103 -16q61 0 101 40.5t48 98.5q18 123 -88 143l27 144q-309 6 -466 216t-112 521z" />
<glyph unicode="&#xc8;" horiz-adv-x="1228" d="M76 0l2 20l166 11l192 1372l-164 10l4 21h1037l-37 -334h-21l-112 303l-490 10l-96 -686l358 8l119 234h21l-70 -494h-20l-56 223l-354 9l-96 -687l512 11l209 303h20l-67 -334h-1057zM678 1905h211l88 -369h-21z" />
<glyph unicode="&#xc9;" horiz-adv-x="1228" d="M76 0l2 20l166 11l192 1372l-164 10l4 21h1037l-37 -334h-21l-112 303l-490 10l-96 -686l358 8l119 234h21l-70 -494h-20l-56 223l-354 9l-96 -687l512 11l209 303h20l-67 -334h-1057zM809 1536l211 369h211l-402 -369h-20z" />
<glyph unicode="&#xca;" horiz-adv-x="1228" d="M76 0l2 20l166 11l192 1372l-164 10l4 21h1037l-37 -334h-21l-112 303l-490 10l-96 -686l358 8l119 234h21l-70 -494h-20l-56 223l-354 9l-96 -687l512 11l209 303h20l-67 -334h-1057zM553 1536l317 369h21l215 -369h-21l-227 209l-285 -209h-20z" />
<glyph unicode="&#xcb;" horiz-adv-x="1228" d="M76 0l2 20l166 11l192 1372l-164 10l4 21h1037l-37 -334h-21l-112 303l-490 10l-96 -686l358 8l119 234h21l-70 -494h-20l-56 223l-354 9l-96 -687l512 11l209 303h20l-67 -334h-1057zM553 1669q8 51 46 85t87 34t79 -34t21.5 -85t-46.5 -83t-87 -32t-77.5 32t-22.5 83z M950 1669q8 51 46 85t89 34q49 0 78 -34t21 -85q-6 -49 -44 -82t-87 -33q-51 0 -80 32t-23 83z" />
<glyph unicode="&#xcc;" horiz-adv-x="696" d="M76 0l2 20l166 11l192 1372l-164 10l4 21h545l-4 -21l-164 -10l-192 -1372l162 -11l-2 -20h-545zM254 1905h211l88 -369h-21z" />
<glyph unicode="&#xcd;" horiz-adv-x="696" d="M76 0l2 20l166 11l192 1372l-164 10l4 21h545l-4 -21l-164 -10l-192 -1372l162 -11l-2 -20h-545zM528 1536l211 369h211l-401 -369h-21z" />
<glyph unicode="&#xce;" horiz-adv-x="696" d="M76 0l2 20l166 11l192 1372l-164 10l4 21h545l-4 -21l-164 -10l-192 -1372l162 -11l-2 -20h-545zM287 1536l317 369h21l215 -369h-21l-227 209l-285 -209h-20z" />
<glyph unicode="&#xcf;" horiz-adv-x="696" d="M76 0l2 20l166 11l192 1372l-164 10l4 21h545l-4 -21l-164 -10l-192 -1372l162 -11l-2 -20h-545zM266 1669q8 51 46 85t87.5 34t79 -34t21.5 -85t-46 -83t-87.5 -32t-78 32t-22.5 83zM664 1669q8 51 46 85t89 34q49 0 77.5 -34t20.5 -85q-6 -49 -44 -82t-87 -33 q-51 0 -79.5 32t-22.5 83z" />
<glyph unicode="&#xd0;" horiz-adv-x="1515" d="M76 0l2 20l166 11l96 686h-152l2 20h152l94 666l-164 10l4 21h621q334 0 506 -191.5t125 -525.5q-45 -317 -274.5 -517t-557.5 -200h-620zM459 20h239q125 0 230.5 62.5t177.5 165t118 222.5t64 247q27 197 -3 349.5t-135.5 249.5t-277.5 97h-219l-94 -676h254l-2 -20 h-254z" />
<glyph unicode="&#xd1;" horiz-adv-x="1495" d="M76 0l2 20l221 78l184 1305l-211 10l4 21h422l541 -1049h21l124 950l-210 78l4 21h462l-4 -21l-221 -78l-188 -1345h-41l-680 1286h-21l-155 -1178l211 -78l-2 -20h-463zM635 1597q150 240 254 240q49 0 174 -58.5t178 -58.5q35 0 62.5 12.5t46 29t51.5 50.5l8 -10 q-141 -219 -240 -219q-55 0 -181 58.5t-181 58.5q-18 0 -34.5 -5t-27 -9.5t-27 -18.5t-22.5 -20.5t-26.5 -30t-26.5 -29.5z" />
<glyph unicode="&#xd2;" horiz-adv-x="1597" d="M188 717q29 209 150 380t296 264t367 93q295 0 473.5 -210t135.5 -527q-45 -317 -282.5 -527t-532.5 -210t-473.5 210t-133.5 527zM428 717q-49 -336 54.5 -526.5t316.5 -190.5t368.5 190.5t202.5 526.5q49 336 -54.5 526.5t-316.5 190.5t-368.5 -190.5t-202.5 -526.5z M713 1905h211l88 -369h-21z" />
<glyph unicode="&#xd3;" horiz-adv-x="1597" d="M188 717q29 209 150 380t296 264t367 93q295 0 473.5 -210t135.5 -527q-45 -317 -282.5 -527t-532.5 -210t-473.5 210t-133.5 527zM428 717q-49 -336 54.5 -526.5t316.5 -190.5t368.5 190.5t202.5 526.5q49 336 -54.5 526.5t-316.5 190.5t-368.5 -190.5t-202.5 -526.5z M965 1536l211 369h210l-401 -369h-20z" />
<glyph unicode="&#xd4;" horiz-adv-x="1597" d="M188 717q29 209 150 380t296 264t367 93q295 0 473.5 -210t135.5 -527q-45 -317 -282.5 -527t-532.5 -210t-473.5 210t-133.5 527zM428 717q-49 -336 54.5 -526.5t316.5 -190.5t368.5 190.5t202.5 526.5q49 336 -54.5 526.5t-316.5 190.5t-368.5 -190.5t-202.5 -526.5z M737 1536l318 369h20l215 -369h-20l-228 209l-284 -209h-21z" />
<glyph unicode="&#xd5;" horiz-adv-x="1597" d="M188 717q29 209 150 380t296 264t367 93q295 0 473.5 -210t135.5 -527q-45 -317 -282.5 -527t-532.5 -210t-473.5 210t-133.5 527zM428 717q-49 -336 54.5 -526.5t316.5 -190.5t368.5 190.5t202.5 526.5q49 336 -54.5 526.5t-316.5 190.5t-368.5 -190.5t-202.5 -526.5z M649 1597q150 240 254 240q49 0 174 -58.5t178 -58.5q35 0 63 12.5t46 29t51 50.5l8 -10q-141 -219 -239 -219q-55 0 -181 58.5t-182 58.5q-18 0 -34.5 -5t-26.5 -9.5t-26.5 -18.5t-22.5 -20.5t-26.5 -30t-27.5 -29.5z" />
<glyph unicode="&#xd6;" horiz-adv-x="1597" d="M188 717q29 209 150 380t296 264t367 93q295 0 473.5 -210t135.5 -527q-45 -317 -282.5 -527t-532.5 -210t-473.5 210t-133.5 527zM428 717q-49 -336 54.5 -526.5t316.5 -190.5t368.5 190.5t202.5 526.5q49 336 -54.5 526.5t-316.5 190.5t-368.5 -190.5t-202.5 -526.5z M717 1669q8 51 46 85t87 34t78.5 -34t21.5 -85t-46 -83t-87 -32t-77.5 32t-22.5 83zM1114 1669q8 51 46 85t89 34q49 0 78 -34t21 -85q-6 -49 -44 -82t-87 -33q-51 0 -80 32t-23 83z" />
<glyph unicode="&#xd7;" horiz-adv-x="1126" d="M250 227l366 322l-276 321l25 23l276 -322l369 322l18 -21l-369 -323l279 -324l-25 -20l-278 321l-367 -321z" />
<glyph unicode="&#xd8;" horiz-adv-x="1597" d="M178 70l139 127q-174 211 -129 520q29 209 150 380t296 264t367 93q291 0 472 -207l135 123l12 -18l-135 -123q168 -211 125 -512q-45 -317 -282.5 -527t-532.5 -210q-287 0 -463 198l-139 -127zM428 717q-35 -236 10 -410l918 834q-41 141 -133.5 217t-223.5 76 q-213 0 -368.5 -190.5t-202.5 -526.5zM444 281q43 -137 134.5 -209t220.5 -72q213 0 368.5 190.5t202.5 526.5q33 231 -8 399z" />
<glyph unicode="&#xd9;" horiz-adv-x="1556" d="M252 1413l4 21h545l-4 -21l-164 -10l-125 -897q-70 -479 328 -479q195 0 324.5 138t162.5 374l113 796l-201 78l4 21h463l-4 -21l-232 -78l-110 -782q-39 -276 -190.5 -424.5t-401.5 -148.5q-274 0 -390 150.5t-79 422.5l121 850zM748 1905h210l89 -369h-21z" />
<glyph unicode="&#xda;" horiz-adv-x="1556" d="M252 1413l4 21h545l-4 -21l-164 -10l-125 -897q-70 -479 328 -479q195 0 324.5 138t162.5 374l113 796l-201 78l4 21h463l-4 -21l-232 -78l-110 -782q-39 -276 -190.5 -424.5t-401.5 -148.5q-274 0 -390 150.5t-79 422.5l121 850zM1010 1536l211 369h211l-402 -369h-20z " />
<glyph unicode="&#xdb;" horiz-adv-x="1556" d="M252 1413l4 21h545l-4 -21l-164 -10l-125 -897q-70 -479 328 -479q195 0 324.5 138t162.5 374l113 796l-201 78l4 21h463l-4 -21l-232 -78l-110 -782q-39 -276 -190.5 -424.5t-401.5 -148.5q-274 0 -390 150.5t-79 422.5l121 850zM768 1536l317 369h21l215 -369h-21 l-227 209l-285 -209h-20z" />
<glyph unicode="&#xdc;" horiz-adv-x="1556" d="M252 1413l4 21h545l-4 -21l-164 -10l-125 -897q-70 -479 328 -479q195 0 324.5 138t162.5 374l113 796l-201 78l4 21h463l-4 -21l-232 -78l-110 -782q-39 -276 -190.5 -424.5t-401.5 -148.5q-274 0 -390 150.5t-79 422.5l121 850zM750 1669q8 51 46 85t87 34t78.5 -34 t21.5 -85t-46 -83t-87 -32t-77.5 32t-22.5 83zM1147 1669q8 51 46 85t89 34q49 0 78 -34t20 -85q-6 -49 -44 -82t-87 -33q-51 0 -79.5 32t-22.5 83z" />
<glyph unicode="&#xdd;" horiz-adv-x="1392" d="M211 1413l4 21h539l-4 -21l-154 -10l274 -782h21l434 714l-192 78l4 21h442l-4 -21l-211 -78l-469 -755l-76 -549l162 -11l-2 -20h-545l2 20l166 11l66 467l-328 905zM952 1536l211 369h211l-401 -369h-21z" />
<glyph unicode="&#xde;" horiz-adv-x="1249" d="M76 0l2 20l166 11l192 1372l-164 10l4 21h545l-4 -21l-164 -10l-39 -277h254q225 0 333 -107.5t83 -281.5q-12 -82 -52 -154.5t-112.5 -136t-193.5 -101.5t-275 -38h-151l-39 -276l162 -11l-2 -20h-545zM502 328h137q186 0 288.5 116.5t125.5 272.5q12 92 -0.5 173 t-73.5 146.5t-170 69.5h-199z" />
<glyph unicode="&#xdf;" horiz-adv-x="1284" d="M-174 -354q6 45 40 75.5t83 30.5q29 0 54.5 -17.5t37.5 -58.5t-18 -110h20q59 0 88 92t66 330l141 1005h-143l2 21l145 10q16 119 63.5 209t102.5 138t123.5 78t118 38t94.5 8q170 0 258 -66.5t72 -179.5q-10 -70 -56.5 -126t-96.5 -87.5t-95 -77t-52 -92.5 q-8 -55 70 -118l189 -152q98 -78 112.5 -186.5t-37 -202.5t-153 -160.5t-217.5 -66.5q-168 0 -248 71.5t-66 169.5q8 55 50 91t96 36q72 0 109.5 -58.5t6 -126t-134.5 -85.5l-2 -21q51 -57 191 -57q78 0 143.5 44t83.5 126q33 133 -119 266l-153 129q-33 27 -50.5 53.5 t-18.5 54t3 49t24.5 52.5t37 51.5t48 57.5t48.5 57q63 82 90 207t-9 226.5t-141 101.5q-117 0 -177 -115t-91 -336l-149 -1055q-27 -184 -159 -312t-286 -128q-63 0 -105 28t-34 89z" />
<glyph unicode="&#xe0;" horiz-adv-x="1142" d="M135 512q39 229 203 380.5t381 151.5q88 0 180 -34l180 34h21l-144 -997l19 -20l209 69v-20q-193 -96 -318 -96q-145 0 -106 163l35 142h-21q-121 -305 -348 -305q-160 0 -245 151.5t-46 380.5zM362 512q-31 -201 12.5 -323.5t137.5 -122.5q111 0 185.5 117.5t99.5 293.5 l73 498q-70 49 -161 49q-113 0 -213.5 -145.5t-133.5 -366.5zM487 1495h211l88 -369h-20z" />
<glyph unicode="&#xe1;" horiz-adv-x="1142" d="M135 512q39 229 203 380.5t381 151.5q88 0 180 -34l180 34h21l-144 -997l19 -20l209 69v-20q-193 -96 -318 -96q-145 0 -106 163l35 142h-21q-121 -305 -348 -305q-160 0 -245 151.5t-46 380.5zM362 512q-31 -201 12.5 -323.5t137.5 -122.5q111 0 185.5 117.5t99.5 293.5 l73 498q-70 49 -161 49q-113 0 -213.5 -145.5t-133.5 -366.5zM705 1126l210 369h211l-401 -369h-20z" />
<glyph unicode="&#xe2;" horiz-adv-x="1142" d="M135 512q39 229 203 380.5t381 151.5q88 0 180 -34l180 34h21l-144 -997l19 -20l209 69v-20q-193 -96 -318 -96q-145 0 -106 163l35 142h-21q-121 -305 -348 -305q-160 0 -245 151.5t-46 380.5zM362 512q-31 -201 12.5 -323.5t137.5 -122.5q111 0 185.5 117.5t99.5 293.5 l73 498q-70 49 -161 49q-113 0 -213.5 -145.5t-133.5 -366.5zM483 1126l318 369h20l215 -369h-20l-228 209l-284 -209h-21z" />
<glyph unicode="&#xe3;" horiz-adv-x="1142" d="M135 512q39 229 203 380.5t381 151.5q88 0 180 -34l180 34h21l-144 -997l19 -20l209 69v-20q-193 -96 -318 -96q-145 0 -106 163l35 142h-21q-121 -305 -348 -305q-160 0 -245 151.5t-46 380.5zM362 512q-31 -201 12.5 -323.5t137.5 -122.5q111 0 185.5 117.5t99.5 293.5 l73 498q-70 49 -161 49q-113 0 -213.5 -145.5t-133.5 -366.5zM408 1188q150 240 251 239q49 0 175.5 -58t179.5 -58q35 0 62.5 12t46 28.5t51.5 51.5l8 -10q-141 -219 -240 -219q-55 0 -181 58t-181 58q-18 0 -35 -5t-27 -9t-26.5 -18.5t-22.5 -20.5t-26.5 -29.5 t-26.5 -29.5z" />
<glyph unicode="&#xe4;" horiz-adv-x="1142" d="M135 512q39 229 203 380.5t381 151.5q88 0 180 -34l180 34h21l-144 -997l19 -20l209 69v-20q-193 -96 -318 -96q-145 0 -106 163l35 142h-21q-121 -305 -348 -305q-160 0 -245 151.5t-46 380.5zM362 512q-31 -201 12.5 -323.5t137.5 -122.5q111 0 185.5 117.5t99.5 293.5 l73 498q-70 49 -161 49q-113 0 -213.5 -145.5t-133.5 -366.5zM469 1259.5q6 51.5 45 85t88 33.5t78 -33.5t22 -84.5q-8 -51 -46 -83t-87 -32t-77.5 31.5t-22.5 83zM866 1260q8 51 46 84.5t89 33.5q49 0 77 -33.5t22 -84.5q-6 -49 -44 -82t-87 -33q-51 0 -80 32t-23 83z" />
<glyph unicode="&#xe5;" horiz-adv-x="1142" d="M135 512q39 229 203 380.5t381 151.5q88 0 180 -34l180 34h21l-144 -997l19 -20l209 69v-20q-193 -96 -318 -96q-145 0 -106 163l35 142h-21q-121 -305 -348 -305q-160 0 -245 151.5t-46 380.5zM362 512q-31 -201 12.5 -323.5t137.5 -122.5q111 0 185.5 117.5t99.5 293.5 l73 498q-70 49 -161 49q-113 0 -213.5 -145.5t-133.5 -366.5zM631 1305q10 78 66.5 129t136.5 51q82 0 123.5 -51.5t31.5 -129t-66.5 -128t-138.5 -50.5q-80 0 -121.5 51.5t-31.5 127.5zM680 1304.5q-10 -69.5 16.5 -113.5t89.5 -44q66 0 104 44t48 114q10 72 -15.5 115.5 t-91.5 43.5q-63 0 -102 -45t-49 -114.5z" />
<glyph unicode="&#xe6;" horiz-adv-x="1595" d="M109 199q12 92 96 152.5t233 109.5l287 92l35 252q33 205 -168 205q-55 0 -126 -24.5t-116 -59.5l-2 -21q98 2 117 -71q14 -66 -45 -113q-37 -31 -88 -31q-47 0 -76 33t-20 80q12 92 145 166.5t297 74.5q219 0 276 -129q164 129 365 129t270 -126q61 -113 -20 -240 q-102 -160 -357 -203q-125 -20 -274 -6q6 -156 88 -250t215 -94q98 0 194.5 54t145.5 128h21q-53 -135 -176 -231t-277 -96q-258 0 -369 192q-178 -117 -275 -154.5t-188 -37.5q-113 0 -167.5 62.5t-40.5 156.5zM336 256q-12 -82 32 -128t119 -46q123 0 285 104 q-78 150 -49 346l-188 -65q-98 -33 -143.5 -83t-55.5 -128zM938 489q270 -29 416 148q98 119 84 252q-10 111 -99 129q-12 4 -28 4q-125 0 -226.5 -110.5t-136.5 -317.5q-10 -62 -10 -105z" />
<glyph unicode="&#xe7;" horiz-adv-x="999" d="M131 508q35 248 209 392t381 144q166 0 238.5 -73.5t58.5 -175.5q-6 -49 -44 -84t-85 -35q-84 0 -101 72q-16 68 41 114q49 43 129 31l3 20q-61 104 -220 105q-152 0 -255 -123t-132 -320q-31 -213 46 -331.5t231 -118.5q197 0 317 182h21q-51 -137 -162 -231t-260 -96 l-19 -134q78 0 139.5 -43t49.5 -114q-10 -74 -73.5 -117t-164.5 -43q-74 0 -149 25l6 16q61 -16 102 -16q63 0 102.5 40.5t45.5 98.5q18 123 -86 143l26 144q-225 4 -325.5 156.5t-69.5 371.5z" />
<glyph unicode="&#xe8;" horiz-adv-x="989" d="M131 508q35 248 209 392t381 144q199 0 264 -126q59 -113 -22 -240q-106 -162 -365 -203q-117 -20 -252 -8q-2 -164 75 -253t210 -89q197 0 317 182h21q-51 -139 -165 -233t-265 -94q-231 0 -335 152.5t-73 375.5zM346 487q264 -20 406 156q94 119 77 248 q-14 109 -102 125q-12 2 -25 2q-129 0 -224 -124t-124 -319q-4 -31 -8 -88zM465 1495h211l88 -369h-21z" />
<glyph unicode="&#xe9;" horiz-adv-x="989" d="M131 508q35 248 209 392t381 144q199 0 264 -126q59 -113 -22 -240q-106 -162 -365 -203q-117 -20 -252 -8q-2 -164 75 -253t210 -89q197 0 317 182h21q-51 -139 -165 -233t-265 -94q-231 0 -335 152.5t-73 375.5zM346 487q264 -20 406 156q94 119 77 248 q-14 109 -102 125q-12 2 -25 2q-129 0 -224 -124t-124 -319q-4 -31 -8 -88zM643 1126l211 369h211l-401 -369h-21z" />
<glyph unicode="&#xea;" horiz-adv-x="989" d="M131 508q35 248 209 392t381 144q199 0 264 -126q59 -113 -22 -240q-106 -162 -365 -203q-117 -20 -252 -8q-2 -164 75 -253t210 -89q197 0 317 182h21q-51 -139 -165 -233t-265 -94q-231 0 -335 152.5t-73 375.5zM346 487q264 -20 406 156q94 119 77 248 q-14 109 -102 125q-12 2 -25 2q-129 0 -224 -124t-124 -319q-4 -31 -8 -88zM442 1126l318 369h20l215 -369h-20l-227 209l-285 -209h-21z" />
<glyph unicode="&#xeb;" horiz-adv-x="989" d="M131 508q35 248 209 392t381 144q199 0 264 -126q59 -113 -22 -240q-106 -162 -365 -203q-117 -20 -252 -8q-2 -164 75 -253t210 -89q197 0 317 182h21q-51 -139 -165 -233t-265 -94q-231 0 -335 152.5t-73 375.5zM346 487q264 -20 406 156q94 119 77 248 q-14 109 -102 125q-12 2 -25 2q-129 0 -224 -124t-124 -319q-4 -31 -8 -88zM403.5 1259.5q6.5 51.5 45 85t88 33.5t78 -33.5t22.5 -84.5q-8 -51 -46 -83t-87 -32t-78 31.5t-22.5 83zM801 1260q8 51 46 84.5t89 33.5q49 0 76.5 -33.5t21.5 -84.5q-6 -49 -44 -82t-87 -33 q-51 0 -79.5 32t-22.5 83z" />
<glyph unicode="&#xec;" horiz-adv-x="579" d="M82 928v20q193 96 321 96q76 0 99.5 -41.5t11.5 -121.5l-121 -834l19 -20l209 69v-20q-193 -96 -320 -96q-78 0 -101.5 40.5t-11.5 122.5l121 834l-18 20zM160 1495h211l88 -369h-21z" />
<glyph unicode="&#xed;" horiz-adv-x="579" d="M82 928v20q193 96 321 96q76 0 99.5 -41.5t11.5 -121.5l-121 -834l19 -20l209 69v-20q-193 -96 -320 -96q-78 0 -101.5 40.5t-11.5 122.5l121 834l-18 20zM381 1126l211 369h211l-402 -369h-20z" />
<glyph unicode="&#xee;" horiz-adv-x="579" d="M82 928v20q193 96 321 96q76 0 99.5 -41.5t11.5 -121.5l-121 -834l19 -20l209 69v-20q-193 -96 -320 -96q-78 0 -101.5 40.5t-11.5 122.5l121 834l-18 20zM160 1126l317 369h21l215 -369h-21l-227 209l-285 -209h-20z" />
<glyph unicode="&#xef;" horiz-adv-x="579" d="M82 928v20q193 96 321 96q76 0 99.5 -41.5t11.5 -121.5l-121 -834l19 -20l209 69v-20q-193 -96 -320 -96q-78 0 -101.5 40.5t-11.5 122.5l121 834l-18 20zM139 1259.5q6 51.5 45 85t88.5 33.5t78 -33.5t22.5 -84.5q-8 -51 -46 -83t-87.5 -32t-78 31.5t-22.5 83zM537 1260 q8 51 46 84.5t89 33.5q49 0 76.5 -33.5t21.5 -84.5q-6 -49 -44 -82t-87 -33q-51 0 -79.5 32t-22.5 83z" />
<glyph unicode="&#xf0;" horiz-adv-x="1075" d="M131 453q25 182 150 308t294 126q168 0 285 -111l17 6q18 295 -132 480l-241 -146l-15 25l238 141q-102 115 -260 152l6 20q176 -37 313 -135l265 158l12 -25l-252 -152q160 -127 232.5 -323.5t39.5 -429.5q-35 -242 -182 -404.5t-371 -162.5q-190 0 -310 132t-89 341z M367 430q-27 -188 16 -309t149 -121q92 0 168 102.5t119 267.5t51 355q-90 113 -211 113q-111 0 -189 -119t-103 -289z" />
<glyph unicode="&#xf1;" horiz-adv-x="1153" d="M82 928v20q193 96 317 96q147 0 107 -163l-60 -246h21q78 201 189.5 305t228.5 104q221 0 180 -307l-98 -690l18 -20l209 69v-20q-193 -96 -320 -96q-78 0 -101 40.5t-11 122.5l94 662q12 84 -4 124t-70 40q-88 0 -194.5 -153.5t-143.5 -412.5l-55 -403h-219l135 977 l-18 20zM442 1188q150 240 252 239q49 0 175 -58t180 -58q35 0 62.5 12t46 28.5t50.5 51.5l9 -10q-141 -219 -240 -219q-55 0 -181 58t-182 58q-18 0 -34.5 -5t-26.5 -9t-26.5 -18.5t-22.5 -20.5t-26.5 -29.5t-26.5 -29.5z" />
<glyph unicode="&#xf2;" horiz-adv-x="1071" d="M133 512q33 238 181.5 385t359.5 147t318.5 -148t72.5 -384q-35 -238 -182.5 -385t-358.5 -147t-318.5 147t-72.5 385zM370.5 512q-73.5 -512 157.5 -512q225 0 299 512q70 512 -155 512q-228 0 -301.5 -512zM475 1495h211l88 -369h-20z" />
<glyph unicode="&#xf3;" horiz-adv-x="1071" d="M133 512q33 238 181.5 385t359.5 147t318.5 -148t72.5 -384q-35 -238 -182.5 -385t-358.5 -147t-318.5 147t-72.5 385zM370.5 512q-73.5 -512 157.5 -512q225 0 299 512q70 512 -155 512q-228 0 -301.5 -512zM674 1126l211 369h211l-402 -369h-20z" />
<glyph unicode="&#xf4;" horiz-adv-x="1071" d="M133 512q33 238 181.5 385t359.5 147t318.5 -148t72.5 -384q-35 -238 -182.5 -385t-358.5 -147t-318.5 147t-72.5 385zM370.5 512q-73.5 -512 157.5 -512q225 0 299 512q70 512 -155 512q-228 0 -301.5 -512zM459 1126l317 369h21l215 -369h-21l-227 209l-285 -209h-20z " />
<glyph unicode="&#xf5;" horiz-adv-x="1071" d="M133 512q33 238 181.5 385t359.5 147t318.5 -148t72.5 -384q-35 -238 -182.5 -385t-358.5 -147t-318.5 147t-72.5 385zM369 1188q150 240 252 239q49 0 175 -58t179 -58q35 0 62.5 12t46 28.5t51.5 51.5l8 -10q-141 -219 -240 -219q-55 0 -181 58t-181 58q-18 0 -35 -5 t-27 -9t-26.5 -18.5t-22.5 -20.5t-26.5 -29.5t-26.5 -29.5zM370.5 512q-73.5 -512 157.5 -512q225 0 299 512q70 512 -155 512q-228 0 -301.5 -512z" />
<glyph unicode="&#xf6;" horiz-adv-x="1071" d="M133 512q33 238 181.5 385t359.5 147t318.5 -148t72.5 -384q-35 -238 -182.5 -385t-358.5 -147t-318.5 147t-72.5 385zM370.5 512q-73.5 -512 157.5 -512q225 0 299 512q70 512 -155 512q-228 0 -301.5 -512zM444.5 1259.5q6.5 51.5 45 85t88 33.5t78 -33.5t22.5 -84.5 q-8 -51 -46 -83t-87 -32t-78 31.5t-22.5 83zM842 1260q8 51 46 84.5t89 33.5q49 0 76.5 -33.5t21.5 -84.5q-6 -49 -44 -82t-87 -33q-51 0 -79.5 32t-22.5 83z" />
<glyph unicode="&#xf7;" d="M272 537l4 20h750l-4 -20h-750zM520 248q4 43 37 71.5t74 28.5t65.5 -28.5t20.5 -71.5q-6 -41 -39 -68.5t-74 -27.5t-65.5 27.5t-18.5 68.5zM602 844q6 43 39 71.5t74 28.5t65.5 -28.5t18.5 -71.5q-4 -41 -37 -68.5t-74 -27.5t-65.5 27.5t-20.5 68.5z" />
<glyph unicode="&#xf8;" horiz-adv-x="1071" d="M53 16l137 129q-92 150 -59 367q33 238 181.5 385t359.5 147q209 0 315 -145l133 125l10 -16l-131 -125q94 -141 64 -371q-35 -238 -182.5 -385t-358.5 -147q-213 0 -319 147l-135 -127zM350 268q10 -268 176 -268q225 0 299 512q16 135 17 223zM350 297l492 463 q-10 264 -172 264q-227 0 -301 -512q-19 -123 -19 -215z" />
<glyph unicode="&#xf9;" horiz-adv-x="1153" d="M82 928v20q193 96 321 96q76 0 99.5 -41.5t11.5 -121.5l-94 -662q-12 -84 4 -124t70 -40q88 0 194.5 153.5t142.5 412.5l56 403h219l-135 -977l18 -20l205 69v-20q-193 -96 -317 -96q-147 0 -107 163l59 246h-20q-78 -201 -189.5 -305t-228.5 -104q-221 0 -180 307 l98 690l-18 20zM459 1495h211l88 -369h-21z" />
<glyph unicode="&#xfa;" horiz-adv-x="1153" d="M82 928v20q193 96 321 96q76 0 99.5 -41.5t11.5 -121.5l-94 -662q-12 -84 4 -124t70 -40q88 0 194.5 153.5t142.5 412.5l56 403h219l-135 -977l18 -20l205 69v-20q-193 -96 -317 -96q-147 0 -107 163l59 246h-20q-78 -201 -189.5 -305t-228.5 -104q-221 0 -180 307 l98 690l-18 20zM670 1126l211 369h211l-402 -369h-20z" />
<glyph unicode="&#xfb;" horiz-adv-x="1153" d="M82 928v20q193 96 321 96q76 0 99.5 -41.5t11.5 -121.5l-94 -662q-12 -84 4 -124t70 -40q88 0 194.5 153.5t142.5 412.5l56 403h219l-135 -977l18 -20l205 69v-20q-193 -96 -317 -96q-147 0 -107 163l59 246h-20q-78 -201 -189.5 -305t-228.5 -104q-221 0 -180 307 l98 690l-18 20zM446 1126l318 369h20l215 -369h-20l-227 209l-285 -209h-21z" />
<glyph unicode="&#xfc;" horiz-adv-x="1153" d="M82 928v20q193 96 321 96q76 0 99.5 -41.5t11.5 -121.5l-94 -662q-12 -84 4 -124t70 -40q88 0 194.5 153.5t142.5 412.5l56 403h219l-135 -977l18 -20l205 69v-20q-193 -96 -317 -96q-147 0 -107 163l59 246h-20q-78 -201 -189.5 -305t-228.5 -104q-221 0 -180 307 l98 690l-18 20zM455 1259.5q6 51.5 45 85t88 33.5t77.5 -33.5t22.5 -84.5q-8 -51 -46 -83t-87 -32t-77.5 31.5t-22.5 83zM852 1260q8 51 46 84.5t89 33.5q49 0 77 -33.5t21 -84.5q-6 -49 -43.5 -82t-87.5 -33q-51 0 -79.5 32t-22.5 83z" />
<glyph unicode="&#xfd;" horiz-adv-x="1060" d="M-94 -338q10 72 82 94q76 23 116 -30q41 -49 15 -146h20q61 0 158.5 87t191.5 227l-253 1073l-19 20l-176 -59v20q193 96 311 96q76 0 105.5 -36.5t48.5 -124.5l133 -740h20q16 25 68.5 109t82.5 134t73 127t72.5 146.5t48.5 133.5v20q-145 -23 -185 68q-29 66 21 125 q35 39 90 38q61 0 96 -40.5t35 -102.5q0 -133 -171 -433t-351 -558q-121 -176 -238 -278.5t-256 -102.5q-72 0 -108.5 40t-30.5 93zM657 1126l211 369h211l-401 -369h-21z" />
<glyph unicode="&#xfe;" horiz-adv-x="1140" d="M-55 -451l4 21l162 10l264 1874h-191v21l394 20h20l-129 -756h20q121 305 349 305q162 0 245.5 -151.5t44.5 -380.5q-37 -227 -201.5 -379.5t-381.5 -152.5q-70 0 -156 26l-61 -426l164 -10l-3 -21h-544zM393 49q70 -49 162 -49q113 0 213 145.5t133 366.5 q31 201 -12 323.5t-137 122.5q-111 0 -185.5 -117.5t-99.5 -293.5z" />
<glyph unicode="&#xff;" horiz-adv-x="1060" d="M-94 -338q10 72 82 94q76 23 116 -30q41 -49 15 -146h20q61 0 158.5 87t191.5 227l-253 1073l-19 20l-176 -59v20q193 96 311 96q76 0 105.5 -36.5t48.5 -124.5l133 -740h20q16 25 68.5 109t82.5 134t73 127t72.5 146.5t48.5 133.5v20q-145 -23 -185 68q-29 66 21 125 q35 39 90 38q61 0 96 -40.5t35 -102.5q0 -133 -171 -433t-351 -558q-121 -176 -238 -278.5t-256 -102.5q-72 0 -108.5 40t-30.5 93zM430 1259.5q6 51.5 45 85t88 33.5t78 -33.5t23 -84.5q-8 -51 -46 -83t-87.5 -32t-78 31.5t-22.5 83zM827 1260q8 51 46 84.5t90 33.5 q49 0 76.5 -33.5t21.5 -84.5q-6 -49 -44 -82t-87 -33q-51 0 -80 32t-23 83z" />
<glyph unicode="&#x152;" horiz-adv-x="1986" d="M188 717q29 209 150 380t296 264t367 93q80 0 148 -20h922l-37 -334h-21l-112 303l-476 10l-96 -686l344 8l119 234h20l-69 -494h-21l-55 223l-340 9l-96 -687l498 11l208 303h21l-68 -334h-942q-76 -20 -153 -20q-295 0 -473.5 210t-133.5 527zM428 717 q-49 -336 54.5 -526.5t316.5 -190.5q119 0 176 80t82 252l108 770q23 170 -12 251t-154 81q-213 0 -368.5 -190.5t-202.5 -526.5z" />
<glyph unicode="&#x153;" horiz-adv-x="1708" d="M131 512q33 238 181.5 385t359.5 147q242 0 342 -188q86 90 198.5 139t227.5 49q195 0 264 -124q61 -113 -21 -240q-104 -162 -356 -205q-121 -20 -262 -8q-2 -164 75 -253t210 -89q104 0 185 52t132 130h21q-51 -139 -165 -233t-266 -94q-244 0 -350 174 q-156 -174 -385 -174q-211 0 -318.5 147t-72.5 385zM368.5 512q-73.5 -512 157.5 -512q225 0 299 512q70 512 -155 512q-228 0 -301.5 -512zM1065 487q264 -20 405 156q94 119 78 248q-14 109 -102 125q-12 2 -25 2q-127 0 -223 -124t-125 -319q-4 -25 -8 -88z" />
<glyph unicode="&#x178;" horiz-adv-x="1392" d="M211 1413l4 21h539l-4 -21l-154 -10l274 -782h21l434 714l-192 78l4 21h442l-4 -21l-211 -78l-469 -755l-76 -549l162 -11l-2 -20h-545l2 20l166 11l66 467l-328 905zM614 1669q8 51 46 85t87.5 34t79 -34t21.5 -85t-46 -83t-87 -32t-78 32t-23 83zM1012 1669q8 51 46 85 t89 34q49 0 77.5 -34t20.5 -85q-6 -49 -44 -82t-87 -33q-51 0 -79.5 32t-22.5 83z" />
<glyph unicode="&#x2c6;" horiz-adv-x="962" d="M362 1126l318 369h20l215 -369h-20l-227 209l-285 -209h-21z" />
<glyph unicode="&#x2dc;" horiz-adv-x="1126" d="M356 1188q150 240 252 239q49 0 175 -58t180 -58q35 0 62.5 12t46 28.5t50.5 51.5l8 -10q-141 -219 -239 -219q-55 0 -181 58t-182 58q-18 0 -34.5 -5t-26.5 -9t-26.5 -18.5t-22.5 -20.5t-26.5 -29.5t-26.5 -29.5z" />
<glyph unicode="&#x2000;" horiz-adv-x="952" />
<glyph unicode="&#x2001;" horiz-adv-x="1904" />
<glyph unicode="&#x2002;" horiz-adv-x="952" />
<glyph unicode="&#x2003;" horiz-adv-x="1904" />
<glyph unicode="&#x2004;" horiz-adv-x="634" />
<glyph unicode="&#x2005;" horiz-adv-x="475" />
<glyph unicode="&#x2006;" horiz-adv-x="317" />
<glyph unicode="&#x2007;" horiz-adv-x="317" />
<glyph unicode="&#x2008;" horiz-adv-x="237" />
<glyph unicode="&#x2009;" horiz-adv-x="380" />
<glyph unicode="&#x200a;" horiz-adv-x="104" />
<glyph unicode="&#x2010;" d="M272 532l4 31h750l-4 -31h-750z" />
<glyph unicode="&#x2011;" d="M272 532l4 31h750l-4 -31h-750z" />
<glyph unicode="&#x2012;" d="M272 532l4 31h750l-4 -31h-750z" />
<glyph unicode="&#x2013;" horiz-adv-x="1249" d="M272 532l4 31h852l-4 -31h-852z" />
<glyph unicode="&#x2014;" horiz-adv-x="1843" d="M272 532l4 31h1446l-4 -31h-1446z" />
<glyph unicode="&#x2018;" horiz-adv-x="686" d="M352 1110q20 133 118.5 238.5t203.5 142.5l4 -21q-115 -43 -182 -145q-74 -113 0 -168q47 -37 149 -37l-31 -219q-156 -20 -215 47.5t-47 161.5z" />
<glyph unicode="&#x2019;" horiz-adv-x="686" d="M336 891q117 43 184 147q74 113 0 168q-47 37 -149 37l30 217q156 20 215.5 -46t47.5 -163q-20 -133 -119 -237.5t-203 -143.5z" />
<glyph unicode="&#x201a;" horiz-adv-x="686" d="M166 -317q117 43 184 147q74 113 0 168q-47 37 -149 37l30 217q156 20 215.5 -46.5t47.5 -162.5q-20 -133 -119 -237.5t-203 -143.5z" />
<glyph unicode="&#x201c;" horiz-adv-x="1136" d="M352 1110q20 133 118.5 238.5t203.5 142.5l4 -21q-115 -43 -182 -145q-74 -113 0 -168q47 -37 149 -37l-31 -219q-156 -20 -215 47.5t-47 161.5zM803 1110q20 133 118.5 238.5t202.5 142.5l4 -21q-115 -43 -182 -145q-74 -113 0 -168q47 -37 150 -37l-31 -219 q-156 -20 -215 47.5t-47 161.5z" />
<glyph unicode="&#x201d;" horiz-adv-x="1136" d="M336 891q117 43 184 147q74 113 0 168q-47 37 -149 37l30 217q156 20 215.5 -46t47.5 -163q-20 -133 -119 -237.5t-203 -143.5zM786 891q117 43 185 147q74 113 0 168q-47 37 -150 37l31 217q156 20 215 -46t47 -163q-20 -133 -118.5 -237.5t-202.5 -143.5z" />
<glyph unicode="&#x201e;" horiz-adv-x="1136" d="M166 -317q117 43 184 147q74 113 0 168q-47 37 -149 37l30 217q156 20 215.5 -46.5t47.5 -162.5q-20 -133 -119 -237.5t-203 -143.5zM616 -317q117 43 185 147q74 113 0 168q-47 37 -150 37l31 217q156 20 215 -46.5t47 -162.5q-20 -133 -118.5 -237.5t-202.5 -143.5z " />
<glyph unicode="&#x2022;" horiz-adv-x="813" d="M270.5 475q12.5 84 79 143.5t150.5 59.5t135 -59.5t39 -143.5t-80 -142.5t-152 -58.5t-134 58.5t-37.5 142.5z" />
<glyph unicode="&#x2026;" horiz-adv-x="1619" d="M211 102q6 51 47 87t92 36t82 -35.5t25 -87.5q-8 -51 -49 -86.5t-92.5 -35.5t-82 35.5t-22.5 86.5zM702 102q6 51 47.5 87t92.5 36t81.5 -35.5t24.5 -87.5q-8 -51 -49 -86.5t-92 -35.5t-82 35.5t-23 86.5zM1194 102q6 51 47 87t92 36t82 -35.5t25 -87.5q-8 -51 -49 -86.5 t-92.5 -35.5t-82 35.5t-22.5 86.5z" />
<glyph unicode="&#x202f;" horiz-adv-x="380" />
<glyph unicode="&#x2039;" horiz-adv-x="880" d="M272 528l7 41l536 379l-4 -20l-281 -377l175 -381l-3 -20z" />
<glyph unicode="&#x203a;" horiz-adv-x="880" d="M219 150l2 20l287 381l-180 377l4 20l430 -379l-6 -41z" />
<glyph unicode="&#x205f;" horiz-adv-x="475" />
<glyph unicode="&#x20ac;" horiz-adv-x="1484" d="M197 573l2 21h163q0 51 11 123q6 51 22 112h-164l5 21h163q78 276 290 440t476 164q190 0 290.5 -82t86.5 -178q-8 -53 -44 -88t-87 -35q-82 0 -100.5 69.5t41.5 121.5q45 39 114 38l2 21q-102 113 -305 113q-176 0 -319.5 -154t-208.5 -430h412l-5 -21h-411 q-12 -55 -19 -112q-10 -66 -12 -123h410l-2 -21h-410q-10 -272 90 -422.5t275 -150.5q203 0 335 113l5 20q-90 0 -118 57.5t12 114.5t114 57q51 0 77.5 -35.5t20.5 -86.5q-14 -96 -138 -178t-313 -82q-262 0 -426.5 160.5t-169.5 432.5h-165z" />
<glyph unicode="&#x2122;" horiz-adv-x="1730" d="M297 1266l27 168h553l-21 -168h-14l-37 145l-152 6l-96 -686l80 -4v-10h-275v10l84 4l97 686l-156 -6l-76 -145h-14zM885 717v10l108 4l97 688l-107 4l2 11h209l147 -578h11l268 578h192l-2 -11l-81 -4l-97 -688l80 -4v-10h-274v10l84 4l86 610h-11l-297 -630h-40 l-158 624h-10l-78 -604l104 -4v-10h-233z" />
<glyph unicode="&#xe000;" horiz-adv-x="1045" d="M0 1045h1045v-1045h-1045v1045z" />
<glyph unicode="&#xfb01;" horiz-adv-x="1257" d="M-160 -354q4 45 39 75.5t84 30.5q29 0 54.5 -17.5t38 -58.5t-18.5 -110h20q31 0 53.5 23.5t39 80t24.5 98.5t21 130l157 1095h-151l2 21l153 10l6 41q29 193 190 311.5t357 118.5q186 0 275.5 -76t77.5 -166q-8 -59 -51.5 -93t-94.5 -34q-55 0 -80.5 33t-19.5 80 q8 49 55 83t125 19l2 21q-98 113 -287 113q-272 0 -331 -410l-7 -41h377q76 20 129 20q76 0 100.5 -41.5t12.5 -121.5l-121 -834l19 -20l208 69v-20q-195 -96 -321 -96q-76 0 -100.5 41.5t-12.5 121.5l123 850h-418l-145 -1024q-27 -184 -159 -312t-285 -128 q-63 0 -105.5 28t-34.5 89z" />
<glyph unicode="&#xfb02;" horiz-adv-x="1255" d="M-160 -354q4 45 39 75.5t84 30.5q29 0 54.5 -17.5t38 -58.5t-18.5 -110h20q31 0 53.5 23.5t39 80t24.5 98.5t21 130l157 1095h-151l2 21l153 10l6 41q29 195 175.5 312.5t341.5 117.5q129 0 215 -72l159 72h21l-203 -1448l19 -20l208 69v-20q-195 -96 -321 -96 q-76 0 -100.5 41.5t-12.5 121.5l164 1153q10 80 -28.5 129.5t-122.5 49.5q-133 0 -201 -106.5t-96 -303.5l-7 -41h234l-4 -31h-234l-145 -1024q-27 -184 -159 -312t-285 -128q-63 0 -105.5 28t-34.5 89z" />
<glyph unicode="&#xfb03;" horiz-adv-x="1898" d="M-160 -354q4 45 39 75.5t84 30.5q29 0 54.5 -17.5t38 -58.5t-18.5 -110h20q31 0 53.5 23.5t39 80t24.5 98.5t21 130l157 1095h-151l2 21l153 10l6 41q29 193 190 311.5t357 118.5q209 0 303 -104q152 104 338.5 104t275.5 -76t77 -166q-8 -59 -51.5 -93t-94.5 -34 q-55 0 -80.5 33t-19.5 80q8 49 55 83t125 19l2 21q-98 113 -287 113q-272 0 -331 -410l-7 -41h377q76 20 129 20q76 0 100.5 -41.5t12.5 -121.5l-121 -834l19 -20l208 69v-20q-195 -96 -321 -96q-76 0 -100.5 41.5t-12.5 121.5l123 850h-418l-145 -1024q-27 -184 -159 -312 t-285 -128q-63 0 -105.5 27.5t-34.5 89.5q6 45 40 75.5t83 30.5q29 0 54.5 -17.5t38 -58.5t-18.5 -110h20q59 0 87 82t51 250l157 1095h-424l-145 -1024q-27 -184 -159 -312t-285 -128q-63 0 -105.5 28t-34.5 89zM573 1024h424l7 41q27 186 184 307q-102 102 -277 103 q-272 0 -331 -410z" />
<glyph unicode="&#xfb04;" horiz-adv-x="1898" d="M-160 -354q4 45 39 75.5t84 30.5q29 0 54.5 -17.5t38 -58.5t-18.5 -110h20q31 0 53.5 23.5t39 80t24.5 98.5t21 130l157 1095h-151l2 21l153 10l6 41q29 193 190 311.5t357 118.5q201 0 297 -96q137 96 314 96q127 0 217 -72l159 72h21l-205 -1448l19 -20l208 69v-20 q-193 -96 -321 -96q-76 0 -99.5 41.5t-11.5 121.5l162 1153q10 80 -28.5 129.5t-122.5 49.5q-133 0 -200 -105.5t-95 -304.5l-6 -41h231l-4 -31h-232l-147 -1024q-27 -184 -159 -312t-285 -128q-63 0 -105.5 27.5t-34.5 89.5q6 45 40 75.5t83 30.5q29 0 54.5 -17.5t38 -58.5 t-18.5 -110h20q59 0 87 82t51 250l157 1095h-424l-145 -1024q-27 -184 -159 -312t-285 -128q-63 0 -105.5 28t-34.5 89zM573 1024h424l7 41q27 197 176 315q-98 94 -269 95q-272 0 -331 -410z" />
</font>
</defs>
</svg>
